STARTFONT 2.1
FONT -Misc-Fixed-Medium-R-Normal--8-70-75-75-C-60-jisx0208.1990-0
SIZE 8 75 75
FONTBOUNDINGBOX 6 8 0 -2
STARTPROPERTIES 19
FONTNAME_REGISTRY ""
FOUNDRY "Misc"
FAMILY_NAME "Fixed"
WEIGHT_NAME "Medium"
SLANT "R"
SETWIDTH_NAME "Normal"
ADD_STYLE_NAME ""
PIXEL_SIZE 8
POINT_SIZE 70
RESOLUTION_X 75
RESOLUTION_Y 75
SPACING "C"
AVERAGE_WIDTH 60
CHARSET_REGISTRY "jisx0208.1990"
CHARSET_ENCODING "0"
DEFAULT_CHAR 8481
FONT_DESCENT 2
FONT_ASCENT 6
COPYRIGHT "Copyright(C) 2000-2007 Num Kadoma"
ENDPROPERTIES
CHARS 6879
STARTCHAR 2121
ENCODING 8481
SWIDTH 822 0
DWIDTH 6 0
BBX 6 8 0 -2
BITMAP
00
00
00
00
00
00
00
00
ENDCHAR
STARTCHAR 2122
ENCODING 8482
SWIDTH 822 0
DWIDTH 6 0
BBX 6 8 0 -2
BITMAP
00
00
00
00
00
80
40
00
ENDCHAR
STARTCHAR 2123
ENCODING 8483
SWIDTH 822 0
DWIDTH 6 0
BBX 6 8 0 -2
BITMAP
00
00
00
00
40
a0
40
00
ENDCHAR
STARTCHAR 2124
ENCODING 8484
SWIDTH 822 0
DWIDTH 6 0
BBX 6 8 0 -2
BITMAP
00
00
00
00
c0
40
80
00
ENDCHAR
STARTCHAR 2125
ENCODING 8485
SWIDTH 822 0
DWIDTH 6 0
BBX 6 8 0 -2
BITMAP
00
00
00
00
00
c0
c0
00
ENDCHAR
STARTCHAR 2126
ENCODING 8486
SWIDTH 822 0
DWIDTH 6 0
BBX 6 8 0 -2
BITMAP
00
00
00
60
60
00
00
00
ENDCHAR
STARTCHAR 2127
ENCODING 8487
SWIDTH 822 0
DWIDTH 6 0
BBX 6 8 0 -2
BITMAP
00
60
60
00
60
60
00
00
ENDCHAR
STARTCHAR 2128
ENCODING 8488
SWIDTH 822 0
DWIDTH 6 0
BBX 6 8 0 -2
BITMAP
00
60
60
00
60
20
40
00
ENDCHAR
STARTCHAR 2129
ENCODING 8489
SWIDTH 822 0
DWIDTH 6 0
BBX 6 8 0 -2
BITMAP
70
88
08
30
20
00
20
00
ENDCHAR
STARTCHAR 212a
ENCODING 8490
SWIDTH 822 0
DWIDTH 6 0
BBX 6 8 0 -2
BITMAP
20
20
20
20
20
00
20
00
ENDCHAR
STARTCHAR 212b
ENCODING 8491
SWIDTH 822 0
DWIDTH 6 0
BBX 6 8 0 -2
BITMAP
a0
50
00
00
00
00
00
00
ENDCHAR
STARTCHAR 212c
ENCODING 8492
SWIDTH 822 0
DWIDTH 6 0
BBX 6 8 0 -2
BITMAP
40
a0
40
00
00
00
00
00
ENDCHAR
STARTCHAR 212d
ENCODING 8493
SWIDTH 822 0
DWIDTH 6 0
BBX 6 8 0 -2
BITMAP
10
20
00
00
00
00
00
00
ENDCHAR
STARTCHAR 212e
ENCODING 8494
SWIDTH 822 0
DWIDTH 6 0
BBX 6 8 0 -2
BITMAP
40
20
00
00
00
00
00
00
ENDCHAR
STARTCHAR 212f
ENCODING 8495
SWIDTH 822 0
DWIDTH 6 0
BBX 6 8 0 -2
BITMAP
50
00
00
00
00
00
00
00
ENDCHAR
STARTCHAR 2130
ENCODING 8496
SWIDTH 822 0
DWIDTH 6 0
BBX 6 8 0 -2
BITMAP
20
50
00
00
00
00
00
00
ENDCHAR
STARTCHAR 2131
ENCODING 8497
SWIDTH 822 0
DWIDTH 6 0
BBX 6 8 0 -2
BITMAP
f8
00
00
00
00
00
00
00
ENDCHAR
STARTCHAR 2132
ENCODING 8498
SWIDTH 822 0
DWIDTH 6 0
BBX 6 8 0 -2
BITMAP
00
00
00
00
00
00
f8
00
ENDCHAR
STARTCHAR 2133
ENCODING 8499
SWIDTH 822 0
DWIDTH 6 0
BBX 6 8 0 -2
BITMAP
00
00
40
20
10
10
00
00
ENDCHAR
STARTCHAR 2134
ENCODING 8500
SWIDTH 822 0
DWIDTH 6 0
BBX 6 8 0 -2
BITMAP
28
00
40
20
10
10
00
00
ENDCHAR
STARTCHAR 2135
ENCODING 8501
SWIDTH 822 0
DWIDTH 6 0
BBX 6 8 0 -2
BITMAP
00
40
20
10
18
20
00
00
ENDCHAR
STARTCHAR 2136
ENCODING 8502
SWIDTH 822 0
DWIDTH 6 0
BBX 6 8 0 -2
BITMAP
28
40
20
10
18
20
00
00
ENDCHAR
STARTCHAR 2137
ENCODING 8503
SWIDTH 822 0
DWIDTH 6 0
BBX 6 8 0 -2
BITMAP
00
00
48
48
48
90
00
00
ENDCHAR
STARTCHAR 2138
ENCODING 8504
SWIDTH 822 0
DWIDTH 6 0
BBX 6 8 0 -2
BITMAP
20
50
88
70
20
20
f8
00
ENDCHAR
STARTCHAR 2139
ENCODING 8505
SWIDTH 822 0
DWIDTH 6 0
BBX 6 8 0 -2
BITMAP
00
40
78
48
90
20
10
00
ENDCHAR
STARTCHAR 213a
ENCODING 8506
SWIDTH 822 0
DWIDTH 6 0
BBX 6 8 0 -2
BITMAP
08
10
50
a0
a0
d0
80
00
ENDCHAR
STARTCHAR 213b
ENCODING 8507
SWIDTH 822 0
DWIDTH 6 0
BBX 6 8 0 -2
BITMAP
00
00
70
88
88
70
00
00
ENDCHAR
STARTCHAR 213c
ENCODING 8508
SWIDTH 822 0
DWIDTH 6 0
BBX 6 8 0 -2
BITMAP
00
00
80
78
00
00
00
00
ENDCHAR
STARTCHAR 213d
ENCODING 8509
SWIDTH 822 0
DWIDTH 6 0
BBX 6 8 0 -2
BITMAP
00
00
00
fc
00
00
00
00
ENDCHAR
STARTCHAR 213e
ENCODING 8510
SWIDTH 822 0
DWIDTH 6 0
BBX 6 8 0 -2
BITMAP
00
00
00
70
00
00
00
00
ENDCHAR
STARTCHAR 213f
ENCODING 8511
SWIDTH 822 0
DWIDTH 6 0
BBX 6 8 0 -2
BITMAP
00
08
10
20
40
80
00
00
ENDCHAR
STARTCHAR 2140
ENCODING 8512
SWIDTH 822 0
DWIDTH 6 0
BBX 6 8 0 -2
BITMAP
00
80
40
20
10
08
00
00
ENDCHAR
STARTCHAR 2141
ENCODING 8513
SWIDTH 822 0
DWIDTH 6 0
BBX 6 8 0 -2
BITMAP
00
00
40
a8
10
00
00
00
ENDCHAR
STARTCHAR 2142
ENCODING 8514
SWIDTH 822 0
DWIDTH 6 0
BBX 6 8 0 -2
BITMAP
50
50
50
50
50
50
50
00
ENDCHAR
STARTCHAR 2143
ENCODING 8515
SWIDTH 822 0
DWIDTH 6 0
BBX 6 8 0 -2
BITMAP
20
20
20
20
20
20
20
00
ENDCHAR
STARTCHAR 2144
ENCODING 8516
SWIDTH 822 0
DWIDTH 6 0
BBX 6 8 0 -2
BITMAP
00
00
00
a8
00
00
00
00
ENDCHAR
STARTCHAR 2145
ENCODING 8517
SWIDTH 822 0
DWIDTH 6 0
BBX 6 8 0 -2
BITMAP
00
00
00
90
00
00
00
00
ENDCHAR
STARTCHAR 2146
ENCODING 8518
SWIDTH 822 0
DWIDTH 6 0
BBX 6 8 0 -2
BITMAP
08
10
18
00
00
00
00
00
ENDCHAR
STARTCHAR 2147
ENCODING 8519
SWIDTH 822 0
DWIDTH 6 0
BBX 6 8 0 -2
BITMAP
c0
40
80
00
00
00
00
00
ENDCHAR
STARTCHAR 2148
ENCODING 8520
SWIDTH 822 0
DWIDTH 6 0
BBX 6 8 0 -2
BITMAP
28
50
78
00
00
00
00
00
ENDCHAR
STARTCHAR 2149
ENCODING 8521
SWIDTH 822 0
DWIDTH 6 0
BBX 6 8 0 -2
BITMAP
f0
50
a0
00
00
00
00
00
ENDCHAR
STARTCHAR 214a
ENCODING 8522
SWIDTH 822 0
DWIDTH 6 0
BBX 6 8 0 -2
BITMAP
08
10
20
20
20
10
08
00
ENDCHAR
STARTCHAR 214b
ENCODING 8523
SWIDTH 822 0
DWIDTH 6 0
BBX 6 8 0 -2
BITMAP
80
40
20
20
20
40
80
00
ENDCHAR
STARTCHAR 214c
ENCODING 8524
SWIDTH 822 0
DWIDTH 6 0
BBX 6 8 0 -2
BITMAP
18
60
40
40
40
60
18
00
ENDCHAR
STARTCHAR 214d
ENCODING 8525
SWIDTH 822 0
DWIDTH 6 0
BBX 6 8 0 -2
BITMAP
c0
30
10
10
10
30
c0
00
ENDCHAR
STARTCHAR 214e
ENCODING 8526
SWIDTH 822 0
DWIDTH 6 0
BBX 6 8 0 -2
BITMAP
38
20
20
20
20
20
38
00
ENDCHAR
STARTCHAR 214f
ENCODING 8527
SWIDTH 822 0
DWIDTH 6 0
BBX 6 8 0 -2
BITMAP
e0
20
20
20
20
20
e0
00
ENDCHAR
STARTCHAR 2150
ENCODING 8528
SWIDTH 822 0
DWIDTH 6 0
BBX 6 8 0 -2
BITMAP
18
20
20
40
20
20
18
00
ENDCHAR
STARTCHAR 2151
ENCODING 8529
SWIDTH 822 0
DWIDTH 6 0
BBX 6 8 0 -2
BITMAP
c0
20
20
10
20
20
c0
00
ENDCHAR
STARTCHAR 2152
ENCODING 8530
SWIDTH 822 0
DWIDTH 6 0
BBX 6 8 0 -2
BITMAP
08
10
20
40
20
10
08
00
ENDCHAR
STARTCHAR 2153
ENCODING 8531
SWIDTH 822 0
DWIDTH 6 0
BBX 6 8 0 -2
BITMAP
80
40
20
10
20
40
80
00
ENDCHAR
STARTCHAR 2154
ENCODING 8532
SWIDTH 822 0
DWIDTH 6 0
BBX 6 8 0 -2
BITMAP
10
28
50
a0
50
28
10
00
ENDCHAR
STARTCHAR 2155
ENCODING 8533
SWIDTH 822 0
DWIDTH 6 0
BBX 6 8 0 -2
BITMAP
40
a0
50
28
50
a0
40
00
ENDCHAR
STARTCHAR 2156
ENCODING 8534
SWIDTH 822 0
DWIDTH 6 0
BBX 6 8 0 -2
BITMAP
38
20
20
20
20
00
00
00
ENDCHAR
STARTCHAR 2157
ENCODING 8535
SWIDTH 822 0
DWIDTH 6 0
BBX 6 8 0 -2
BITMAP
00
00
20
20
20
20
e0
00
ENDCHAR
STARTCHAR 2158
ENCODING 8536
SWIDTH 822 0
DWIDTH 6 0
BBX 6 8 0 -2
BITMAP
78
48
58
50
50
70
00
00
ENDCHAR
STARTCHAR 2159
ENCODING 8537
SWIDTH 822 0
DWIDTH 6 0
BBX 6 8 0 -2
BITMAP
00
70
50
50
d0
90
f0
00
ENDCHAR
STARTCHAR 215a
ENCODING 8538
SWIDTH 822 0
DWIDTH 6 0
BBX 6 8 0 -2
BITMAP
38
30
20
20
20
30
38
00
ENDCHAR
STARTCHAR 215b
ENCODING 8539
SWIDTH 822 0
DWIDTH 6 0
BBX 6 8 0 -2
BITMAP
e0
60
20
20
20
60
e0
00
ENDCHAR
STARTCHAR 215c
ENCODING 8540
SWIDTH 822 0
DWIDTH 6 0
BBX 6 8 0 -2
BITMAP
00
20
20
f8
20
20
00
00
ENDCHAR
STARTCHAR 215d
ENCODING 8541
SWIDTH 822 0
DWIDTH 6 0
BBX 6 8 0 -2
BITMAP
00
00
00
f8
00
00
00
00
ENDCHAR
STARTCHAR 215e
ENCODING 8542
SWIDTH 822 0
DWIDTH 6 0
BBX 6 8 0 -2
BITMAP
20
20
f8
20
20
00
f8
00
ENDCHAR
STARTCHAR 215f
ENCODING 8543
SWIDTH 822 0
DWIDTH 6 0
BBX 6 8 0 -2
BITMAP
00
88
50
20
50
88
00
00
ENDCHAR
STARTCHAR 2160
ENCODING 8544
SWIDTH 822 0
DWIDTH 6 0
BBX 6 8 0 -2
BITMAP
00
20
00
f8
00
20
00
00
ENDCHAR
STARTCHAR 2161
ENCODING 8545
SWIDTH 822 0
DWIDTH 6 0
BBX 6 8 0 -2
BITMAP
00
00
f8
00
f8
00
00
00
ENDCHAR
STARTCHAR 2162
ENCODING 8546
SWIDTH 822 0
DWIDTH 6 0
BBX 6 8 0 -2
BITMAP
00
10
f8
20
f8
40
00
00
ENDCHAR
STARTCHAR 2163
ENCODING 8547
SWIDTH 822 0
DWIDTH 6 0
BBX 6 8 0 -2
BITMAP
00
18
60
80
60
18
00
00
ENDCHAR
STARTCHAR 2164
ENCODING 8548
SWIDTH 822 0
DWIDTH 6 0
BBX 6 8 0 -2
BITMAP
00
c0
30
08
30
c0
00
00
ENDCHAR
STARTCHAR 2165
ENCODING 8549
SWIDTH 822 0
DWIDTH 6 0
BBX 6 8 0 -2
BITMAP
18
60
80
60
18
00
f8
00
ENDCHAR
STARTCHAR 2166
ENCODING 8550
SWIDTH 822 0
DWIDTH 6 0
BBX 6 8 0 -2
BITMAP
c0
30
08
30
c0
00
f8
00
ENDCHAR
STARTCHAR 2167
ENCODING 8551
SWIDTH 822 0
DWIDTH 6 0
BBX 6 8 0 -2
BITMAP
00
50
a8
a8
a8
50
00
00
ENDCHAR
STARTCHAR 2168
ENCODING 8552
SWIDTH 822 0
DWIDTH 6 0
BBX 6 8 0 -2
BITMAP
00
20
00
00
00
88
00
00
ENDCHAR
STARTCHAR 2169
ENCODING 8553
SWIDTH 822 0
DWIDTH 6 0
BBX 6 8 0 -2
BITMAP
38
18
28
60
90
90
60
00
ENDCHAR
STARTCHAR 216a
ENCODING 8554
SWIDTH 822 0
DWIDTH 6 0
BBX 6 8 0 -2
BITMAP
70
88
88
70
20
f8
20
00
ENDCHAR
STARTCHAR 216b
ENCODING 8555
SWIDTH 822 0
DWIDTH 6 0
BBX 6 8 0 -2
BITMAP
40
a0
40
00
00
00
00
00
ENDCHAR
STARTCHAR 216c
ENCODING 8556
SWIDTH 822 0
DWIDTH 6 0
BBX 6 8 0 -2
BITMAP
40
40
80
00
00
00
00
00
ENDCHAR
STARTCHAR 216d
ENCODING 8557
SWIDTH 822 0
DWIDTH 6 0
BBX 6 8 0 -2
BITMAP
50
50
a0
00
00
00
00
00
ENDCHAR
STARTCHAR 216e
ENCODING 8558
SWIDTH 822 0
DWIDTH 6 0
BBX 6 8 0 -2
BITMAP
40
b0
48
40
40
48
30
00
ENDCHAR
STARTCHAR 216f
ENCODING 8559
SWIDTH 822 0
DWIDTH 6 0
BBX 6 8 0 -2
BITMAP
88
50
f8
20
f8
20
20
00
ENDCHAR
STARTCHAR 2170
ENCODING 8560
SWIDTH 822 0
DWIDTH 6 0
BBX 6 8 0 -2
BITMAP
20
78
a0
70
28
f0
20
00
ENDCHAR
STARTCHAR 2171
ENCODING 8561
SWIDTH 822 0
DWIDTH 6 0
BBX 6 8 0 -2
BITMAP
10
70
a8
a0
a8
70
40
00
ENDCHAR
STARTCHAR 2172
ENCODING 8562
SWIDTH 822 0
DWIDTH 6 0
BBX 6 8 0 -2
BITMAP
30
48
40
f0
20
e8
d0
00
ENDCHAR
STARTCHAR 2173
ENCODING 8563
SWIDTH 822 0
DWIDTH 6 0
BBX 6 8 0 -2
BITMAP
c0
c8
10
20
40
98
18
00
ENDCHAR
STARTCHAR 2174
ENCODING 8564
SWIDTH 822 0
DWIDTH 6 0
BBX 6 8 0 -2
BITMAP
50
f8
50
50
50
f8
50
00
ENDCHAR
STARTCHAR 2175
ENCODING 8565
SWIDTH 822 0
DWIDTH 6 0
BBX 6 8 0 -2
BITMAP
20
50
50
60
a8
90
68
00
ENDCHAR
STARTCHAR 2176
ENCODING 8566
SWIDTH 822 0
DWIDTH 6 0
BBX 6 8 0 -2
BITMAP
00
20
a8
70
a8
20
00
00
ENDCHAR
STARTCHAR 2177
ENCODING 8567
SWIDTH 822 0
DWIDTH 6 0
BBX 6 8 0 -2
BITMAP
70
88
b8
a8
b0
88
70
00
ENDCHAR
STARTCHAR 2178
ENCODING 8568
SWIDTH 822 0
DWIDTH 6 0
BBX 6 8 0 -2
BITMAP
38
40
30
48
30
08
70
00
ENDCHAR
STARTCHAR 2179
ENCODING 8569
SWIDTH 822 0
DWIDTH 6 0
BBX 6 8 0 -2
BITMAP
20
20
f8
50
70
d8
88
00
ENDCHAR
STARTCHAR 217a
ENCODING 8570
SWIDTH 822 0
DWIDTH 6 0
BBX 6 8 0 -2
BITMAP
20
20
f8
70
70
d8
88
00
ENDCHAR
STARTCHAR 217b
ENCODING 8571
SWIDTH 822 0
DWIDTH 6 0
BBX 6 8 0 -2
BITMAP
00
70
88
88
88
70
00
00
ENDCHAR
STARTCHAR 217c
ENCODING 8572
SWIDTH 822 0
DWIDTH 6 0
BBX 6 8 0 -2
BITMAP
00
70
f8
f8
f8
70
00
00
ENDCHAR
STARTCHAR 217d
ENCODING 8573
SWIDTH 822 0
DWIDTH 6 0
BBX 6 8 0 -2
BITMAP
00
70
a8
d8
a8
70
00
00
ENDCHAR
STARTCHAR 217e
ENCODING 8574
SWIDTH 822 0
DWIDTH 6 0
BBX 6 8 0 -2
BITMAP
00
20
50
88
50
20
00
00
ENDCHAR
STARTCHAR 2221
ENCODING 8737
SWIDTH 822 0
DWIDTH 6 0
BBX 6 8 0 -2
BITMAP
00
20
70
f8
70
20
00
00
ENDCHAR
STARTCHAR 2222
ENCODING 8738
SWIDTH 822 0
DWIDTH 6 0
BBX 6 8 0 -2
BITMAP
00
f8
88
88
88
f8
00
00
ENDCHAR
STARTCHAR 2223
ENCODING 8739
SWIDTH 822 0
DWIDTH 6 0
BBX 6 8 0 -2
BITMAP
00
f8
f8
f8
f8
f8
00
00
ENDCHAR
STARTCHAR 2224
ENCODING 8740
SWIDTH 822 0
DWIDTH 6 0
BBX 6 8 0 -2
BITMAP
00
20
20
50
50
f8
00
00
ENDCHAR
STARTCHAR 2225
ENCODING 8741
SWIDTH 822 0
DWIDTH 6 0
BBX 6 8 0 -2
BITMAP
00
20
20
70
70
f8
00
00
ENDCHAR
STARTCHAR 2226
ENCODING 8742
SWIDTH 822 0
DWIDTH 6 0
BBX 6 8 0 -2
BITMAP
00
f8
50
50
20
20
00
00
ENDCHAR
STARTCHAR 2227
ENCODING 8743
SWIDTH 822 0
DWIDTH 6 0
BBX 6 8 0 -2
BITMAP
00
f8
70
70
20
20
00
00
ENDCHAR
STARTCHAR 2228
ENCODING 8744
SWIDTH 822 0
DWIDTH 6 0
BBX 6 8 0 -2
BITMAP
00
a8
50
a8
50
a8
00
00
ENDCHAR
STARTCHAR 2229
ENCODING 8745
SWIDTH 822 0
DWIDTH 6 0
BBX 6 8 0 -2
BITMAP
00
f8
00
f8
20
20
20
00
ENDCHAR
STARTCHAR 222a
ENCODING 8746
SWIDTH 822 0
DWIDTH 6 0
BBX 6 8 0 -2
BITMAP
00
20
10
f8
10
20
00
00
ENDCHAR
STARTCHAR 222b
ENCODING 8747
SWIDTH 822 0
DWIDTH 6 0
BBX 6 8 0 -2
BITMAP
00
20
40
f8
40
20
00
00
ENDCHAR
STARTCHAR 222c
ENCODING 8748
SWIDTH 822 0
DWIDTH 6 0
BBX 6 8 0 -2
BITMAP
20
70
a8
20
20
20
20
00
ENDCHAR
STARTCHAR 222d
ENCODING 8749
SWIDTH 822 0
DWIDTH 6 0
BBX 6 8 0 -2
BITMAP
20
20
20
20
a8
70
20
00
ENDCHAR
STARTCHAR 222e
ENCODING 8750
SWIDTH 822 0
DWIDTH 6 0
BBX 6 8 0 -2
BITMAP
00
f8
f8
00
f8
f8
00
00
ENDCHAR
STARTCHAR 223a
ENCODING 8762
SWIDTH 822 0
DWIDTH 6 0
BBX 6 8 0 -2
BITMAP
00
78
80
f8
80
78
00
00
ENDCHAR
STARTCHAR 223b
ENCODING 8763
SWIDTH 822 0
DWIDTH 6 0
BBX 6 8 0 -2
BITMAP
00
f0
08
f8
08
f0
00
00
ENDCHAR
STARTCHAR 223c
ENCODING 8764
SWIDTH 822 0
DWIDTH 6 0
BBX 6 8 0 -2
BITMAP
78
80
80
80
78
00
f8
00
ENDCHAR
STARTCHAR 223d
ENCODING 8765
SWIDTH 822 0
DWIDTH 6 0
BBX 6 8 0 -2
BITMAP
f0
08
08
08
f0
00
f8
00
ENDCHAR
STARTCHAR 223e
ENCODING 8766
SWIDTH 822 0
DWIDTH 6 0
BBX 6 8 0 -2
BITMAP
00
78
80
80
80
78
00
00
ENDCHAR
STARTCHAR 223f
ENCODING 8767
SWIDTH 822 0
DWIDTH 6 0
BBX 6 8 0 -2
BITMAP
00
f0
08
08
08
f0
00
00
ENDCHAR
STARTCHAR 2240
ENCODING 8768
SWIDTH 822 0
DWIDTH 6 0
BBX 6 8 0 -2
BITMAP
00
88
88
88
88
70
00
00
ENDCHAR
STARTCHAR 2241
ENCODING 8769
SWIDTH 822 0
DWIDTH 6 0
BBX 6 8 0 -2
BITMAP
00
70
88
88
88
88
00
00
ENDCHAR
STARTCHAR 224a
ENCODING 8778
SWIDTH 822 0
DWIDTH 6 0
BBX 6 8 0 -2
BITMAP
20
20
50
50
88
88
00
00
ENDCHAR
STARTCHAR 224b
ENCODING 8779
SWIDTH 822 0
DWIDTH 6 0
BBX 6 8 0 -2
BITMAP
00
88
88
50
50
20
20
00
ENDCHAR
STARTCHAR 224c
ENCODING 8780
SWIDTH 822 0
DWIDTH 6 0
BBX 6 8 0 -2
BITMAP
00
00
00
f8
08
08
00
00
ENDCHAR
STARTCHAR 224d
ENCODING 8781
SWIDTH 822 0
DWIDTH 6 0
BBX 6 8 0 -2
BITMAP
00
20
f0
08
f0
20
00
00
ENDCHAR
STARTCHAR 224e
ENCODING 8782
SWIDTH 822 0
DWIDTH 6 0
BBX 6 8 0 -2
BITMAP
00
50
70
88
70
50
00
00
ENDCHAR
STARTCHAR 224f
ENCODING 8783
SWIDTH 822 0
DWIDTH 6 0
BBX 6 8 0 -2
BITMAP
88
88
70
50
50
20
20
00
ENDCHAR
STARTCHAR 2250
ENCODING 8784
SWIDTH 822 0
DWIDTH 6 0
BBX 6 8 0 -2
BITMAP
f8
08
08
f8
08
08
f8
00
ENDCHAR
STARTCHAR 225c
ENCODING 8796
SWIDTH 822 0
DWIDTH 6 0
BBX 6 8 0 -2
BITMAP
00
08
10
20
40
f8
00
00
ENDCHAR
STARTCHAR 225d
ENCODING 8797
SWIDTH 822 0
DWIDTH 6 0
BBX 6 8 0 -2
BITMAP
00
20
20
20
20
f8
00
00
ENDCHAR
STARTCHAR 225e
ENCODING 8798
SWIDTH 822 0
DWIDTH 6 0
BBX 6 8 0 -2
BITMAP
70
88
00
00
00
00
00
00
ENDCHAR
STARTCHAR 225f
ENCODING 8799
SWIDTH 822 0
DWIDTH 6 0
BBX 6 8 0 -2
BITMAP
30
48
08
68
90
90
60
00
ENDCHAR
STARTCHAR 2260
ENCODING 8800
SWIDTH 822 0
DWIDTH 6 0
BBX 6 8 0 -2
BITMAP
f8
88
50
50
50
20
20
00
ENDCHAR
STARTCHAR 2261
ENCODING 8801
SWIDTH 822 0
DWIDTH 6 0
BBX 6 8 0 -2
BITMAP
00
f8
00
f8
00
f8
00
00
ENDCHAR
STARTCHAR 2262
ENCODING 8802
SWIDTH 822 0
DWIDTH 6 0
BBX 6 8 0 -2
BITMAP
40
00
f8
00
f8
00
10
00
ENDCHAR
STARTCHAR 2263
ENCODING 8803
SWIDTH 822 0
DWIDTH 6 0
BBX 6 8 0 -2
BITMAP
00
28
50
a0
50
28
00
00
ENDCHAR
STARTCHAR 2264
ENCODING 8804
SWIDTH 822 0
DWIDTH 6 0
BBX 6 8 0 -2
BITMAP
00
a0
50
28
50
a0
00
00
ENDCHAR
STARTCHAR 2265
ENCODING 8805
SWIDTH 822 0
DWIDTH 6 0
BBX 6 8 0 -2
BITMAP
38
20
20
20
c0
40
40
00
ENDCHAR
STARTCHAR 2266
ENCODING 8806
SWIDTH 822 0
DWIDTH 6 0
BBX 6 8 0 -2
BITMAP
00
10
a8
a8
a8
40
00
00
ENDCHAR
STARTCHAR 2267
ENCODING 8807
SWIDTH 822 0
DWIDTH 6 0
BBX 6 8 0 -2
BITMAP
00
50
a8
a0
a8
50
00
00
ENDCHAR
STARTCHAR 2268
ENCODING 8808
SWIDTH 822 0
DWIDTH 6 0
BBX 6 8 0 -2
BITMAP
00
88
00
00
00
20
00
00
ENDCHAR
STARTCHAR 2269
ENCODING 8809
SWIDTH 822 0
DWIDTH 6 0
BBX 6 8 0 -2
BITMAP
20
50
40
20
10
50
20
00
ENDCHAR
STARTCHAR 226a
ENCODING 8810
SWIDTH 822 0
DWIDTH 6 0
BBX 6 8 0 -2
BITMAP
50
a8
a0
50
28
a8
50
00
ENDCHAR
STARTCHAR 2272
ENCODING 8818
SWIDTH 822 0
DWIDTH 6 0
BBX 6 8 0 -2
BITMAP
20
50
20
50
50
f8
88
00
ENDCHAR
STARTCHAR 2273
ENCODING 8819
SWIDTH 822 0
DWIDTH 6 0
BBX 6 8 0 -2
BITMAP
c8
d0
20
40
80
d8
d8
00
ENDCHAR
STARTCHAR 2274
ENCODING 8820
SWIDTH 822 0
DWIDTH 6 0
BBX 6 8 0 -2
BITMAP
10
58
70
d8
70
d0
40
00
ENDCHAR
STARTCHAR 2275
ENCODING 8821
SWIDTH 822 0
DWIDTH 6 0
BBX 6 8 0 -2
BITMAP
40
40
50
68
48
50
60
00
ENDCHAR
STARTCHAR 2276
ENCODING 8822
SWIDTH 822 0
DWIDTH 6 0
BBX 6 8 0 -2
BITMAP
20
30
28
28
60
e0
c0
00
ENDCHAR
STARTCHAR 2277
ENCODING 8823
SWIDTH 822 0
DWIDTH 6 0
BBX 6 8 0 -2
BITMAP
20
70
20
20
20
20
20
00
ENDCHAR
STARTCHAR 2278
ENCODING 8824
SWIDTH 822 0
DWIDTH 6 0
BBX 6 8 0 -2
BITMAP
20
70
20
20
20
70
20
00
ENDCHAR
STARTCHAR 2279
ENCODING 8825
SWIDTH 822 0
DWIDTH 6 0
BBX 6 8 0 -2
BITMAP
78
e8
e8
68
28
28
28
00
ENDCHAR
STARTCHAR 227e
ENCODING 8830
SWIDTH 822 0
DWIDTH 6 0
BBX 6 8 0 -2
BITMAP
70
88
88
88
88
88
70
00
ENDCHAR
STARTCHAR 2330
ENCODING 9008
SWIDTH 822 0
DWIDTH 6 0
BBX 6 8 0 -2
BITMAP
70
88
98
a8
c8
88
70
00
ENDCHAR
STARTCHAR 2331
ENCODING 9009
SWIDTH 822 0
DWIDTH 6 0
BBX 6 8 0 -2
BITMAP
20
60
20
20
20
20
70
00
ENDCHAR
STARTCHAR 2332
ENCODING 9010
SWIDTH 822 0
DWIDTH 6 0
BBX 6 8 0 -2
BITMAP
70
88
08
30
40
80
f8
00
ENDCHAR
STARTCHAR 2333
ENCODING 9011
SWIDTH 822 0
DWIDTH 6 0
BBX 6 8 0 -2
BITMAP
70
88
08
30
08
88
70
00
ENDCHAR
STARTCHAR 2334
ENCODING 9012
SWIDTH 822 0
DWIDTH 6 0
BBX 6 8 0 -2
BITMAP
10
30
50
90
f8
10
10
00
ENDCHAR
STARTCHAR 2335
ENCODING 9013
SWIDTH 822 0
DWIDTH 6 0
BBX 6 8 0 -2
BITMAP
f8
80
f0
88
08
88
70
00
ENDCHAR
STARTCHAR 2336
ENCODING 9014
SWIDTH 822 0
DWIDTH 6 0
BBX 6 8 0 -2
BITMAP
70
88
80
f0
88
88
70
00
ENDCHAR
STARTCHAR 2337
ENCODING 9015
SWIDTH 822 0
DWIDTH 6 0
BBX 6 8 0 -2
BITMAP
f8
08
10
20
20
40
40
00
ENDCHAR
STARTCHAR 2338
ENCODING 9016
SWIDTH 822 0
DWIDTH 6 0
BBX 6 8 0 -2
BITMAP
70
88
88
70
88
88
70
00
ENDCHAR
STARTCHAR 2339
ENCODING 9017
SWIDTH 822 0
DWIDTH 6 0
BBX 6 8 0 -2
BITMAP
70
88
88
78
08
88
70
00
ENDCHAR
STARTCHAR 2341
ENCODING 9025
SWIDTH 822 0
DWIDTH 6 0
BBX 6 8 0 -2
BITMAP
20
20
50
50
70
88
88
00
ENDCHAR
STARTCHAR 2342
ENCODING 9026
SWIDTH 822 0
DWIDTH 6 0
BBX 6 8 0 -2
BITMAP
f0
88
88
f0
88
88
f0
00
ENDCHAR
STARTCHAR 2343
ENCODING 9027
SWIDTH 822 0
DWIDTH 6 0
BBX 6 8 0 -2
BITMAP
30
48
80
80
80
48
30
00
ENDCHAR
STARTCHAR 2344
ENCODING 9028
SWIDTH 822 0
DWIDTH 6 0
BBX 6 8 0 -2
BITMAP
e0
90
88
88
88
90
e0
00
ENDCHAR
STARTCHAR 2345
ENCODING 9029
SWIDTH 822 0
DWIDTH 6 0
BBX 6 8 0 -2
BITMAP
f8
80
80
f0
80
80
f8
00
ENDCHAR
STARTCHAR 2346
ENCODING 9030
SWIDTH 822 0
DWIDTH 6 0
BBX 6 8 0 -2
BITMAP
f8
80
80
f0
80
80
80
00
ENDCHAR
STARTCHAR 2347
ENCODING 9031
SWIDTH 822 0
DWIDTH 6 0
BBX 6 8 0 -2
BITMAP
30
48
80
98
88
48
30
00
ENDCHAR
STARTCHAR 2348
ENCODING 9032
SWIDTH 822 0
DWIDTH 6 0
BBX 6 8 0 -2
BITMAP
88
88
88
f8
88
88
88
00
ENDCHAR
STARTCHAR 2349
ENCODING 9033
SWIDTH 822 0
DWIDTH 6 0
BBX 6 8 0 -2
BITMAP
70
20
20
20
20
20
70
00
ENDCHAR
STARTCHAR 234a
ENCODING 9034
SWIDTH 822 0
DWIDTH 6 0
BBX 6 8 0 -2
BITMAP
08
08
08
08
08
88
70
00
ENDCHAR
STARTCHAR 234b
ENCODING 9035
SWIDTH 822 0
DWIDTH 6 0
BBX 6 8 0 -2
BITMAP
88
90
a0
c0
a0
90
88
00
ENDCHAR
STARTCHAR 234c
ENCODING 9036
SWIDTH 822 0
DWIDTH 6 0
BBX 6 8 0 -2
BITMAP
80
80
80
80
80
80
f8
00
ENDCHAR
STARTCHAR 234d
ENCODING 9037
SWIDTH 822 0
DWIDTH 6 0
BBX 6 8 0 -2
BITMAP
88
88
d8
a8
a8
88
88
00
ENDCHAR
STARTCHAR 234e
ENCODING 9038
SWIDTH 822 0
DWIDTH 6 0
BBX 6 8 0 -2
BITMAP
88
88
c8
a8
98
88
88
00
ENDCHAR
STARTCHAR 234f
ENCODING 9039
SWIDTH 822 0
DWIDTH 6 0
BBX 6 8 0 -2
BITMAP
70
88
88
88
88
88
70
00
ENDCHAR
STARTCHAR 2350
ENCODING 9040
SWIDTH 822 0
DWIDTH 6 0
BBX 6 8 0 -2
BITMAP
f0
88
88
f0
80
80
80
00
ENDCHAR
STARTCHAR 2351
ENCODING 9041
SWIDTH 822 0
DWIDTH 6 0
BBX 6 8 0 -2
BITMAP
70
88
88
88
a8
90
68
00
ENDCHAR
STARTCHAR 2352
ENCODING 9042
SWIDTH 822 0
DWIDTH 6 0
BBX 6 8 0 -2
BITMAP
f0
88
88
f0
a0
90
88
00
ENDCHAR
STARTCHAR 2353
ENCODING 9043
SWIDTH 822 0
DWIDTH 6 0
BBX 6 8 0 -2
BITMAP
70
88
80
70
08
88
70
00
ENDCHAR
STARTCHAR 2354
ENCODING 9044
SWIDTH 822 0
DWIDTH 6 0
BBX 6 8 0 -2
BITMAP
f8
20
20
20
20
20
20
00
ENDCHAR
STARTCHAR 2355
ENCODING 9045
SWIDTH 822 0
DWIDTH 6 0
BBX 6 8 0 -2
BITMAP
88
88
88
88
88
88
70
00
ENDCHAR
STARTCHAR 2356
ENCODING 9046
SWIDTH 822 0
DWIDTH 6 0
BBX 6 8 0 -2
BITMAP
88
88
50
50
50
20
20
00
ENDCHAR
STARTCHAR 2357
ENCODING 9047
SWIDTH 822 0
DWIDTH 6 0
BBX 6 8 0 -2
BITMAP
a8
a8
a8
a8
50
50
50
00
ENDCHAR
STARTCHAR 2358
ENCODING 9048
SWIDTH 822 0
DWIDTH 6 0
BBX 6 8 0 -2
BITMAP
88
50
50
20
50
50
88
00
ENDCHAR
STARTCHAR 2359
ENCODING 9049
SWIDTH 822 0
DWIDTH 6 0
BBX 6 8 0 -2
BITMAP
88
50
50
20
20
20
20
00
ENDCHAR
STARTCHAR 235a
ENCODING 9050
SWIDTH 822 0
DWIDTH 6 0
BBX 6 8 0 -2
BITMAP
f8
08
10
20
40
80
f8
00
ENDCHAR
STARTCHAR 2361
ENCODING 9057
SWIDTH 822 0
DWIDTH 6 0
BBX 6 8 0 -2
BITMAP
00
00
30
08
38
48
38
00
ENDCHAR
STARTCHAR 2362
ENCODING 9058
SWIDTH 822 0
DWIDTH 6 0
BBX 6 8 0 -2
BITMAP
40
40
70
48
48
48
70
00
ENDCHAR
STARTCHAR 2363
ENCODING 9059
SWIDTH 822 0
DWIDTH 6 0
BBX 6 8 0 -2
BITMAP
00
00
30
48
40
48
30
00
ENDCHAR
STARTCHAR 2364
ENCODING 9060
SWIDTH 822 0
DWIDTH 6 0
BBX 6 8 0 -2
BITMAP
08
08
38
48
48
48
38
00
ENDCHAR
STARTCHAR 2365
ENCODING 9061
SWIDTH 822 0
DWIDTH 6 0
BBX 6 8 0 -2
BITMAP
00
00
30
48
78
40
30
00
ENDCHAR
STARTCHAR 2366
ENCODING 9062
SWIDTH 822 0
DWIDTH 6 0
BBX 6 8 0 -2
BITMAP
18
20
70
20
20
20
20
00
ENDCHAR
STARTCHAR 2367
ENCODING 9063
SWIDTH 822 0
DWIDTH 6 0
BBX 6 8 0 -2
BITMAP
00
00
38
48
38
08
30
00
ENDCHAR
STARTCHAR 2368
ENCODING 9064
SWIDTH 822 0
DWIDTH 6 0
BBX 6 8 0 -2
BITMAP
40
40
70
48
48
48
48
00
ENDCHAR
STARTCHAR 2369
ENCODING 9065
SWIDTH 822 0
DWIDTH 6 0
BBX 6 8 0 -2
BITMAP
20
00
20
20
20
20
20
00
ENDCHAR
STARTCHAR 236a
ENCODING 9066
SWIDTH 822 0
DWIDTH 6 0
BBX 6 8 0 -2
BITMAP
10
00
10
10
10
10
60
00
ENDCHAR
STARTCHAR 236b
ENCODING 9067
SWIDTH 822 0
DWIDTH 6 0
BBX 6 8 0 -2
BITMAP
40
40
48
50
60
50
48
00
ENDCHAR
STARTCHAR 236c
ENCODING 9068
SWIDTH 822 0
DWIDTH 6 0
BBX 6 8 0 -2
BITMAP
60
20
20
20
20
20
20
00
ENDCHAR
STARTCHAR 236d
ENCODING 9069
SWIDTH 822 0
DWIDTH 6 0
BBX 6 8 0 -2
BITMAP
00
00
f0
a8
a8
a8
a8
00
ENDCHAR
STARTCHAR 236e
ENCODING 9070
SWIDTH 822 0
DWIDTH 6 0
BBX 6 8 0 -2
BITMAP
00
00
70
48
48
48
48
00
ENDCHAR
STARTCHAR 236f
ENCODING 9071
SWIDTH 822 0
DWIDTH 6 0
BBX 6 8 0 -2
BITMAP
00
00
30
48
48
48
30
00
ENDCHAR
STARTCHAR 2370
ENCODING 9072
SWIDTH 822 0
DWIDTH 6 0
BBX 6 8 0 -2
BITMAP
00
00
70
48
70
40
40
00
ENDCHAR
STARTCHAR 2371
ENCODING 9073
SWIDTH 822 0
DWIDTH 6 0
BBX 6 8 0 -2
BITMAP
00
00
38
48
38
08
08
00
ENDCHAR
STARTCHAR 2372
ENCODING 9074
SWIDTH 822 0
DWIDTH 6 0
BBX 6 8 0 -2
BITMAP
00
00
58
60
40
40
40
00
ENDCHAR
STARTCHAR 2373
ENCODING 9075
SWIDTH 822 0
DWIDTH 6 0
BBX 6 8 0 -2
BITMAP
00
00
38
40
30
08
70
00
ENDCHAR
STARTCHAR 2374
ENCODING 9076
SWIDTH 822 0
DWIDTH 6 0
BBX 6 8 0 -2
BITMAP
00
20
78
20
20
20
18
00
ENDCHAR
STARTCHAR 2375
ENCODING 9077
SWIDTH 822 0
DWIDTH 6 0
BBX 6 8 0 -2
BITMAP
00
00
48
48
48
48
38
00
ENDCHAR
STARTCHAR 2376
ENCODING 9078
SWIDTH 822 0
DWIDTH 6 0
BBX 6 8 0 -2
BITMAP
00
00
48
48
48
50
20
00
ENDCHAR
STARTCHAR 2377
ENCODING 9079
SWIDTH 822 0
DWIDTH 6 0
BBX 6 8 0 -2
BITMAP
00
00
a8
a8
a8
50
50
00
ENDCHAR
STARTCHAR 2378
ENCODING 9080
SWIDTH 822 0
DWIDTH 6 0
BBX 6 8 0 -2
BITMAP
00
00
48
48
30
48
48
00
ENDCHAR
STARTCHAR 2379
ENCODING 9081
SWIDTH 822 0
DWIDTH 6 0
BBX 6 8 0 -2
BITMAP
00
00
48
48
28
10
60
00
ENDCHAR
STARTCHAR 237a
ENCODING 9082
SWIDTH 822 0
DWIDTH 6 0
BBX 6 8 0 -2
BITMAP
00
00
78
08
10
20
78
00
ENDCHAR
STARTCHAR 2421
ENCODING 9249
SWIDTH 822 0
DWIDTH 6 0
BBX 6 8 0 -2
BITMAP
00
20
70
28
70
b8
68
00
ENDCHAR
STARTCHAR 2422
ENCODING 9250
SWIDTH 822 0
DWIDTH 6 0
BBX 6 8 0 -2
BITMAP
20
70
28
70
b8
a8
48
00
ENDCHAR
STARTCHAR 2423
ENCODING 9251
SWIDTH 822 0
DWIDTH 6 0
BBX 6 8 0 -2
BITMAP
00
00
90
88
88
a0
40
00
ENDCHAR
STARTCHAR 2424
ENCODING 9252
SWIDTH 822 0
DWIDTH 6 0
BBX 6 8 0 -2
BITMAP
00
90
88
88
88
a0
40
00
ENDCHAR
STARTCHAR 2425
ENCODING 9253
SWIDTH 822 0
DWIDTH 6 0
BBX 6 8 0 -2
BITMAP
00
30
00
30
48
10
20
00
ENDCHAR
STARTCHAR 2426
ENCODING 9254
SWIDTH 822 0
DWIDTH 6 0
BBX 6 8 0 -2
BITMAP
70
00
70
88
08
10
60
00
ENDCHAR
STARTCHAR 2427
ENCODING 9255
SWIDTH 822 0
DWIDTH 6 0
BBX 6 8 0 -2
BITMAP
00
30
00
70
10
20
58
00
ENDCHAR
STARTCHAR 2428
ENCODING 9256
SWIDTH 822 0
DWIDTH 6 0
BBX 6 8 0 -2
BITMAP
70
00
f0
10
20
50
98
00
ENDCHAR
STARTCHAR 2429
ENCODING 9257
SWIDTH 822 0
DWIDTH 6 0
BBX 6 8 0 -2
BITMAP
00
40
e8
40
70
c8
50
00
ENDCHAR
STARTCHAR 242a
ENCODING 9258
SWIDTH 822 0
DWIDTH 6 0
BBX 6 8 0 -2
BITMAP
50
e8
40
70
c8
c8
50
00
ENDCHAR
STARTCHAR 242b
ENCODING 9259
SWIDTH 822 0
DWIDTH 6 0
BBX 6 8 0 -2
BITMAP
40
50
e8
58
50
90
a0
00
ENDCHAR
STARTCHAR 242c
ENCODING 9260
SWIDTH 822 0
DWIDTH 6 0
BBX 6 8 0 -2
BITMAP
58
40
e8
58
50
90
a0
00
ENDCHAR
STARTCHAR 242d
ENCODING 9261
SWIDTH 822 0
DWIDTH 6 0
BBX 6 8 0 -2
BITMAP
20
f0
20
f8
50
80
70
00
ENDCHAR
STARTCHAR 242e
ENCODING 9262
SWIDTH 822 0
DWIDTH 6 0
BBX 6 8 0 -2
BITMAP
28
f0
20
f8
50
80
70
00
ENDCHAR
STARTCHAR 242f
ENCODING 9263
SWIDTH 822 0
DWIDTH 6 0
BBX 6 8 0 -2
BITMAP
10
10
60
80
60
10
10
00
ENDCHAR
STARTCHAR 2430
ENCODING 9264
SWIDTH 822 0
DWIDTH 6 0
BBX 6 8 0 -2
BITMAP
10
10
68
80
60
10
10
00
ENDCHAR
STARTCHAR 2431
ENCODING 9265
SWIDTH 822 0
DWIDTH 6 0
BBX 6 8 0 -2
BITMAP
90
90
b8
90
90
90
20
00
ENDCHAR
STARTCHAR 2432
ENCODING 9266
SWIDTH 822 0
DWIDTH 6 0
BBX 6 8 0 -2
BITMAP
98
90
b8
90
90
90
20
00
ENDCHAR
STARTCHAR 2433
ENCODING 9267
SWIDTH 822 0
DWIDTH 6 0
BBX 6 8 0 -2
BITMAP
00
70
00
00
40
80
78
00
ENDCHAR
STARTCHAR 2434
ENCODING 9268
SWIDTH 822 0
DWIDTH 6 0
BBX 6 8 0 -2
BITMAP
28
70
00
00
40
80
78
00
ENDCHAR
STARTCHAR 2435
ENCODING 9269
SWIDTH 822 0
DWIDTH 6 0
BBX 6 8 0 -2
BITMAP
20
20
f8
10
50
80
70
00
ENDCHAR
STARTCHAR 2436
ENCODING 9270
SWIDTH 822 0
DWIDTH 6 0
BBX 6 8 0 -2
BITMAP
28
20
f8
10
50
80
70
00
ENDCHAR
STARTCHAR 2437
ENCODING 9271
SWIDTH 822 0
DWIDTH 6 0
BBX 6 8 0 -2
BITMAP
40
40
40
40
40
48
30
00
ENDCHAR
STARTCHAR 2438
ENCODING 9272
SWIDTH 822 0
DWIDTH 6 0
BBX 6 8 0 -2
BITMAP
58
40
40
40
40
48
30
00
ENDCHAR
STARTCHAR 2439
ENCODING 9273
SWIDTH 822 0
DWIDTH 6 0
BBX 6 8 0 -2
BITMAP
10
f8
30
50
30
10
20
00
ENDCHAR
STARTCHAR 243a
ENCODING 9274
SWIDTH 822 0
DWIDTH 6 0
BBX 6 8 0 -2
BITMAP
28
f8
30
50
30
10
20
00
ENDCHAR
STARTCHAR 243b
ENCODING 9275
SWIDTH 822 0
DWIDTH 6 0
BBX 6 8 0 -2
BITMAP
50
50
f8
50
50
40
38
00
ENDCHAR
STARTCHAR 243c
ENCODING 9276
SWIDTH 822 0
DWIDTH 6 0
BBX 6 8 0 -2
BITMAP
58
50
f8
50
50
40
38
00
ENDCHAR
STARTCHAR 243d
ENCODING 9277
SWIDTH 822 0
DWIDTH 6 0
BBX 6 8 0 -2
BITMAP
70
20
40
f8
20
20
10
00
ENDCHAR
STARTCHAR 243e
ENCODING 9278
SWIDTH 822 0
DWIDTH 6 0
BBX 6 8 0 -2
BITMAP
70
28
40
f8
20
20
10
00
ENDCHAR
STARTCHAR 243f
ENCODING 9279
SWIDTH 822 0
DWIDTH 6 0
BBX 6 8 0 -2
BITMAP
40
e0
58
40
90
a0
98
00
ENDCHAR
STARTCHAR 2440
ENCODING 9280
SWIDTH 822 0
DWIDTH 6 0
BBX 6 8 0 -2
BITMAP
58
e0
58
40
90
a0
98
00
ENDCHAR
STARTCHAR 2441
ENCODING 9281
SWIDTH 822 0
DWIDTH 6 0
BBX 6 8 0 -2
BITMAP
20
f8
40
70
48
08
30
00
ENDCHAR
STARTCHAR 2442
ENCODING 9282
SWIDTH 822 0
DWIDTH 6 0
BBX 6 8 0 -2
BITMAP
28
f8
40
70
48
08
30
00
ENDCHAR
STARTCHAR 2443
ENCODING 9283
SWIDTH 822 0
DWIDTH 6 0
BBX 6 8 0 -2
BITMAP
00
00
00
30
c8
08
30
00
ENDCHAR
STARTCHAR 2444
ENCODING 9284
SWIDTH 822 0
DWIDTH 6 0
BBX 6 8 0 -2
BITMAP
00
30
c8
08
08
30
00
00
ENDCHAR
STARTCHAR 2445
ENCODING 9285
SWIDTH 822 0
DWIDTH 6 0
BBX 6 8 0 -2
BITMAP
28
30
c8
08
08
30
00
00
ENDCHAR
STARTCHAR 2446
ENCODING 9286
SWIDTH 822 0
DWIDTH 6 0
BBX 6 8 0 -2
BITMAP
38
d0
20
20
20
10
08
00
ENDCHAR
STARTCHAR 2447
ENCODING 9287
SWIDTH 822 0
DWIDTH 6 0
BBX 6 8 0 -2
BITMAP
38
d0
28
20
20
10
08
00
ENDCHAR
STARTCHAR 2448
ENCODING 9288
SWIDTH 822 0
DWIDTH 6 0
BBX 6 8 0 -2
BITMAP
40
40
48
30
40
80
78
00
ENDCHAR
STARTCHAR 2449
ENCODING 9289
SWIDTH 822 0
DWIDTH 6 0
BBX 6 8 0 -2
BITMAP
58
40
48
30
40
80
78
00
ENDCHAR
STARTCHAR 244a
ENCODING 9290
SWIDTH 822 0
DWIDTH 6 0
BBX 6 8 0 -2
BITMAP
40
d8
50
90
30
58
20
00
ENDCHAR
STARTCHAR 244b
ENCODING 9291
SWIDTH 822 0
DWIDTH 6 0
BBX 6 8 0 -2
BITMAP
80
b8
80
80
a0
c0
b8
00
ENDCHAR
STARTCHAR 244c
ENCODING 9292
SWIDTH 822 0
DWIDTH 6 0
BBX 6 8 0 -2
BITMAP
10
50
70
d8
a8
b8
58
00
ENDCHAR
STARTCHAR 244d
ENCODING 9293
SWIDTH 822 0
DWIDTH 6 0
BBX 6 8 0 -2
BITMAP
40
50
e8
48
d8
e8
58
00
ENDCHAR
STARTCHAR 244e
ENCODING 9294
SWIDTH 822 0
DWIDTH 6 0
BBX 6 8 0 -2
BITMAP
00
70
a8
a8
a8
c8
10
00
ENDCHAR
STARTCHAR 244f
ENCODING 9295
SWIDTH 822 0
DWIDTH 6 0
BBX 6 8 0 -2
BITMAP
90
90
b8
90
b0
d8
a0
00
ENDCHAR
STARTCHAR 2450
ENCODING 9296
SWIDTH 822 0
DWIDTH 6 0
BBX 6 8 0 -2
BITMAP
98
90
b8
90
b0
d8
a0
00
ENDCHAR
STARTCHAR 2451
ENCODING 9297
SWIDTH 822 0
DWIDTH 6 0
BBX 6 8 0 -2
BITMAP
90
a8
b8
90
b0
d8
a0
00
ENDCHAR
STARTCHAR 2452
ENCODING 9298
SWIDTH 822 0
DWIDTH 6 0
BBX 6 8 0 -2
BITMAP
50
d0
58
90
90
90
60
00
ENDCHAR
STARTCHAR 2453
ENCODING 9299
SWIDTH 822 0
DWIDTH 6 0
BBX 6 8 0 -2
BITMAP
58
d0
58
90
90
90
60
00
ENDCHAR
STARTCHAR 2454
ENCODING 9300
SWIDTH 822 0
DWIDTH 6 0
BBX 6 8 0 -2
BITMAP
50
e8
58
90
90
90
60
00
ENDCHAR
STARTCHAR 2455
ENCODING 9301
SWIDTH 822 0
DWIDTH 6 0
BBX 6 8 0 -2
BITMAP
20
10
20
10
50
58
a8
00
ENDCHAR
STARTCHAR 2456
ENCODING 9302
SWIDTH 822 0
DWIDTH 6 0
BBX 6 8 0 -2
BITMAP
28
10
20
10
50
58
a8
00
ENDCHAR
STARTCHAR 2457
ENCODING 9303
SWIDTH 822 0
DWIDTH 6 0
BBX 6 8 0 -2
BITMAP
20
10
28
10
50
58
a8
00
ENDCHAR
STARTCHAR 2458
ENCODING 9304
SWIDTH 822 0
DWIDTH 6 0
BBX 6 8 0 -2
BITMAP
00
00
40
a0
18
00
00
00
ENDCHAR
STARTCHAR 2459
ENCODING 9305
SWIDTH 822 0
DWIDTH 6 0
BBX 6 8 0 -2
BITMAP
28
00
40
a0
18
00
00
00
ENDCHAR
STARTCHAR 245a
ENCODING 9306
SWIDTH 822 0
DWIDTH 6 0
BBX 6 8 0 -2
BITMAP
10
28
50
a0
18
00
00
00
ENDCHAR
STARTCHAR 245b
ENCODING 9307
SWIDTH 822 0
DWIDTH 6 0
BBX 6 8 0 -2
BITMAP
80
b8
90
b8
90
b8
b0
00
ENDCHAR
STARTCHAR 245c
ENCODING 9308
SWIDTH 822 0
DWIDTH 6 0
BBX 6 8 0 -2
BITMAP
a8
b8
90
b8
90
b8
b0
00
ENDCHAR
STARTCHAR 245d
ENCODING 9309
SWIDTH 822 0
DWIDTH 6 0
BBX 6 8 0 -2
BITMAP
90
a8
90
b8
90
b8
b0
00
ENDCHAR
STARTCHAR 245e
ENCODING 9310
SWIDTH 822 0
DWIDTH 6 0
BBX 6 8 0 -2
BITMAP
20
f8
20
f8
20
f0
e8
00
ENDCHAR
STARTCHAR 245f
ENCODING 9311
SWIDTH 822 0
DWIDTH 6 0
BBX 6 8 0 -2
BITMAP
60
20
50
70
d8
d0
20
00
ENDCHAR
STARTCHAR 2460
ENCODING 9312
SWIDTH 822 0
DWIDTH 6 0
BBX 6 8 0 -2
BITMAP
50
e8
40
40
c0
c8
70
00
ENDCHAR
STARTCHAR 2461
ENCODING 9313
SWIDTH 822 0
DWIDTH 6 0
BBX 6 8 0 -2
BITMAP
10
50
70
d8
a8
a8
48
00
ENDCHAR
STARTCHAR 2462
ENCODING 9314
SWIDTH 822 0
DWIDTH 6 0
BBX 6 8 0 -2
BITMAP
20
f0
40
f0
40
48
30
00
ENDCHAR
STARTCHAR 2463
ENCODING 9315
SWIDTH 822 0
DWIDTH 6 0
BBX 6 8 0 -2
BITMAP
00
50
70
c8
58
20
20
00
ENDCHAR
STARTCHAR 2464
ENCODING 9316
SWIDTH 822 0
DWIDTH 6 0
BBX 6 8 0 -2
BITMAP
50
70
c8
58
20
20
20
00
ENDCHAR
STARTCHAR 2465
ENCODING 9317
SWIDTH 822 0
DWIDTH 6 0
BBX 6 8 0 -2
BITMAP
00
20
b0
e8
a8
30
40
00
ENDCHAR
STARTCHAR 2466
ENCODING 9318
SWIDTH 822 0
DWIDTH 6 0
BBX 6 8 0 -2
BITMAP
20
b0
e8
a8
b0
20
40
00
ENDCHAR
STARTCHAR 2467
ENCODING 9319
SWIDTH 822 0
DWIDTH 6 0
BBX 6 8 0 -2
BITMAP
00
20
20
38
60
b0
48
00
ENDCHAR
STARTCHAR 2468
ENCODING 9320
SWIDTH 822 0
DWIDTH 6 0
BBX 6 8 0 -2
BITMAP
20
20
38
20
60
b0
48
00
ENDCHAR
STARTCHAR 2469
ENCODING 9321
SWIDTH 822 0
DWIDTH 6 0
BBX 6 8 0 -2
BITMAP
40
20
80
b0
c8
08
70
00
ENDCHAR
STARTCHAR 246a
ENCODING 9322
SWIDTH 822 0
DWIDTH 6 0
BBX 6 8 0 -2
BITMAP
50
68
48
48
08
10
20
00
ENDCHAR
STARTCHAR 246b
ENCODING 9323
SWIDTH 822 0
DWIDTH 6 0
BBX 6 8 0 -2
BITMAP
70
10
20
70
88
68
70
00
ENDCHAR
STARTCHAR 246c
ENCODING 9324
SWIDTH 822 0
DWIDTH 6 0
BBX 6 8 0 -2
BITMAP
40
50
e8
48
d0
d0
48
00
ENDCHAR
STARTCHAR 246d
ENCODING 9325
SWIDTH 822 0
DWIDTH 6 0
BBX 6 8 0 -2
BITMAP
70
10
20
70
88
08
70
00
ENDCHAR
STARTCHAR 246e
ENCODING 9326
SWIDTH 822 0
DWIDTH 6 0
BBX 6 8 0 -2
BITMAP
00
40
50
e8
48
c8
50
00
ENDCHAR
STARTCHAR 246f
ENCODING 9327
SWIDTH 822 0
DWIDTH 6 0
BBX 6 8 0 -2
BITMAP
40
50
e8
48
c8
c8
50
00
ENDCHAR
STARTCHAR 2470
ENCODING 9328
SWIDTH 822 0
DWIDTH 6 0
BBX 6 8 0 -2
BITMAP
60
20
30
68
a8
b8
58
00
ENDCHAR
STARTCHAR 2471
ENCODING 9329
SWIDTH 822 0
DWIDTH 6 0
BBX 6 8 0 -2
BITMAP
70
20
70
88
30
50
a8
00
ENDCHAR
STARTCHAR 2472
ENCODING 9330
SWIDTH 822 0
DWIDTH 6 0
BBX 6 8 0 -2
BITMAP
20
f0
48
70
a8
40
38
00
ENDCHAR
STARTCHAR 2473
ENCODING 9331
SWIDTH 822 0
DWIDTH 6 0
BBX 6 8 0 -2
BITMAP
20
20
40
40
60
a8
90
00
ENDCHAR
STARTCHAR 2521
ENCODING 9505
SWIDTH 822 0
DWIDTH 6 0
BBX 6 8 0 -2
BITMAP
00
00
f8
28
30
20
40
00
ENDCHAR
STARTCHAR 2522
ENCODING 9506
SWIDTH 822 0
DWIDTH 6 0
BBX 6 8 0 -2
BITMAP
f8
08
28
30
20
20
40
00
ENDCHAR
STARTCHAR 2523
ENCODING 9507
SWIDTH 822 0
DWIDTH 6 0
BBX 6 8 0 -2
BITMAP
00
00
08
10
30
d0
10
00
ENDCHAR
STARTCHAR 2524
ENCODING 9508
SWIDTH 822 0
DWIDTH 6 0
BBX 6 8 0 -2
BITMAP
08
08
10
30
d0
10
10
00
ENDCHAR
STARTCHAR 2525
ENCODING 9509
SWIDTH 822 0
DWIDTH 6 0
BBX 6 8 0 -2
BITMAP
00
00
20
f8
88
10
60
00
ENDCHAR
STARTCHAR 2526
ENCODING 9510
SWIDTH 822 0
DWIDTH 6 0
BBX 6 8 0 -2
BITMAP
20
f8
88
08
08
10
60
00
ENDCHAR
STARTCHAR 2527
ENCODING 9511
SWIDTH 822 0
DWIDTH 6 0
BBX 6 8 0 -2
BITMAP
00
00
00
70
20
20
f8
00
ENDCHAR
STARTCHAR 2528
ENCODING 9512
SWIDTH 822 0
DWIDTH 6 0
BBX 6 8 0 -2
BITMAP
00
70
20
20
20
f8
00
00
ENDCHAR
STARTCHAR 2529
ENCODING 9513
SWIDTH 822 0
DWIDTH 6 0
BBX 6 8 0 -2
BITMAP
00
00
10
f8
30
d0
30
00
ENDCHAR
STARTCHAR 252a
ENCODING 9514
SWIDTH 822 0
DWIDTH 6 0
BBX 6 8 0 -2
BITMAP
10
f8
10
30
50
90
30
00
ENDCHAR
STARTCHAR 252b
ENCODING 9515
SWIDTH 822 0
DWIDTH 6 0
BBX 6 8 0 -2
BITMAP
20
f8
28
28
48
48
98
00
ENDCHAR
STARTCHAR 252c
ENCODING 9516
SWIDTH 822 0
DWIDTH 6 0
BBX 6 8 0 -2
BITMAP
28
f8
28
28
48
48
98
00
ENDCHAR
STARTCHAR 252d
ENCODING 9517
SWIDTH 822 0
DWIDTH 6 0
BBX 6 8 0 -2
BITMAP
20
f8
20
20
f8
20
20
00
ENDCHAR
STARTCHAR 252e
ENCODING 9518
SWIDTH 822 0
DWIDTH 6 0
BBX 6 8 0 -2
BITMAP
28
f8
20
20
f8
20
20
00
ENDCHAR
STARTCHAR 252f
ENCODING 9519
SWIDTH 822 0
DWIDTH 6 0
BBX 6 8 0 -2
BITMAP
20
38
48
88
10
20
c0
00
ENDCHAR
STARTCHAR 2530
ENCODING 9520
SWIDTH 822 0
DWIDTH 6 0
BBX 6 8 0 -2
BITMAP
28
38
48
88
10
20
c0
00
ENDCHAR
STARTCHAR 2531
ENCODING 9521
SWIDTH 822 0
DWIDTH 6 0
BBX 6 8 0 -2
BITMAP
40
78
50
90
10
10
20
00
ENDCHAR
STARTCHAR 2532
ENCODING 9522
SWIDTH 822 0
DWIDTH 6 0
BBX 6 8 0 -2
BITMAP
48
78
50
90
10
10
20
00
ENDCHAR
STARTCHAR 2533
ENCODING 9523
SWIDTH 822 0
DWIDTH 6 0
BBX 6 8 0 -2
BITMAP
00
f8
08
08
08
08
f8
00
ENDCHAR
STARTCHAR 2534
ENCODING 9524
SWIDTH 822 0
DWIDTH 6 0
BBX 6 8 0 -2
BITMAP
28
f8
08
08
08
08
f8
00
ENDCHAR
STARTCHAR 2535
ENCODING 9525
SWIDTH 822 0
DWIDTH 6 0
BBX 6 8 0 -2
BITMAP
50
f8
50
50
10
20
40
00
ENDCHAR
STARTCHAR 2536
ENCODING 9526
SWIDTH 822 0
DWIDTH 6 0
BBX 6 8 0 -2
BITMAP
58
f0
50
50
10
20
40
00
ENDCHAR
STARTCHAR 2537
ENCODING 9527
SWIDTH 822 0
DWIDTH 6 0
BBX 6 8 0 -2
BITMAP
80
40
88
48
10
20
c0
00
ENDCHAR
STARTCHAR 2538
ENCODING 9528
SWIDTH 822 0
DWIDTH 6 0
BBX 6 8 0 -2
BITMAP
98
40
88
48
10
20
c0
00
ENDCHAR
STARTCHAR 2539
ENCODING 9529
SWIDTH 822 0
DWIDTH 6 0
BBX 6 8 0 -2
BITMAP
00
f8
08
10
20
50
88
00
ENDCHAR
STARTCHAR 253a
ENCODING 9530
SWIDTH 822 0
DWIDTH 6 0
BBX 6 8 0 -2
BITMAP
28
f8
08
10
20
50
88
00
ENDCHAR
STARTCHAR 253b
ENCODING 9531
SWIDTH 822 0
DWIDTH 6 0
BBX 6 8 0 -2
BITMAP
40
40
f8
48
50
40
38
00
ENDCHAR
STARTCHAR 253c
ENCODING 9532
SWIDTH 822 0
DWIDTH 6 0
BBX 6 8 0 -2
BITMAP
58
40
f8
48
50
40
38
00
ENDCHAR
STARTCHAR 253d
ENCODING 9533
SWIDTH 822 0
DWIDTH 6 0
BBX 6 8 0 -2
BITMAP
88
48
48
10
10
20
40
00
ENDCHAR
STARTCHAR 253e
ENCODING 9534
SWIDTH 822 0
DWIDTH 6 0
BBX 6 8 0 -2
BITMAP
98
48
48
10
10
20
40
00
ENDCHAR
STARTCHAR 253f
ENCODING 9535
SWIDTH 822 0
DWIDTH 6 0
BBX 6 8 0 -2
BITMAP
20
38
48
a8
10
20
c0
00
ENDCHAR
STARTCHAR 2540
ENCODING 9536
SWIDTH 822 0
DWIDTH 6 0
BBX 6 8 0 -2
BITMAP
28
38
48
a8
10
20
c0
00
ENDCHAR
STARTCHAR 2541
ENCODING 9537
SWIDTH 822 0
DWIDTH 6 0
BBX 6 8 0 -2
BITMAP
10
60
20
f8
20
20
40
00
ENDCHAR
STARTCHAR 2542
ENCODING 9538
SWIDTH 822 0
DWIDTH 6 0
BBX 6 8 0 -2
BITMAP
10
68
20
f8
20
20
40
00
ENDCHAR
STARTCHAR 2543
ENCODING 9539
SWIDTH 822 0
DWIDTH 6 0
BBX 6 8 0 -2
BITMAP
00
00
00
a8
a8
10
60
00
ENDCHAR
STARTCHAR 2544
ENCODING 9540
SWIDTH 822 0
DWIDTH 6 0
BBX 6 8 0 -2
BITMAP
00
a8
a8
a8
08
10
60
00
ENDCHAR
STARTCHAR 2545
ENCODING 9541
SWIDTH 822 0
DWIDTH 6 0
BBX 6 8 0 -2
BITMAP
18
a0
a8
a8
08
10
60
00
ENDCHAR
STARTCHAR 2546
ENCODING 9542
SWIDTH 822 0
DWIDTH 6 0
BBX 6 8 0 -2
BITMAP
70
00
f8
20
20
20
40
00
ENDCHAR
STARTCHAR 2547
ENCODING 9543
SWIDTH 822 0
DWIDTH 6 0
BBX 6 8 0 -2
BITMAP
68
00
f8
20
20
20
40
00
ENDCHAR
STARTCHAR 2548
ENCODING 9544
SWIDTH 822 0
DWIDTH 6 0
BBX 6 8 0 -2
BITMAP
40
40
40
60
50
40
40
00
ENDCHAR
STARTCHAR 2549
ENCODING 9545
SWIDTH 822 0
DWIDTH 6 0
BBX 6 8 0 -2
BITMAP
58
40
40
60
50
40
40
00
ENDCHAR
STARTCHAR 254a
ENCODING 9546
SWIDTH 822 0
DWIDTH 6 0
BBX 6 8 0 -2
BITMAP
20
20
f8
20
20
20
40
00
ENDCHAR
STARTCHAR 254b
ENCODING 9547
SWIDTH 822 0
DWIDTH 6 0
BBX 6 8 0 -2
BITMAP
00
70
00
00
00
f8
00
00
ENDCHAR
STARTCHAR 254c
ENCODING 9548
SWIDTH 822 0
DWIDTH 6 0
BBX 6 8 0 -2
BITMAP
00
f8
08
70
10
28
c0
00
ENDCHAR
STARTCHAR 254d
ENCODING 9549
SWIDTH 822 0
DWIDTH 6 0
BBX 6 8 0 -2
BITMAP
20
f8
10
20
70
a8
20
00
ENDCHAR
STARTCHAR 254e
ENCODING 9550
SWIDTH 822 0
DWIDTH 6 0
BBX 6 8 0 -2
BITMAP
10
10
10
20
20
40
80
00
ENDCHAR
STARTCHAR 254f
ENCODING 9551
SWIDTH 822 0
DWIDTH 6 0
BBX 6 8 0 -2
BITMAP
00
50
50
50
48
88
88
00
ENDCHAR
STARTCHAR 2550
ENCODING 9552
SWIDTH 822 0
DWIDTH 6 0
BBX 6 8 0 -2
BITMAP
28
40
50
50
48
88
88
00
ENDCHAR
STARTCHAR 2551
ENCODING 9553
SWIDTH 822 0
DWIDTH 6 0
BBX 6 8 0 -2
BITMAP
10
68
50
50
48
88
88
00
ENDCHAR
STARTCHAR 2552
ENCODING 9554
SWIDTH 822 0
DWIDTH 6 0
BBX 6 8 0 -2
BITMAP
80
80
98
e0
80
80
78
00
ENDCHAR
STARTCHAR 2553
ENCODING 9555
SWIDTH 822 0
DWIDTH 6 0
BBX 6 8 0 -2
BITMAP
a8
80
98
e0
80
80
78
00
ENDCHAR
STARTCHAR 2554
ENCODING 9556
SWIDTH 822 0
DWIDTH 6 0
BBX 6 8 0 -2
BITMAP
90
a8
98
e0
80
80
78
00
ENDCHAR
STARTCHAR 2555
ENCODING 9557
SWIDTH 822 0
DWIDTH 6 0
BBX 6 8 0 -2
BITMAP
00
f8
08
08
10
20
40
00
ENDCHAR
STARTCHAR 2556
ENCODING 9558
SWIDTH 822 0
DWIDTH 6 0
BBX 6 8 0 -2
BITMAP
28
f8
08
08
10
20
40
00
ENDCHAR
STARTCHAR 2557
ENCODING 9559
SWIDTH 822 0
DWIDTH 6 0
BBX 6 8 0 -2
BITMAP
10
e8
18
08
10
20
40
00
ENDCHAR
STARTCHAR 2558
ENCODING 9560
SWIDTH 822 0
DWIDTH 6 0
BBX 6 8 0 -2
BITMAP
00
00
40
a0
10
08
00
00
ENDCHAR
STARTCHAR 2559
ENCODING 9561
SWIDTH 822 0
DWIDTH 6 0
BBX 6 8 0 -2
BITMAP
28
00
40
a0
10
08
00
00
ENDCHAR
STARTCHAR 255a
ENCODING 9562
SWIDTH 822 0
DWIDTH 6 0
BBX 6 8 0 -2
BITMAP
10
28
50
a0
10
08
00
00
ENDCHAR
STARTCHAR 255b
ENCODING 9563
SWIDTH 822 0
DWIDTH 6 0
BBX 6 8 0 -2
BITMAP
20
20
f8
20
a8
a8
20
00
ENDCHAR
STARTCHAR 255c
ENCODING 9564
SWIDTH 822 0
DWIDTH 6 0
BBX 6 8 0 -2
BITMAP
28
20
f8
20
a8
a8
20
00
ENDCHAR
STARTCHAR 255d
ENCODING 9565
SWIDTH 822 0
DWIDTH 6 0
BBX 6 8 0 -2
BITMAP
30
28
f0
20
a8
a8
20
00
ENDCHAR
STARTCHAR 255e
ENCODING 9566
SWIDTH 822 0
DWIDTH 6 0
BBX 6 8 0 -2
BITMAP
00
f8
08
10
60
20
10
00
ENDCHAR
STARTCHAR 255f
ENCODING 9567
SWIDTH 822 0
DWIDTH 6 0
BBX 6 8 0 -2
BITMAP
60
18
20
10
00
60
18
00
ENDCHAR
STARTCHAR 2560
ENCODING 9568
SWIDTH 822 0
DWIDTH 6 0
BBX 6 8 0 -2
BITMAP
20
20
20
40
40
90
e8
00
ENDCHAR
STARTCHAR 2561
ENCODING 9569
SWIDTH 822 0
DWIDTH 6 0
BBX 6 8 0 -2
BITMAP
08
08
68
10
10
28
c0
00
ENDCHAR
STARTCHAR 2562
ENCODING 9570
SWIDTH 822 0
DWIDTH 6 0
BBX 6 8 0 -2
BITMAP
70
20
20
f8
20
20
18
00
ENDCHAR
STARTCHAR 2563
ENCODING 9571
SWIDTH 822 0
DWIDTH 6 0
BBX 6 8 0 -2
BITMAP
00
00
40
f8
48
20
20
00
ENDCHAR
STARTCHAR 2564
ENCODING 9572
SWIDTH 822 0
DWIDTH 6 0
BBX 6 8 0 -2
BITMAP
40
f8
48
50
20
20
20
00
ENDCHAR
STARTCHAR 2565
ENCODING 9573
SWIDTH 822 0
DWIDTH 6 0
BBX 6 8 0 -2
BITMAP
00
00
00
70
10
10
f8
00
ENDCHAR
STARTCHAR 2566
ENCODING 9574
SWIDTH 822 0
DWIDTH 6 0
BBX 6 8 0 -2
BITMAP
00
70
10
10
10
f8
00
00
ENDCHAR
STARTCHAR 2567
ENCODING 9575
SWIDTH 822 0
DWIDTH 6 0
BBX 6 8 0 -2
BITMAP
00
00
78
08
38
08
78
00
ENDCHAR
STARTCHAR 2568
ENCODING 9576
SWIDTH 822 0
DWIDTH 6 0
BBX 6 8 0 -2
BITMAP
00
f8
08
78
08
08
f8
00
ENDCHAR
STARTCHAR 2569
ENCODING 9577
SWIDTH 822 0
DWIDTH 6 0
BBX 6 8 0 -2
BITMAP
70
00
f8
08
08
10
60
00
ENDCHAR
STARTCHAR 256a
ENCODING 9578
SWIDTH 822 0
DWIDTH 6 0
BBX 6 8 0 -2
BITMAP
48
48
48
48
08
10
20
00
ENDCHAR
STARTCHAR 256b
ENCODING 9579
SWIDTH 822 0
DWIDTH 6 0
BBX 6 8 0 -2
BITMAP
10
50
50
50
50
58
90
00
ENDCHAR
STARTCHAR 256c
ENCODING 9580
SWIDTH 822 0
DWIDTH 6 0
BBX 6 8 0 -2
BITMAP
40
40
40
40
48
50
60
00
ENDCHAR
STARTCHAR 256d
ENCODING 9581
SWIDTH 822 0
DWIDTH 6 0
BBX 6 8 0 -2
BITMAP
00
f8
88
88
88
88
f8
00
ENDCHAR
STARTCHAR 256e
ENCODING 9582
SWIDTH 822 0
DWIDTH 6 0
BBX 6 8 0 -2
BITMAP
00
00
f8
88
08
10
60
00
ENDCHAR
STARTCHAR 256f
ENCODING 9583
SWIDTH 822 0
DWIDTH 6 0
BBX 6 8 0 -2
BITMAP
00
f8
88
08
08
10
60
00
ENDCHAR
STARTCHAR 2570
ENCODING 9584
SWIDTH 822 0
DWIDTH 6 0
BBX 6 8 0 -2
BITMAP
10
f8
50
50
f8
10
10
00
ENDCHAR
STARTCHAR 2571
ENCODING 9585
SWIDTH 822 0
DWIDTH 6 0
BBX 6 8 0 -2
BITMAP
00
f8
10
20
20
f8
00
00
ENDCHAR
STARTCHAR 2572
ENCODING 9586
SWIDTH 822 0
DWIDTH 6 0
BBX 6 8 0 -2
BITMAP
00
f8
08
78
08
10
60
00
ENDCHAR
STARTCHAR 2573
ENCODING 9587
SWIDTH 822 0
DWIDTH 6 0
BBX 6 8 0 -2
BITMAP
80
40
08
08
10
20
c0
00
ENDCHAR
STARTCHAR 2574
ENCODING 9588
SWIDTH 822 0
DWIDTH 6 0
BBX 6 8 0 -2
BITMAP
28
f8
88
08
08
10
60
00
ENDCHAR
STARTCHAR 2575
ENCODING 9589
SWIDTH 822 0
DWIDTH 6 0
BBX 6 8 0 -2
BITMAP
00
00
20
f8
28
48
98
00
ENDCHAR
STARTCHAR 2576
ENCODING 9590
SWIDTH 822 0
DWIDTH 6 0
BBX 6 8 0 -2
BITMAP
00
00
40
78
90
10
20
00
ENDCHAR
STARTCHAR 2621
ENCODING 9761
SWIDTH 822 0
DWIDTH 6 0
BBX 6 8 0 -2
BITMAP
20
20
50
50
70
88
88
00
ENDCHAR
STARTCHAR 2622
ENCODING 9762
SWIDTH 822 0
DWIDTH 6 0
BBX 6 8 0 -2
BITMAP
f0
88
88
f0
88
88
f0
00
ENDCHAR
STARTCHAR 2623
ENCODING 9763
SWIDTH 822 0
DWIDTH 6 0
BBX 6 8 0 -2
BITMAP
f8
80
80
80
80
80
80
00
ENDCHAR
STARTCHAR 2624
ENCODING 9764
SWIDTH 822 0
DWIDTH 6 0
BBX 6 8 0 -2
BITMAP
20
20
50
50
50
88
f8
00
ENDCHAR
STARTCHAR 2625
ENCODING 9765
SWIDTH 822 0
DWIDTH 6 0
BBX 6 8 0 -2
BITMAP
f8
80
80
f0
80
80
f8
00
ENDCHAR
STARTCHAR 2626
ENCODING 9766
SWIDTH 822 0
DWIDTH 6 0
BBX 6 8 0 -2
BITMAP
f8
08
10
20
40
80
f8
00
ENDCHAR
STARTCHAR 2627
ENCODING 9767
SWIDTH 822 0
DWIDTH 6 0
BBX 6 8 0 -2
BITMAP
88
88
88
f8
88
88
88
00
ENDCHAR
STARTCHAR 2628
ENCODING 9768
SWIDTH 822 0
DWIDTH 6 0
BBX 6 8 0 -2
BITMAP
70
88
d8
f8
d8
88
70
00
ENDCHAR
STARTCHAR 2629
ENCODING 9769
SWIDTH 822 0
DWIDTH 6 0
BBX 6 8 0 -2
BITMAP
70
20
20
20
20
20
70
00
ENDCHAR
STARTCHAR 262a
ENCODING 9770
SWIDTH 822 0
DWIDTH 6 0
BBX 6 8 0 -2
BITMAP
88
90
a0
c0
a0
90
88
00
ENDCHAR
STARTCHAR 262b
ENCODING 9771
SWIDTH 822 0
DWIDTH 6 0
BBX 6 8 0 -2
BITMAP
20
20
50
50
50
88
88
00
ENDCHAR
STARTCHAR 262c
ENCODING 9772
SWIDTH 822 0
DWIDTH 6 0
BBX 6 8 0 -2
BITMAP
88
88
d8
a8
a8
88
88
00
ENDCHAR
STARTCHAR 262d
ENCODING 9773
SWIDTH 822 0
DWIDTH 6 0
BBX 6 8 0 -2
BITMAP
88
88
c8
a8
98
88
88
00
ENDCHAR
STARTCHAR 262e
ENCODING 9774
SWIDTH 822 0
DWIDTH 6 0
BBX 6 8 0 -2
BITMAP
f8
00
00
70
00
00
f8
00
ENDCHAR
STARTCHAR 262f
ENCODING 9775
SWIDTH 822 0
DWIDTH 6 0
BBX 6 8 0 -2
BITMAP
70
88
88
88
88
88
70
00
ENDCHAR
STARTCHAR 2630
ENCODING 9776
SWIDTH 822 0
DWIDTH 6 0
BBX 6 8 0 -2
BITMAP
f8
88
88
88
88
88
88
00
ENDCHAR
STARTCHAR 2631
ENCODING 9777
SWIDTH 822 0
DWIDTH 6 0
BBX 6 8 0 -2
BITMAP
f0
88
88
f0
80
80
80
00
ENDCHAR
STARTCHAR 2632
ENCODING 9778
SWIDTH 822 0
DWIDTH 6 0
BBX 6 8 0 -2
BITMAP
f8
40
20
10
20
40
f8
00
ENDCHAR
STARTCHAR 2633
ENCODING 9779
SWIDTH 822 0
DWIDTH 6 0
BBX 6 8 0 -2
BITMAP
f8
20
20
20
20
20
20
00
ENDCHAR
STARTCHAR 2634
ENCODING 9780
SWIDTH 822 0
DWIDTH 6 0
BBX 6 8 0 -2
BITMAP
88
50
50
20
20
20
20
00
ENDCHAR
STARTCHAR 2635
ENCODING 9781
SWIDTH 822 0
DWIDTH 6 0
BBX 6 8 0 -2
BITMAP
20
70
a8
a8
a8
70
20
00
ENDCHAR
STARTCHAR 2636
ENCODING 9782
SWIDTH 822 0
DWIDTH 6 0
BBX 6 8 0 -2
BITMAP
88
50
50
20
50
50
88
00
ENDCHAR
STARTCHAR 2637
ENCODING 9783
SWIDTH 822 0
DWIDTH 6 0
BBX 6 8 0 -2
BITMAP
a8
a8
a8
70
20
20
20
00
ENDCHAR
STARTCHAR 2638
ENCODING 9784
SWIDTH 822 0
DWIDTH 6 0
BBX 6 8 0 -2
BITMAP
70
88
88
88
88
50
d8
00
ENDCHAR
STARTCHAR 2641
ENCODING 9793
SWIDTH 822 0
DWIDTH 6 0
BBX 6 8 0 -2
BITMAP
00
00
28
50
90
a0
58
00
ENDCHAR
STARTCHAR 2642
ENCODING 9794
SWIDTH 822 0
DWIDTH 6 0
BBX 6 8 0 -2
BITMAP
18
28
50
48
48
b0
80
00
ENDCHAR
STARTCHAR 2643
ENCODING 9795
SWIDTH 822 0
DWIDTH 6 0
BBX 6 8 0 -2
BITMAP
00
00
c8
30
20
60
40
00
ENDCHAR
STARTCHAR 2644
ENCODING 9796
SWIDTH 822 0
DWIDTH 6 0
BBX 6 8 0 -2
BITMAP
30
48
20
50
90
90
60
00
ENDCHAR
STARTCHAR 2645
ENCODING 9797
SWIDTH 822 0
DWIDTH 6 0
BBX 6 8 0 -2
BITMAP
00
00
30
48
60
88
70
00
ENDCHAR
STARTCHAR 2646
ENCODING 9798
SWIDTH 822 0
DWIDTH 6 0
BBX 6 8 0 -2
BITMAP
58
20
40
40
20
10
60
00
ENDCHAR
STARTCHAR 2647
ENCODING 9799
SWIDTH 822 0
DWIDTH 6 0
BBX 6 8 0 -2
BITMAP
00
00
d0
28
48
50
10
00
ENDCHAR
STARTCHAR 2648
ENCODING 9800
SWIDTH 822 0
DWIDTH 6 0
BBX 6 8 0 -2
BITMAP
30
48
48
f8
90
90
60
00
ENDCHAR
STARTCHAR 2649
ENCODING 9801
SWIDTH 822 0
DWIDTH 6 0
BBX 6 8 0 -2
BITMAP
00
00
20
20
40
50
20
00
ENDCHAR
STARTCHAR 264a
ENCODING 9802
SWIDTH 822 0
DWIDTH 6 0
BBX 6 8 0 -2
BITMAP
00
00
48
50
60
a0
98
00
ENDCHAR
STARTCHAR 264b
ENCODING 9803
SWIDTH 822 0
DWIDTH 6 0
BBX 6 8 0 -2
BITMAP
20
10
10
30
50
50
88
00
ENDCHAR
STARTCHAR 264c
ENCODING 9804
SWIDTH 822 0
DWIDTH 6 0
BBX 6 8 0 -2
BITMAP
00
00
48
48
50
a8
80
00
ENDCHAR
STARTCHAR 264d
ENCODING 9805
SWIDTH 822 0
DWIDTH 6 0
BBX 6 8 0 -2
BITMAP
00
00
88
48
50
60
40
00
ENDCHAR
STARTCHAR 264e
ENCODING 9806
SWIDTH 822 0
DWIDTH 6 0
BBX 6 8 0 -2
BITMAP
38
40
78
80
60
10
60
00
ENDCHAR
STARTCHAR 264f
ENCODING 9807
SWIDTH 822 0
DWIDTH 6 0
BBX 6 8 0 -2
BITMAP
00
00
30
48
88
90
60
00
ENDCHAR
STARTCHAR 2650
ENCODING 9808
SWIDTH 822 0
DWIDTH 6 0
BBX 6 8 0 -2
BITMAP
00
00
f8
50
50
90
98
00
ENDCHAR
STARTCHAR 2651
ENCODING 9809
SWIDTH 822 0
DWIDTH 6 0
BBX 6 8 0 -2
BITMAP
00
00
30
48
48
b0
80
00
ENDCHAR
STARTCHAR 2652
ENCODING 9810
SWIDTH 822 0
DWIDTH 6 0
BBX 6 8 0 -2
BITMAP
00
00
38
50
90
90
60
00
ENDCHAR
STARTCHAR 2653
ENCODING 9811
SWIDTH 822 0
DWIDTH 6 0
BBX 6 8 0 -2
BITMAP
00
00
78
a0
20
28
10
00
ENDCHAR
STARTCHAR 2654
ENCODING 9812
SWIDTH 822 0
DWIDTH 6 0
BBX 6 8 0 -2
BITMAP
00
00
68
a8
48
48
30
00
ENDCHAR
STARTCHAR 2655
ENCODING 9813
SWIDTH 822 0
DWIDTH 6 0
BBX 6 8 0 -2
BITMAP
10
10
70
a8
a8
70
40
00
ENDCHAR
STARTCHAR 2656
ENCODING 9814
SWIDTH 822 0
DWIDTH 6 0
BBX 6 8 0 -2
BITMAP
00
00
68
10
20
60
98
00
ENDCHAR
STARTCHAR 2657
ENCODING 9815
SWIDTH 822 0
DWIDTH 6 0
BBX 6 8 0 -2
BITMAP
10
10
a0
a8
a8
70
40
00
ENDCHAR
STARTCHAR 2658
ENCODING 9816
SWIDTH 822 0
DWIDTH 6 0
BBX 6 8 0 -2
BITMAP
00
00
48
88
a8
a8
50
00
ENDCHAR
STARTCHAR 2721
ENCODING 10017
SWIDTH 822 0
DWIDTH 6 0
BBX 6 8 0 -2
BITMAP
20
20
50
50
70
88
88
00
ENDCHAR
STARTCHAR 2722
ENCODING 10018
SWIDTH 822 0
DWIDTH 6 0
BBX 6 8 0 -2
BITMAP
f8
80
80
f0
88
88
f0
00
ENDCHAR
STARTCHAR 2723
ENCODING 10019
SWIDTH 822 0
DWIDTH 6 0
BBX 6 8 0 -2
BITMAP
f0
88
88
f0
88
88
f0
00
ENDCHAR
STARTCHAR 2724
ENCODING 10020
SWIDTH 822 0
DWIDTH 6 0
BBX 6 8 0 -2
BITMAP
f8
80
80
80
80
80
80
00
ENDCHAR
STARTCHAR 2725
ENCODING 10021
SWIDTH 822 0
DWIDTH 6 0
BBX 6 8 0 -2
BITMAP
70
50
50
50
90
f8
88
00
ENDCHAR
STARTCHAR 2726
ENCODING 10022
SWIDTH 822 0
DWIDTH 6 0
BBX 6 8 0 -2
BITMAP
f8
80
80
f0
80
80
f8
00
ENDCHAR
STARTCHAR 2727
ENCODING 10023
SWIDTH 822 0
DWIDTH 6 0
BBX 6 8 0 -2
BITMAP
50
f8
80
f0
80
80
f8
00
ENDCHAR
STARTCHAR 2728
ENCODING 10024
SWIDTH 822 0
DWIDTH 6 0
BBX 6 8 0 -2
BITMAP
a8
a8
70
20
70
a8
a8
00
ENDCHAR
STARTCHAR 2729
ENCODING 10025
SWIDTH 822 0
DWIDTH 6 0
BBX 6 8 0 -2
BITMAP
70
88
08
30
08
88
70
00
ENDCHAR
STARTCHAR 272a
ENCODING 10026
SWIDTH 822 0
DWIDTH 6 0
BBX 6 8 0 -2
BITMAP
88
88
98
a8
c8
88
88
00
ENDCHAR
STARTCHAR 272b
ENCODING 10027
SWIDTH 822 0
DWIDTH 6 0
BBX 6 8 0 -2
BITMAP
50
20
88
98
a8
c8
88
00
ENDCHAR
STARTCHAR 272c
ENCODING 10028
SWIDTH 822 0
DWIDTH 6 0
BBX 6 8 0 -2
BITMAP
98
a0
a0
c0
a0
90
88
00
ENDCHAR
STARTCHAR 272d
ENCODING 10029
SWIDTH 822 0
DWIDTH 6 0
BBX 6 8 0 -2
BITMAP
78
48
48
48
48
48
88
00
ENDCHAR
STARTCHAR 272e
ENCODING 10030
SWIDTH 822 0
DWIDTH 6 0
BBX 6 8 0 -2
BITMAP
50
50
50
a8
a8
a8
88
00
ENDCHAR
STARTCHAR 272f
ENCODING 10031
SWIDTH 822 0
DWIDTH 6 0
BBX 6 8 0 -2
BITMAP
88
88
88
f8
88
88
88
00
ENDCHAR
STARTCHAR 2730
ENCODING 10032
SWIDTH 822 0
DWIDTH 6 0
BBX 6 8 0 -2
BITMAP
70
88
88
88
88
88
70
00
ENDCHAR
STARTCHAR 2731
ENCODING 10033
SWIDTH 822 0
DWIDTH 6 0
BBX 6 8 0 -2
BITMAP
f8
88
88
88
88
88
88
00
ENDCHAR
STARTCHAR 2732
ENCODING 10034
SWIDTH 822 0
DWIDTH 6 0
BBX 6 8 0 -2
BITMAP
f0
88
88
f0
80
80
80
00
ENDCHAR
STARTCHAR 2733
ENCODING 10035
SWIDTH 822 0
DWIDTH 6 0
BBX 6 8 0 -2
BITMAP
30
48
80
80
80
48
30
00
ENDCHAR
STARTCHAR 2734
ENCODING 10036
SWIDTH 822 0
DWIDTH 6 0
BBX 6 8 0 -2
BITMAP
f8
20
20
20
20
20
20
00
ENDCHAR
STARTCHAR 2735
ENCODING 10037
SWIDTH 822 0
DWIDTH 6 0
BBX 6 8 0 -2
BITMAP
88
50
50
50
20
20
c0
00
ENDCHAR
STARTCHAR 2736
ENCODING 10038
SWIDTH 822 0
DWIDTH 6 0
BBX 6 8 0 -2
BITMAP
20
70
a8
a8
a8
70
20
00
ENDCHAR
STARTCHAR 2737
ENCODING 10039
SWIDTH 822 0
DWIDTH 6 0
BBX 6 8 0 -2
BITMAP
88
50
50
20
50
50
88
00
ENDCHAR
STARTCHAR 2738
ENCODING 10040
SWIDTH 822 0
DWIDTH 6 0
BBX 6 8 0 -2
BITMAP
90
90
90
90
90
f8
08
00
ENDCHAR
STARTCHAR 2739
ENCODING 10041
SWIDTH 822 0
DWIDTH 6 0
BBX 6 8 0 -2
BITMAP
88
88
88
88
78
08
08
00
ENDCHAR
STARTCHAR 273a
ENCODING 10042
SWIDTH 822 0
DWIDTH 6 0
BBX 6 8 0 -2
BITMAP
a8
a8
a8
a8
a8
a8
f8
00
ENDCHAR
STARTCHAR 273b
ENCODING 10043
SWIDTH 822 0
DWIDTH 6 0
BBX 6 8 0 -2
BITMAP
a8
a8
a8
a8
a8
f8
08
00
ENDCHAR
STARTCHAR 273c
ENCODING 10044
SWIDTH 822 0
DWIDTH 6 0
BBX 6 8 0 -2
BITMAP
c0
40
40
70
48
48
70
00
ENDCHAR
STARTCHAR 273d
ENCODING 10045
SWIDTH 822 0
DWIDTH 6 0
BBX 6 8 0 -2
BITMAP
88
88
88
c8
a8
a8
c8
00
ENDCHAR
STARTCHAR 273e
ENCODING 10046
SWIDTH 822 0
DWIDTH 6 0
BBX 6 8 0 -2
BITMAP
80
80
80
f0
88
88
f0
00
ENDCHAR
STARTCHAR 273f
ENCODING 10047
SWIDTH 822 0
DWIDTH 6 0
BBX 6 8 0 -2
BITMAP
60
90
08
78
08
90
60
00
ENDCHAR
STARTCHAR 2740
ENCODING 10048
SWIDTH 822 0
DWIDTH 6 0
BBX 6 8 0 -2
BITMAP
90
a8
a8
e8
a8
a8
90
00
ENDCHAR
STARTCHAR 2741
ENCODING 10049
SWIDTH 822 0
DWIDTH 6 0
BBX 6 8 0 -2
BITMAP
78
88
88
78
48
48
88
00
ENDCHAR
STARTCHAR 2751
ENCODING 10065
SWIDTH 822 0
DWIDTH 6 0
BBX 6 8 0 -2
BITMAP
00
00
30
08
38
48
38
00
ENDCHAR
STARTCHAR 2752
ENCODING 10066
SWIDTH 822 0
DWIDTH 6 0
BBX 6 8 0 -2
BITMAP
18
20
70
48
48
48
30
00
ENDCHAR
STARTCHAR 2753
ENCODING 10067
SWIDTH 822 0
DWIDTH 6 0
BBX 6 8 0 -2
BITMAP
00
00
70
48
70
48
70
00
ENDCHAR
STARTCHAR 2754
ENCODING 10068
SWIDTH 822 0
DWIDTH 6 0
BBX 6 8 0 -2
BITMAP
00
00
78
40
40
40
40
00
ENDCHAR
STARTCHAR 2755
ENCODING 10069
SWIDTH 822 0
DWIDTH 6 0
BBX 6 8 0 -2
BITMAP
00
00
70
50
50
f8
88
00
ENDCHAR
STARTCHAR 2756
ENCODING 10070
SWIDTH 822 0
DWIDTH 6 0
BBX 6 8 0 -2
BITMAP
00
00
30
48
78
40
30
00
ENDCHAR
STARTCHAR 2757
ENCODING 10071
SWIDTH 822 0
DWIDTH 6 0
BBX 6 8 0 -2
BITMAP
50
00
30
48
78
40
30
00
ENDCHAR
STARTCHAR 2758
ENCODING 10072
SWIDTH 822 0
DWIDTH 6 0
BBX 6 8 0 -2
BITMAP
00
00
a8
70
20
70
a8
00
ENDCHAR
STARTCHAR 2759
ENCODING 10073
SWIDTH 822 0
DWIDTH 6 0
BBX 6 8 0 -2
BITMAP
00
00
30
48
10
48
30
00
ENDCHAR
STARTCHAR 275a
ENCODING 10074
SWIDTH 822 0
DWIDTH 6 0
BBX 6 8 0 -2
BITMAP
00
00
48
48
58
68
48
00
ENDCHAR
STARTCHAR 275b
ENCODING 10075
SWIDTH 822 0
DWIDTH 6 0
BBX 6 8 0 -2
BITMAP
50
20
48
48
58
68
48
00
ENDCHAR
STARTCHAR 275c
ENCODING 10076
SWIDTH 822 0
DWIDTH 6 0
BBX 6 8 0 -2
BITMAP
00
00
58
50
60
50
48
00
ENDCHAR
STARTCHAR 275d
ENCODING 10077
SWIDTH 822 0
DWIDTH 6 0
BBX 6 8 0 -2
BITMAP
00
00
78
48
48
48
88
00
ENDCHAR
STARTCHAR 275e
ENCODING 10078
SWIDTH 822 0
DWIDTH 6 0
BBX 6 8 0 -2
BITMAP
00
00
88
d8
a8
a8
88
00
ENDCHAR
STARTCHAR 275f
ENCODING 10079
SWIDTH 822 0
DWIDTH 6 0
BBX 6 8 0 -2
BITMAP
00
00
48
48
78
48
48
00
ENDCHAR
STARTCHAR 2760
ENCODING 10080
SWIDTH 822 0
DWIDTH 6 0
BBX 6 8 0 -2
BITMAP
00
00
30
48
48
48
30
00
ENDCHAR
STARTCHAR 2761
ENCODING 10081
SWIDTH 822 0
DWIDTH 6 0
BBX 6 8 0 -2
BITMAP
00
00
78
48
48
48
48
00
ENDCHAR
STARTCHAR 2762
ENCODING 10082
SWIDTH 822 0
DWIDTH 6 0
BBX 6 8 0 -2
BITMAP
00
00
70
48
70
40
40
00
ENDCHAR
STARTCHAR 2763
ENCODING 10083
SWIDTH 822 0
DWIDTH 6 0
BBX 6 8 0 -2
BITMAP
00
00
30
48
40
48
30
00
ENDCHAR
STARTCHAR 2764
ENCODING 10084
SWIDTH 822 0
DWIDTH 6 0
BBX 6 8 0 -2
BITMAP
00
00
f8
20
20
20
20
00
ENDCHAR
STARTCHAR 2765
ENCODING 10085
SWIDTH 822 0
DWIDTH 6 0
BBX 6 8 0 -2
BITMAP
00
00
88
50
50
20
c0
00
ENDCHAR
STARTCHAR 2766
ENCODING 10086
SWIDTH 822 0
DWIDTH 6 0
BBX 6 8 0 -2
BITMAP
20
20
70
a8
a8
70
20
00
ENDCHAR
STARTCHAR 2767
ENCODING 10087
SWIDTH 822 0
DWIDTH 6 0
BBX 6 8 0 -2
BITMAP
00
00
48
48
30
48
48
00
ENDCHAR
STARTCHAR 2768
ENCODING 10088
SWIDTH 822 0
DWIDTH 6 0
BBX 6 8 0 -2
BITMAP
00
00
90
90
90
f8
08
00
ENDCHAR
STARTCHAR 2769
ENCODING 10089
SWIDTH 822 0
DWIDTH 6 0
BBX 6 8 0 -2
BITMAP
00
00
48
48
38
08
08
00
ENDCHAR
STARTCHAR 276a
ENCODING 10090
SWIDTH 822 0
DWIDTH 6 0
BBX 6 8 0 -2
BITMAP
00
00
a8
a8
a8
a8
f8
00
ENDCHAR
STARTCHAR 276b
ENCODING 10091
SWIDTH 822 0
DWIDTH 6 0
BBX 6 8 0 -2
BITMAP
00
00
a8
a8
a8
f8
08
00
ENDCHAR
STARTCHAR 276c
ENCODING 10092
SWIDTH 822 0
DWIDTH 6 0
BBX 6 8 0 -2
BITMAP
00
00
c0
40
70
48
70
00
ENDCHAR
STARTCHAR 276d
ENCODING 10093
SWIDTH 822 0
DWIDTH 6 0
BBX 6 8 0 -2
BITMAP
00
00
48
48
68
58
68
00
ENDCHAR
STARTCHAR 276e
ENCODING 10094
SWIDTH 822 0
DWIDTH 6 0
BBX 6 8 0 -2
BITMAP
00
00
40
40
70
48
70
00
ENDCHAR
STARTCHAR 276f
ENCODING 10095
SWIDTH 822 0
DWIDTH 6 0
BBX 6 8 0 -2
BITMAP
00
00
30
48
18
48
30
00
ENDCHAR
STARTCHAR 2770
ENCODING 10096
SWIDTH 822 0
DWIDTH 6 0
BBX 6 8 0 -2
BITMAP
00
00
90
a8
e8
a8
90
00
ENDCHAR
STARTCHAR 2771
ENCODING 10097
SWIDTH 822 0
DWIDTH 6 0
BBX 6 8 0 -2
BITMAP
00
00
38
48
38
28
48
00
ENDCHAR
STARTCHAR 2821
ENCODING 10273
SWIDTH 822 0
DWIDTH 6 0
BBX 6 8 0 -2
BITMAP
00
00
00
fc
00
00
00
00
ENDCHAR
STARTCHAR 2822
ENCODING 10274
SWIDTH 822 0
DWIDTH 6 0
BBX 6 8 0 -2
BITMAP
20
20
20
20
20
20
20
20
ENDCHAR
STARTCHAR 2823
ENCODING 10275
SWIDTH 822 0
DWIDTH 6 0
BBX 6 8 0 -2
BITMAP
00
00
00
3c
20
20
20
20
ENDCHAR
STARTCHAR 2824
ENCODING 10276
SWIDTH 822 0
DWIDTH 6 0
BBX 6 8 0 -2
BITMAP
00
00
00
e0
20
20
20
20
ENDCHAR
STARTCHAR 2825
ENCODING 10277
SWIDTH 822 0
DWIDTH 6 0
BBX 6 8 0 -2
BITMAP
20
20
20
e0
00
00
00
00
ENDCHAR
STARTCHAR 2826
ENCODING 10278
SWIDTH 822 0
DWIDTH 6 0
BBX 6 8 0 -2
BITMAP
20
20
20
3c
00
00
00
00
ENDCHAR
STARTCHAR 2827
ENCODING 10279
SWIDTH 822 0
DWIDTH 6 0
BBX 6 8 0 -2
BITMAP
20
20
20
3c
20
20
20
20
ENDCHAR
STARTCHAR 2828
ENCODING 10280
SWIDTH 822 0
DWIDTH 6 0
BBX 6 8 0 -2
BITMAP
00
00
00
fc
20
20
20
20
ENDCHAR
STARTCHAR 2829
ENCODING 10281
SWIDTH 822 0
DWIDTH 6 0
BBX 6 8 0 -2
BITMAP
20
20
20
e0
20
20
20
20
ENDCHAR
STARTCHAR 282a
ENCODING 10282
SWIDTH 822 0
DWIDTH 6 0
BBX 6 8 0 -2
BITMAP
20
20
20
fc
00
00
00
00
ENDCHAR
STARTCHAR 282b
ENCODING 10283
SWIDTH 822 0
DWIDTH 6 0
BBX 6 8 0 -2
BITMAP
20
20
20
fc
20
20
20
20
ENDCHAR
STARTCHAR 282c
ENCODING 10284
SWIDTH 822 0
DWIDTH 6 0
BBX 6 8 0 -2
BITMAP
00
00
00
fc
fc
00
00
00
ENDCHAR
STARTCHAR 282d
ENCODING 10285
SWIDTH 822 0
DWIDTH 6 0
BBX 6 8 0 -2
BITMAP
30
30
30
30
30
30
30
30
ENDCHAR
STARTCHAR 282e
ENCODING 10286
SWIDTH 822 0
DWIDTH 6 0
BBX 6 8 0 -2
BITMAP
00
00
00
3c
3c
30
30
30
ENDCHAR
STARTCHAR 282f
ENCODING 10287
SWIDTH 822 0
DWIDTH 6 0
BBX 6 8 0 -2
BITMAP
00
00
00
f0
f0
30
30
30
ENDCHAR
STARTCHAR 2830
ENCODING 10288
SWIDTH 822 0
DWIDTH 6 0
BBX 6 8 0 -2
BITMAP
30
30
30
f0
f0
00
00
00
ENDCHAR
STARTCHAR 2831
ENCODING 10289
SWIDTH 822 0
DWIDTH 6 0
BBX 6 8 0 -2
BITMAP
30
30
30
3c
3c
00
00
00
ENDCHAR
STARTCHAR 2832
ENCODING 10290
SWIDTH 822 0
DWIDTH 6 0
BBX 6 8 0 -2
BITMAP
30
30
30
3c
3c
30
30
30
ENDCHAR
STARTCHAR 2833
ENCODING 10291
SWIDTH 822 0
DWIDTH 6 0
BBX 6 8 0 -2
BITMAP
00
00
00
fc
fc
30
30
30
ENDCHAR
STARTCHAR 2834
ENCODING 10292
SWIDTH 822 0
DWIDTH 6 0
BBX 6 8 0 -2
BITMAP
30
30
30
f0
f0
30
30
30
ENDCHAR
STARTCHAR 2835
ENCODING 10293
SWIDTH 822 0
DWIDTH 6 0
BBX 6 8 0 -2
BITMAP
30
30
30
fc
fc
00
00
00
ENDCHAR
STARTCHAR 2836
ENCODING 10294
SWIDTH 822 0
DWIDTH 6 0
BBX 6 8 0 -2
BITMAP
30
30
30
fc
fc
30
30
30
ENDCHAR
STARTCHAR 2837
ENCODING 10295
SWIDTH 822 0
DWIDTH 6 0
BBX 6 8 0 -2
BITMAP
30
30
30
3c
30
30
30
30
ENDCHAR
STARTCHAR 2838
ENCODING 10296
SWIDTH 822 0
DWIDTH 6 0
BBX 6 8 0 -2
BITMAP
00
00
00
fc
fc
20
20
20
ENDCHAR
STARTCHAR 2839
ENCODING 10297
SWIDTH 822 0
DWIDTH 6 0
BBX 6 8 0 -2
BITMAP
30
30
30
f0
30
30
30
30
ENDCHAR
STARTCHAR 283a
ENCODING 10298
SWIDTH 822 0
DWIDTH 6 0
BBX 6 8 0 -2
BITMAP
20
20
20
fc
fc
00
00
00
ENDCHAR
STARTCHAR 283b
ENCODING 10299
SWIDTH 822 0
DWIDTH 6 0
BBX 6 8 0 -2
BITMAP
20
20
20
fc
fc
20
20
20
ENDCHAR
STARTCHAR 283c
ENCODING 10300
SWIDTH 822 0
DWIDTH 6 0
BBX 6 8 0 -2
BITMAP
20
20
20
3c
3c
20
20
20
ENDCHAR
STARTCHAR 283d
ENCODING 10301
SWIDTH 822 0
DWIDTH 6 0
BBX 6 8 0 -2
BITMAP
00
00
00
fc
30
30
30
30
ENDCHAR
STARTCHAR 283e
ENCODING 10302
SWIDTH 822 0
DWIDTH 6 0
BBX 6 8 0 -2
BITMAP
20
20
20
e0
e0
20
20
20
ENDCHAR
STARTCHAR 283f
ENCODING 10303
SWIDTH 822 0
DWIDTH 6 0
BBX 6 8 0 -2
BITMAP
30
30
30
fc
00
00
00
00
ENDCHAR
STARTCHAR 2840
ENCODING 10304
SWIDTH 822 0
DWIDTH 6 0
BBX 6 8 0 -2
BITMAP
30
30
30
fc
30
30
30
30
ENDCHAR
STARTCHAR 3021
ENCODING 12321
SWIDTH 822 0
DWIDTH 6 0
BBX 6 8 0 -2
BITMAP
f8
50
f8
d8
f8
50
f8
00
ENDCHAR
STARTCHAR 3022
ENCODING 12322
SWIDTH 822 0
DWIDTH 6 0
BBX 6 8 0 -2
BITMAP
38
d0
b8
a8
f8
10
38
00
ENDCHAR
STARTCHAR 3023
ENCODING 12323
SWIDTH 822 0
DWIDTH 6 0
BBX 6 8 0 -2
BITMAP
90
b8
d0
f8
d0
50
b8
00
ENDCHAR
STARTCHAR 3024
ENCODING 12324
SWIDTH 822 0
DWIDTH 6 0
BBX 6 8 0 -2
BITMAP
f8
c8
b8
e8
f8
88
98
00
ENDCHAR
STARTCHAR 3025
ENCODING 12325
SWIDTH 822 0
DWIDTH 6 0
BBX 6 8 0 -2
BITMAP
20
f8
50
70
68
d0
68
00
ENDCHAR
STARTCHAR 3026
ENCODING 12326
SWIDTH 822 0
DWIDTH 6 0
BBX 6 8 0 -2
BITMAP
f8
50
f8
c8
30
50
a8
00
ENDCHAR
STARTCHAR 3027
ENCODING 12327
SWIDTH 822 0
DWIDTH 6 0
BBX 6 8 0 -2
BITMAP
50
e0
78
50
f8
50
e8
00
ENDCHAR
STARTCHAR 3028
ENCODING 12328
SWIDTH 822 0
DWIDTH 6 0
BBX 6 8 0 -2
BITMAP
90
a8
d8
c0
f8
68
b8
00
ENDCHAR
STARTCHAR 3029
ENCODING 12329
SWIDTH 822 0
DWIDTH 6 0
BBX 6 8 0 -2
BITMAP
98
28
10
a8
f8
90
f8
00
ENDCHAR
STARTCHAR 302a
ENCODING 12330
SWIDTH 822 0
DWIDTH 6 0
BBX 6 8 0 -2
BITMAP
50
f8
50
88
70
20
d8
00
ENDCHAR
STARTCHAR 302b
ENCODING 12331
SWIDTH 822 0
DWIDTH 6 0
BBX 6 8 0 -2
BITMAP
50
f8
50
f8
58
48
78
00
ENDCHAR
STARTCHAR 302c
ENCODING 12332
SWIDTH 822 0
DWIDTH 6 0
BBX 6 8 0 -2
BITMAP
d8
68
d0
78
f8
d0
58
00
ENDCHAR
STARTCHAR 302d
ENCODING 12333
SWIDTH 822 0
DWIDTH 6 0
BBX 6 8 0 -2
BITMAP
f8
70
70
f8
50
c8
b8
00
ENDCHAR
STARTCHAR 302e
ENCODING 12334
SWIDTH 822 0
DWIDTH 6 0
BBX 6 8 0 -2
BITMAP
78
f8
50
60
f8
50
f8
00
ENDCHAR
STARTCHAR 302f
ENCODING 12335
SWIDTH 822 0
DWIDTH 6 0
BBX 6 8 0 -2
BITMAP
f8
78
d0
60
f8
d0
b8
00
ENDCHAR
STARTCHAR 3030
ENCODING 12336
SWIDTH 822 0
DWIDTH 6 0
BBX 6 8 0 -2
BITMAP
58
e8
78
68
78
60
b8
00
ENDCHAR
STARTCHAR 3031
ENCODING 12337
SWIDTH 822 0
DWIDTH 6 0
BBX 6 8 0 -2
BITMAP
50
f8
28
f8
50
f8
10
00
ENDCHAR
STARTCHAR 3032
ENCODING 12338
SWIDTH 822 0
DWIDTH 6 0
BBX 6 8 0 -2
BITMAP
50
f8
50
f8
48
78
80
00
ENDCHAR
STARTCHAR 3033
ENCODING 12339
SWIDTH 822 0
DWIDTH 6 0
BBX 6 8 0 -2
BITMAP
d0
60
f8
e8
d0
08
b0
00
ENDCHAR
STARTCHAR 3034
ENCODING 12340
SWIDTH 822 0
DWIDTH 6 0
BBX 6 8 0 -2
BITMAP
50
f8
68
d0
f8
50
50
00
ENDCHAR
STARTCHAR 3035
ENCODING 12341
SWIDTH 822 0
DWIDTH 6 0
BBX 6 8 0 -2
BITMAP
f8
90
90
b8
90
90
b8
00
ENDCHAR
STARTCHAR 3036
ENCODING 12342
SWIDTH 822 0
DWIDTH 6 0
BBX 6 8 0 -2
BITMAP
d0
68
c0
e8
48
f8
48
00
ENDCHAR
STARTCHAR 3037
ENCODING 12343
SWIDTH 822 0
DWIDTH 6 0
BBX 6 8 0 -2
BITMAP
70
d0
58
48
e8
50
e8
00
ENDCHAR
STARTCHAR 3038
ENCODING 12344
SWIDTH 822 0
DWIDTH 6 0
BBX 6 8 0 -2
BITMAP
20
f8
88
78
a8
60
b8
00
ENDCHAR
STARTCHAR 3039
ENCODING 12345
SWIDTH 822 0
DWIDTH 6 0
BBX 6 8 0 -2
BITMAP
b8
a8
f8
e8
f8
68
b8
00
ENDCHAR
STARTCHAR 303a
ENCODING 12346
SWIDTH 822 0
DWIDTH 6 0
BBX 6 8 0 -2
BITMAP
50
f8
a0
e0
60
60
d8
00
ENDCHAR
STARTCHAR 303b
ENCODING 12347
SWIDTH 822 0
DWIDTH 6 0
BBX 6 8 0 -2
BITMAP
48
a8
10
d8
c0
98
d8
00
ENDCHAR
STARTCHAR 303c
ENCODING 12348
SWIDTH 822 0
DWIDTH 6 0
BBX 6 8 0 -2
BITMAP
60
b8
78
a8
78
e8
78
00
ENDCHAR
STARTCHAR 303d
ENCODING 12349
SWIDTH 822 0
DWIDTH 6 0
BBX 6 8 0 -2
BITMAP
50
b8
50
98
68
d0
68
00
ENDCHAR
STARTCHAR 303e
ENCODING 12350
SWIDTH 822 0
DWIDTH 6 0
BBX 6 8 0 -2
BITMAP
d0
50
d8
d0
f8
28
b8
00
ENDCHAR
STARTCHAR 303f
ENCODING 12351
SWIDTH 822 0
DWIDTH 6 0
BBX 6 8 0 -2
BITMAP
10
f8
10
d0
d8
30
c8
00
ENDCHAR
STARTCHAR 3040
ENCODING 12352
SWIDTH 822 0
DWIDTH 6 0
BBX 6 8 0 -2
BITMAP
f8
70
70
a8
f8
70
a8
00
ENDCHAR
STARTCHAR 3041
ENCODING 12353
SWIDTH 822 0
DWIDTH 6 0
BBX 6 8 0 -2
BITMAP
50
e8
38
40
f8
68
78
00
ENDCHAR
STARTCHAR 3042
ENCODING 12354
SWIDTH 822 0
DWIDTH 6 0
BBX 6 8 0 -2
BITMAP
20
f8
a8
f8
50
30
c8
00
ENDCHAR
STARTCHAR 3043
ENCODING 12355
SWIDTH 822 0
DWIDTH 6 0
BBX 6 8 0 -2
BITMAP
20
f8
a0
d8
b0
b0
98
00
ENDCHAR
STARTCHAR 3044
ENCODING 12356
SWIDTH 822 0
DWIDTH 6 0
BBX 6 8 0 -2
BITMAP
50
f8
68
58
e8
50
e8
00
ENDCHAR
STARTCHAR 3045
ENCODING 12357
SWIDTH 822 0
DWIDTH 6 0
BBX 6 8 0 -2
BITMAP
10
f8
e8
f8
c0
d8
18
00
ENDCHAR
STARTCHAR 3046
ENCODING 12358
SWIDTH 822 0
DWIDTH 6 0
BBX 6 8 0 -2
BITMAP
20
f8
a8
50
f8
70
a8
00
ENDCHAR
STARTCHAR 3047
ENCODING 12359
SWIDTH 822 0
DWIDTH 6 0
BBX 6 8 0 -2
BITMAP
d8
d8
a8
f8
d8
b8
b8
00
ENDCHAR
STARTCHAR 3048
ENCODING 12360
SWIDTH 822 0
DWIDTH 6 0
BBX 6 8 0 -2
BITMAP
90
f8
e8
58
e8
d0
68
00
ENDCHAR
STARTCHAR 3049
ENCODING 12361
SWIDTH 822 0
DWIDTH 6 0
BBX 6 8 0 -2
BITMAP
20
f8
70
a8
70
50
70
00
ENDCHAR
STARTCHAR 304a
ENCODING 12362
SWIDTH 822 0
DWIDTH 6 0
BBX 6 8 0 -2
BITMAP
48
58
48
68
48
90
28
00
ENDCHAR
STARTCHAR 304b
ENCODING 12363
SWIDTH 822 0
DWIDTH 6 0
BBX 6 8 0 -2
BITMAP
78
58
f8
d8
70
50
60
00
ENDCHAR
STARTCHAR 304c
ENCODING 12364
SWIDTH 822 0
DWIDTH 6 0
BBX 6 8 0 -2
BITMAP
50
78
c8
e8
68
50
78
00
ENDCHAR
STARTCHAR 304d
ENCODING 12365
SWIDTH 822 0
DWIDTH 6 0
BBX 6 8 0 -2
BITMAP
50
78
d0
e0
68
70
68
00
ENDCHAR
STARTCHAR 304e
ENCODING 12366
SWIDTH 822 0
DWIDTH 6 0
BBX 6 8 0 -2
BITMAP
50
78
d8
f8
70
78
50
00
ENDCHAR
STARTCHAR 304f
ENCODING 12367
SWIDTH 822 0
DWIDTH 6 0
BBX 6 8 0 -2
BITMAP
f8
d8
f8
d8
f8
d8
f8
00
ENDCHAR
STARTCHAR 3050
ENCODING 12368
SWIDTH 822 0
DWIDTH 6 0
BBX 6 8 0 -2
BITMAP
20
f8
70
60
70
30
d8
00
ENDCHAR
STARTCHAR 3051
ENCODING 12369
SWIDTH 822 0
DWIDTH 6 0
BBX 6 8 0 -2
BITMAP
70
f8
70
a8
f8
50
e8
00
ENDCHAR
STARTCHAR 3052
ENCODING 12370
SWIDTH 822 0
DWIDTH 6 0
BBX 6 8 0 -2
BITMAP
10
f8
f0
d0
b8
d0
a8
00
ENDCHAR
STARTCHAR 3053
ENCODING 12371
SWIDTH 822 0
DWIDTH 6 0
BBX 6 8 0 -2
BITMAP
e8
f8
88
d8
98
e8
58
00
ENDCHAR
STARTCHAR 3054
ENCODING 12372
SWIDTH 822 0
DWIDTH 6 0
BBX 6 8 0 -2
BITMAP
68
f8
f0
78
70
70
78
00
ENDCHAR
STARTCHAR 3055
ENCODING 12373
SWIDTH 822 0
DWIDTH 6 0
BBX 6 8 0 -2
BITMAP
20
f8
50
f8
70
c8
b8
00
ENDCHAR
STARTCHAR 3056
ENCODING 12374
SWIDTH 822 0
DWIDTH 6 0
BBX 6 8 0 -2
BITMAP
e8
f8
88
e8
40
c8
b8
00
ENDCHAR
STARTCHAR 3057
ENCODING 12375
SWIDTH 822 0
DWIDTH 6 0
BBX 6 8 0 -2
BITMAP
f8
88
f8
40
78
a8
58
00
ENDCHAR
STARTCHAR 3058
ENCODING 12376
SWIDTH 822 0
DWIDTH 6 0
BBX 6 8 0 -2
BITMAP
50
f8
50
e8
f8
48
68
00
ENDCHAR
STARTCHAR 3059
ENCODING 12377
SWIDTH 822 0
DWIDTH 6 0
BBX 6 8 0 -2
BITMAP
50
f0
30
50
f8
08
a8
00
ENDCHAR
STARTCHAR 305a
ENCODING 12378
SWIDTH 822 0
DWIDTH 6 0
BBX 6 8 0 -2
BITMAP
f8
a8
f8
00
f8
a0
d8
00
ENDCHAR
STARTCHAR 305b
ENCODING 12379
SWIDTH 822 0
DWIDTH 6 0
BBX 6 8 0 -2
BITMAP
f8
a8
f8
50
f8
00
88
00
ENDCHAR
STARTCHAR 305c
ENCODING 12380
SWIDTH 822 0
DWIDTH 6 0
BBX 6 8 0 -2
BITMAP
d8
68
d0
58
e8
d0
60
00
ENDCHAR
STARTCHAR 305d
ENCODING 12381
SWIDTH 822 0
DWIDTH 6 0
BBX 6 8 0 -2
BITMAP
68
b8
70
b8
70
f0
78
00
ENDCHAR
STARTCHAR 305e
ENCODING 12382
SWIDTH 822 0
DWIDTH 6 0
BBX 6 8 0 -2
BITMAP
50
b8
58
b8
70
f8
50
00
ENDCHAR
STARTCHAR 305f
ENCODING 12383
SWIDTH 822 0
DWIDTH 6 0
BBX 6 8 0 -2
BITMAP
f8
a8
f8
f8
50
70
50
00
ENDCHAR
STARTCHAR 3060
ENCODING 12384
SWIDTH 822 0
DWIDTH 6 0
BBX 6 8 0 -2
BITMAP
50
f8
70
a8
f8
50
e8
00
ENDCHAR
STARTCHAR 3061
ENCODING 12385
SWIDTH 822 0
DWIDTH 6 0
BBX 6 8 0 -2
BITMAP
20
f8
20
68
d0
50
68
00
ENDCHAR
STARTCHAR 3062
ENCODING 12386
SWIDTH 822 0
DWIDTH 6 0
BBX 6 8 0 -2
BITMAP
b8
f8
38
80
38
f8
e8
00
ENDCHAR
STARTCHAR 3063
ENCODING 12387
SWIDTH 822 0
DWIDTH 6 0
BBX 6 8 0 -2
BITMAP
b8
18
38
b0
b8
90
f8
00
ENDCHAR
STARTCHAR 3064
ENCODING 12388
SWIDTH 822 0
DWIDTH 6 0
BBX 6 8 0 -2
BITMAP
90
30
78
b0
b0
c8
f8
00
ENDCHAR
STARTCHAR 3065
ENCODING 12389
SWIDTH 822 0
DWIDTH 6 0
BBX 6 8 0 -2
BITMAP
f8
a0
b8
f8
90
a8
f8
00
ENDCHAR
STARTCHAR 3066
ENCODING 12390
SWIDTH 822 0
DWIDTH 6 0
BBX 6 8 0 -2
BITMAP
50
f8
50
50
f8
50
90
00
ENDCHAR
STARTCHAR 3067
ENCODING 12391
SWIDTH 822 0
DWIDTH 6 0
BBX 6 8 0 -2
BITMAP
20
f8
40
a8
50
30
c8
00
ENDCHAR
STARTCHAR 3068
ENCODING 12392
SWIDTH 822 0
DWIDTH 6 0
BBX 6 8 0 -2
BITMAP
50
78
d0
70
78
d0
28
00
ENDCHAR
STARTCHAR 3069
ENCODING 12393
SWIDTH 822 0
DWIDTH 6 0
BBX 6 8 0 -2
BITMAP
20
f8
50
e8
50
70
50
00
ENDCHAR
STARTCHAR 306a
ENCODING 12394
SWIDTH 822 0
DWIDTH 6 0
BBX 6 8 0 -2
BITMAP
58
f8
50
78
d8
70
50
00
ENDCHAR
STARTCHAR 306b
ENCODING 12395
SWIDTH 822 0
DWIDTH 6 0
BBX 6 8 0 -2
BITMAP
e8
50
68
90
78
70
28
00
ENDCHAR
STARTCHAR 306c
ENCODING 12396
SWIDTH 822 0
DWIDTH 6 0
BBX 6 8 0 -2
BITMAP
00
00
10
f8
00
00
00
00
ENDCHAR
STARTCHAR 306d
ENCODING 12397
SWIDTH 822 0
DWIDTH 6 0
BBX 6 8 0 -2
BITMAP
20
f8
20
f8
b8
20
38
00
ENDCHAR
STARTCHAR 306e
ENCODING 12398
SWIDTH 822 0
DWIDTH 6 0
BBX 6 8 0 -2
BITMAP
a8
78
b0
48
80
b0
f8
00
ENDCHAR
STARTCHAR 306f
ENCODING 12399
SWIDTH 822 0
DWIDTH 6 0
BBX 6 8 0 -2
BITMAP
98
68
38
b8
90
a8
f8
00
ENDCHAR
STARTCHAR 3070
ENCODING 12400
SWIDTH 822 0
DWIDTH 6 0
BBX 6 8 0 -2
BITMAP
c8
70
e8
40
d8
d8
58
00
ENDCHAR
STARTCHAR 3071
ENCODING 12401
SWIDTH 822 0
DWIDTH 6 0
BBX 6 8 0 -2
BITMAP
50
f8
20
b8
58
10
a8
00
ENDCHAR
STARTCHAR 3072
ENCODING 12402
SWIDTH 822 0
DWIDTH 6 0
BBX 6 8 0 -2
BITMAP
50
f8
50
f8
20
f8
60
00
ENDCHAR
STARTCHAR 3073
ENCODING 12403
SWIDTH 822 0
DWIDTH 6 0
BBX 6 8 0 -2
BITMAP
d8
48
d8
d0
c8
18
a8
00
ENDCHAR
STARTCHAR 3074
ENCODING 12404
SWIDTH 822 0
DWIDTH 6 0
BBX 6 8 0 -2
BITMAP
20
48
f8
50
50
50
98
00
ENDCHAR
STARTCHAR 3075
ENCODING 12405
SWIDTH 822 0
DWIDTH 6 0
BBX 6 8 0 -2
BITMAP
40
b8
a8
e8
a8
e0
20
00
ENDCHAR
STARTCHAR 3076
ENCODING 12406
SWIDTH 822 0
DWIDTH 6 0
BBX 6 8 0 -2
BITMAP
78
d8
f8
d8
e8
48
78
00
ENDCHAR
STARTCHAR 3077
ENCODING 12407
SWIDTH 822 0
DWIDTH 6 0
BBX 6 8 0 -2
BITMAP
70
50
f8
88
f8
00
88
00
ENDCHAR
STARTCHAR 3078
ENCODING 12408
SWIDTH 822 0
DWIDTH 6 0
BBX 6 8 0 -2
BITMAP
f8
a8
f8
a8
d8
88
f8
00
ENDCHAR
STARTCHAR 3079
ENCODING 12409
SWIDTH 822 0
DWIDTH 6 0
BBX 6 8 0 -2
BITMAP
b8
a8
f8
d8
e8
48
b8
00
ENDCHAR
STARTCHAR 307a
ENCODING 12410
SWIDTH 822 0
DWIDTH 6 0
BBX 6 8 0 -2
BITMAP
e8
28
e8
88
e8
28
68
00
ENDCHAR
STARTCHAR 307b
ENCODING 12411
SWIDTH 822 0
DWIDTH 6 0
BBX 6 8 0 -2
BITMAP
50
b8
08
d0
d0
90
e8
00
ENDCHAR
STARTCHAR 307c
ENCODING 12412
SWIDTH 822 0
DWIDTH 6 0
BBX 6 8 0 -2
BITMAP
88
30
a8
00
b8
90
b8
00
ENDCHAR
STARTCHAR 307d
ENCODING 12413
SWIDTH 822 0
DWIDTH 6 0
BBX 6 8 0 -2
BITMAP
a8
c8
a8
f8
d8
f8
d8
00
ENDCHAR
STARTCHAR 307e
ENCODING 12414
SWIDTH 822 0
DWIDTH 6 0
BBX 6 8 0 -2
BITMAP
50
f8
d0
a8
d0
e8
b8
00
ENDCHAR
STARTCHAR 3121
ENCODING 12577
SWIDTH 822 0
DWIDTH 6 0
BBX 6 8 0 -2
BITMAP
d0
f8
a8
c0
f8
90
a8
00
ENDCHAR
STARTCHAR 3122
ENCODING 12578
SWIDTH 822 0
DWIDTH 6 0
BBX 6 8 0 -2
BITMAP
d0
e8
b0
d0
f8
a0
b8
00
ENDCHAR
STARTCHAR 3123
ENCODING 12579
SWIDTH 822 0
DWIDTH 6 0
BBX 6 8 0 -2
BITMAP
c8
f0
a8
d8
d8
a0
b8
00
ENDCHAR
STARTCHAR 3124
ENCODING 12580
SWIDTH 822 0
DWIDTH 6 0
BBX 6 8 0 -2
BITMAP
58
f8
a0
f8
18
c0
e8
00
ENDCHAR
STARTCHAR 3125
ENCODING 12581
SWIDTH 822 0
DWIDTH 6 0
BBX 6 8 0 -2
BITMAP
08
f8
c8
e8
d8
08
18
00
ENDCHAR
STARTCHAR 3126
ENCODING 12582
SWIDTH 822 0
DWIDTH 6 0
BBX 6 8 0 -2
BITMAP
20
f8
40
78
c8
48
78
00
ENDCHAR
STARTCHAR 3127
ENCODING 12583
SWIDTH 822 0
DWIDTH 6 0
BBX 6 8 0 -2
BITMAP
20
f8
88
70
20
f8
20
00
ENDCHAR
STARTCHAR 3128
ENCODING 12584
SWIDTH 822 0
DWIDTH 6 0
BBX 6 8 0 -2
BITMAP
20
70
50
70
78
08
a8
00
ENDCHAR
STARTCHAR 3129
ENCODING 12585
SWIDTH 822 0
DWIDTH 6 0
BBX 6 8 0 -2
BITMAP
f8
28
b8
28
78
a8
28
00
ENDCHAR
STARTCHAR 312a
ENCODING 12586
SWIDTH 822 0
DWIDTH 6 0
BBX 6 8 0 -2
BITMAP
b8
10
38
90
90
b0
f8
00
ENDCHAR
STARTCHAR 312b
ENCODING 12587
SWIDTH 822 0
DWIDTH 6 0
BBX 6 8 0 -2
BITMAP
f8
20
f8
f8
a8
f8
a8
00
ENDCHAR
STARTCHAR 312c
ENCODING 12588
SWIDTH 822 0
DWIDTH 6 0
BBX 6 8 0 -2
BITMAP
78
a8
a8
a8
e8
60
a0
00
ENDCHAR
STARTCHAR 312d
ENCODING 12589
SWIDTH 822 0
DWIDTH 6 0
BBX 6 8 0 -2
BITMAP
a8
f8
78
e0
f8
68
a8
00
ENDCHAR
STARTCHAR 312e
ENCODING 12590
SWIDTH 822 0
DWIDTH 6 0
BBX 6 8 0 -2
BITMAP
20
f8
d8
58
f8
50
a8
00
ENDCHAR
STARTCHAR 312f
ENCODING 12591
SWIDTH 822 0
DWIDTH 6 0
BBX 6 8 0 -2
BITMAP
f0
50
50
f8
50
50
f8
00
ENDCHAR
STARTCHAR 3130
ENCODING 12592
SWIDTH 822 0
DWIDTH 6 0
BBX 6 8 0 -2
BITMAP
e8
78
70
b8
70
70
38
00
ENDCHAR
STARTCHAR 3131
ENCODING 12593
SWIDTH 822 0
DWIDTH 6 0
BBX 6 8 0 -2
BITMAP
40
98
88
d8
88
88
f8
00
ENDCHAR
STARTCHAR 3132
ENCODING 12594
SWIDTH 822 0
DWIDTH 6 0
BBX 6 8 0 -2
BITMAP
b8
28
a8
78
c8
d8
d8
00
ENDCHAR
STARTCHAR 3133
ENCODING 12595
SWIDTH 822 0
DWIDTH 6 0
BBX 6 8 0 -2
BITMAP
10
d8
f0
d8
c0
50
b8
00
ENDCHAR
STARTCHAR 3134
ENCODING 12596
SWIDTH 822 0
DWIDTH 6 0
BBX 6 8 0 -2
BITMAP
38
e8
b8
a8
f8
00
28
00
ENDCHAR
STARTCHAR 3135
ENCODING 12597
SWIDTH 822 0
DWIDTH 6 0
BBX 6 8 0 -2
BITMAP
68
d8
68
f8
c8
98
c8
00
ENDCHAR
STARTCHAR 3136
ENCODING 12598
SWIDTH 822 0
DWIDTH 6 0
BBX 6 8 0 -2
BITMAP
50
f8
e8
f8
88
e8
58
00
ENDCHAR
STARTCHAR 3137
ENCODING 12599
SWIDTH 822 0
DWIDTH 6 0
BBX 6 8 0 -2
BITMAP
d8
58
f8
f8
e8
10
a8
00
ENDCHAR
STARTCHAR 3138
ENCODING 12600
SWIDTH 822 0
DWIDTH 6 0
BBX 6 8 0 -2
BITMAP
90
b8
d0
f8
e0
50
98
00
ENDCHAR
STARTCHAR 3139
ENCODING 12601
SWIDTH 822 0
DWIDTH 6 0
BBX 6 8 0 -2
BITMAP
f8
b8
d8
d8
b8
d0
a8
00
ENDCHAR
STARTCHAR 313a
ENCODING 12602
SWIDTH 822 0
DWIDTH 6 0
BBX 6 8 0 -2
BITMAP
90
38
90
38
b8
b8
a8
00
ENDCHAR
STARTCHAR 313b
ENCODING 12603
SWIDTH 822 0
DWIDTH 6 0
BBX 6 8 0 -2
BITMAP
18
e0
a8
a8
a8
f8
88
00
ENDCHAR
STARTCHAR 313c
ENCODING 12604
SWIDTH 822 0
DWIDTH 6 0
BBX 6 8 0 -2
BITMAP
d8
d8
88
f8
a8
f8
88
00
ENDCHAR
STARTCHAR 313d
ENCODING 12605
SWIDTH 822 0
DWIDTH 6 0
BBX 6 8 0 -2
BITMAP
28
f8
e8
c8
f8
28
18
00
ENDCHAR
STARTCHAR 313e
ENCODING 12606
SWIDTH 822 0
DWIDTH 6 0
BBX 6 8 0 -2
BITMAP
70
00
f8
20
20
50
e8
00
ENDCHAR
STARTCHAR 313f
ENCODING 12607
SWIDTH 822 0
DWIDTH 6 0
BBX 6 8 0 -2
BITMAP
b8
28
10
b8
b8
90
f8
00
ENDCHAR
STARTCHAR 3140
ENCODING 12608
SWIDTH 822 0
DWIDTH 6 0
BBX 6 8 0 -2
BITMAP
70
f8
a8
70
f8
50
e8
00
ENDCHAR
STARTCHAR 3141
ENCODING 12609
SWIDTH 822 0
DWIDTH 6 0
BBX 6 8 0 -2
BITMAP
50
f8
78
50
f8
50
78
00
ENDCHAR
STARTCHAR 3142
ENCODING 12610
SWIDTH 822 0
DWIDTH 6 0
BBX 6 8 0 -2
BITMAP
40
b8
18
d8
d8
b8
c8
00
ENDCHAR
STARTCHAR 3143
ENCODING 12611
SWIDTH 822 0
DWIDTH 6 0
BBX 6 8 0 -2
BITMAP
58
68
e8
a8
50
f0
68
00
ENDCHAR
STARTCHAR 3144
ENCODING 12612
SWIDTH 822 0
DWIDTH 6 0
BBX 6 8 0 -2
BITMAP
a8
70
d8
70
20
70
70
00
ENDCHAR
STARTCHAR 3145
ENCODING 12613
SWIDTH 822 0
DWIDTH 6 0
BBX 6 8 0 -2
BITMAP
d8
d8
a8
40
f8
50
e8
00
ENDCHAR
STARTCHAR 3146
ENCODING 12614
SWIDTH 822 0
DWIDTH 6 0
BBX 6 8 0 -2
BITMAP
e8
f0
e8
b0
40
e8
50
00
ENDCHAR
STARTCHAR 3147
ENCODING 12615
SWIDTH 822 0
DWIDTH 6 0
BBX 6 8 0 -2
BITMAP
10
f8
e8
f8
d0
10
68
00
ENDCHAR
STARTCHAR 3148
ENCODING 12616
SWIDTH 822 0
DWIDTH 6 0
BBX 6 8 0 -2
BITMAP
20
f0
b0
f0
28
10
e8
00
ENDCHAR
STARTCHAR 3149
ENCODING 12617
SWIDTH 822 0
DWIDTH 6 0
BBX 6 8 0 -2
BITMAP
a8
f8
88
20
f8
70
a8
00
ENDCHAR
STARTCHAR 314a
ENCODING 12618
SWIDTH 822 0
DWIDTH 6 0
BBX 6 8 0 -2
BITMAP
60
00
60
e8
70
a8
60
00
ENDCHAR
STARTCHAR 314b
ENCODING 12619
SWIDTH 822 0
DWIDTH 6 0
BBX 6 8 0 -2
BITMAP
b0
00
b0
78
b0
d8
b0
00
ENDCHAR
STARTCHAR 314c
ENCODING 12620
SWIDTH 822 0
DWIDTH 6 0
BBX 6 8 0 -2
BITMAP
90
38
b8
10
98
90
a8
00
ENDCHAR
STARTCHAR 314d
ENCODING 12621
SWIDTH 822 0
DWIDTH 6 0
BBX 6 8 0 -2
BITMAP
28
f8
50
e8
78
d0
28
00
ENDCHAR
STARTCHAR 314e
ENCODING 12622
SWIDTH 822 0
DWIDTH 6 0
BBX 6 8 0 -2
BITMAP
70
30
58
a8
70
50
f8
00
ENDCHAR
STARTCHAR 314f
ENCODING 12623
SWIDTH 822 0
DWIDTH 6 0
BBX 6 8 0 -2
BITMAP
b8
d0
b8
68
f8
c0
68
00
ENDCHAR
STARTCHAR 3150
ENCODING 12624
SWIDTH 822 0
DWIDTH 6 0
BBX 6 8 0 -2
BITMAP
b8
d0
b8
e8
38
c0
68
00
ENDCHAR
STARTCHAR 3151
ENCODING 12625
SWIDTH 822 0
DWIDTH 6 0
BBX 6 8 0 -2
BITMAP
50
f8
50
a8
f8
20
d8
00
ENDCHAR
STARTCHAR 3152
ENCODING 12626
SWIDTH 822 0
DWIDTH 6 0
BBX 6 8 0 -2
BITMAP
58
b0
58
e8
58
78
58
00
ENDCHAR
STARTCHAR 3153
ENCODING 12627
SWIDTH 822 0
DWIDTH 6 0
BBX 6 8 0 -2
BITMAP
b0
c0
30
d8
30
f8
d0
00
ENDCHAR
STARTCHAR 3154
ENCODING 12628
SWIDTH 822 0
DWIDTH 6 0
BBX 6 8 0 -2
BITMAP
68
b0
e8
78
d0
50
e8
00
ENDCHAR
STARTCHAR 3155
ENCODING 12629
SWIDTH 822 0
DWIDTH 6 0
BBX 6 8 0 -2
BITMAP
90
78
a0
38
e8
b0
a8
00
ENDCHAR
STARTCHAR 3156
ENCODING 12630
SWIDTH 822 0
DWIDTH 6 0
BBX 6 8 0 -2
BITMAP
10
78
d0
68
f8
50
a8
00
ENDCHAR
STARTCHAR 3157
ENCODING 12631
SWIDTH 822 0
DWIDTH 6 0
BBX 6 8 0 -2
BITMAP
50
f8
50
88
70
50
f8
00
ENDCHAR
STARTCHAR 3158
ENCODING 12632
SWIDTH 822 0
DWIDTH 6 0
BBX 6 8 0 -2
BITMAP
d8
98
d8
98
50
d0
68
00
ENDCHAR
STARTCHAR 3159
ENCODING 12633
SWIDTH 822 0
DWIDTH 6 0
BBX 6 8 0 -2
BITMAP
68
d0
e8
78
50
50
68
00
ENDCHAR
STARTCHAR 315a
ENCODING 12634
SWIDTH 822 0
DWIDTH 6 0
BBX 6 8 0 -2
BITMAP
58
d8
00
d8
28
f8
c8
00
ENDCHAR
STARTCHAR 315b
ENCODING 12635
SWIDTH 822 0
DWIDTH 6 0
BBX 6 8 0 -2
BITMAP
50
f8
70
f0
68
c0
b8
00
ENDCHAR
STARTCHAR 315c
ENCODING 12636
SWIDTH 822 0
DWIDTH 6 0
BBX 6 8 0 -2
BITMAP
d8
d8
a8
d8
f8
a8
d8
00
ENDCHAR
STARTCHAR 315d
ENCODING 12637
SWIDTH 822 0
DWIDTH 6 0
BBX 6 8 0 -2
BITMAP
78
d0
58
d8
e8
50
68
00
ENDCHAR
STARTCHAR 315e
ENCODING 12638
SWIDTH 822 0
DWIDTH 6 0
BBX 6 8 0 -2
BITMAP
f8
d0
b8
d0
d0
d0
a8
00
ENDCHAR
STARTCHAR 315f
ENCODING 12639
SWIDTH 822 0
DWIDTH 6 0
BBX 6 8 0 -2
BITMAP
f8
a8
a8
f8
88
88
98
00
ENDCHAR
STARTCHAR 3160
ENCODING 12640
SWIDTH 822 0
DWIDTH 6 0
BBX 6 8 0 -2
BITMAP
f8
a8
d8
a8
f8
a8
f8
00
ENDCHAR
STARTCHAR 3161
ENCODING 12641
SWIDTH 822 0
DWIDTH 6 0
BBX 6 8 0 -2
BITMAP
78
58
d8
68
50
e8
78
00
ENDCHAR
STARTCHAR 3162
ENCODING 12642
SWIDTH 822 0
DWIDTH 6 0
BBX 6 8 0 -2
BITMAP
20
f8
50
a8
70
70
18
00
ENDCHAR
STARTCHAR 3163
ENCODING 12643
SWIDTH 822 0
DWIDTH 6 0
BBX 6 8 0 -2
BITMAP
20
f8
b8
30
f8
50
e8
00
ENDCHAR
STARTCHAR 3164
ENCODING 12644
SWIDTH 822 0
DWIDTH 6 0
BBX 6 8 0 -2
BITMAP
c8
70
98
50
f8
40
b8
00
ENDCHAR
STARTCHAR 3165
ENCODING 12645
SWIDTH 822 0
DWIDTH 6 0
BBX 6 8 0 -2
BITMAP
78
a8
60
b8
00
c8
b8
00
ENDCHAR
STARTCHAR 3166
ENCODING 12646
SWIDTH 822 0
DWIDTH 6 0
BBX 6 8 0 -2
BITMAP
50
f8
50
68
f0
70
d8
00
ENDCHAR
STARTCHAR 3167
ENCODING 12647
SWIDTH 822 0
DWIDTH 6 0
BBX 6 8 0 -2
BITMAP
48
f0
68
58
e8
50
e8
00
ENDCHAR
STARTCHAR 3168
ENCODING 12648
SWIDTH 822 0
DWIDTH 6 0
BBX 6 8 0 -2
BITMAP
a8
28
a8
00
b8
a8
b8
00
ENDCHAR
STARTCHAR 3169
ENCODING 12649
SWIDTH 822 0
DWIDTH 6 0
BBX 6 8 0 -2
BITMAP
90
38
a8
18
98
80
a8
00
ENDCHAR
STARTCHAR 316a
ENCODING 12650
SWIDTH 822 0
DWIDTH 6 0
BBX 6 8 0 -2
BITMAP
a8
50
88
20
a8
50
88
00
ENDCHAR
STARTCHAR 316b
ENCODING 12651
SWIDTH 822 0
DWIDTH 6 0
BBX 6 8 0 -2
BITMAP
58
68
d0
d8
58
58
98
00
ENDCHAR
STARTCHAR 316c
ENCODING 12652
SWIDTH 822 0
DWIDTH 6 0
BBX 6 8 0 -2
BITMAP
78
50
f8
f8
78
50
b8
00
ENDCHAR
STARTCHAR 316d
ENCODING 12653
SWIDTH 822 0
DWIDTH 6 0
BBX 6 8 0 -2
BITMAP
50
f8
70
50
f8
00
a8
00
ENDCHAR
STARTCHAR 316e
ENCODING 12654
SWIDTH 822 0
DWIDTH 6 0
BBX 6 8 0 -2
BITMAP
90
78
b8
68
b8
30
e8
00
ENDCHAR
STARTCHAR 316f
ENCODING 12655
SWIDTH 822 0
DWIDTH 6 0
BBX 6 8 0 -2
BITMAP
58
88
78
90
68
d8
68
00
ENDCHAR
STARTCHAR 3170
ENCODING 12656
SWIDTH 822 0
DWIDTH 6 0
BBX 6 8 0 -2
BITMAP
58
e8
f0
b8
f8
60
f8
00
ENDCHAR
STARTCHAR 3171
ENCODING 12657
SWIDTH 822 0
DWIDTH 6 0
BBX 6 8 0 -2
BITMAP
50
f8
50
78
a8
60
b8
00
ENDCHAR
STARTCHAR 3172
ENCODING 12658
SWIDTH 822 0
DWIDTH 6 0
BBX 6 8 0 -2
BITMAP
50
f8
d8
a8
f8
a8
f8
00
ENDCHAR
STARTCHAR 3173
ENCODING 12659
SWIDTH 822 0
DWIDTH 6 0
BBX 6 8 0 -2
BITMAP
90
38
78
a8
b8
d0
f8
00
ENDCHAR
STARTCHAR 3174
ENCODING 12660
SWIDTH 822 0
DWIDTH 6 0
BBX 6 8 0 -2
BITMAP
40
a8
e8
40
f8
68
f8
00
ENDCHAR
STARTCHAR 3175
ENCODING 12661
SWIDTH 822 0
DWIDTH 6 0
BBX 6 8 0 -2
BITMAP
78
a8
60
b8
38
08
a8
00
ENDCHAR
STARTCHAR 3176
ENCODING 12662
SWIDTH 822 0
DWIDTH 6 0
BBX 6 8 0 -2
BITMAP
50
58
f8
58
40
d8
38
00
ENDCHAR
STARTCHAR 3177
ENCODING 12663
SWIDTH 822 0
DWIDTH 6 0
BBX 6 8 0 -2
BITMAP
50
e8
40
68
60
a0
a8
00
ENDCHAR
STARTCHAR 3178
ENCODING 12664
SWIDTH 822 0
DWIDTH 6 0
BBX 6 8 0 -2
BITMAP
b8
10
b8
10
58
88
98
00
ENDCHAR
STARTCHAR 3179
ENCODING 12665
SWIDTH 822 0
DWIDTH 6 0
BBX 6 8 0 -2
BITMAP
b8
f8
78
d0
78
d8
28
00
ENDCHAR
STARTCHAR 317a
ENCODING 12666
SWIDTH 822 0
DWIDTH 6 0
BBX 6 8 0 -2
BITMAP
d8
d8
d8
f8
88
88
f8
00
ENDCHAR
STARTCHAR 317b
ENCODING 12667
SWIDTH 822 0
DWIDTH 6 0
BBX 6 8 0 -2
BITMAP
20
70
50
f8
20
20
d8
00
ENDCHAR
STARTCHAR 317c
ENCODING 12668
SWIDTH 822 0
DWIDTH 6 0
BBX 6 8 0 -2
BITMAP
20
78
58
68
f8
20
d8
00
ENDCHAR
STARTCHAR 317d
ENCODING 12669
SWIDTH 822 0
DWIDTH 6 0
BBX 6 8 0 -2
BITMAP
50
80
78
d0
78
50
78
00
ENDCHAR
STARTCHAR 317e
ENCODING 12670
SWIDTH 822 0
DWIDTH 6 0
BBX 6 8 0 -2
BITMAP
20
f8
90
80
a8
e0
b8
00
ENDCHAR
STARTCHAR 3221
ENCODING 12833
SWIDTH 822 0
DWIDTH 6 0
BBX 6 8 0 -2
BITMAP
78
e8
78
68
f8
50
d0
00
ENDCHAR
STARTCHAR 3222
ENCODING 12834
SWIDTH 822 0
DWIDTH 6 0
BBX 6 8 0 -2
BITMAP
38
d0
d0
f8
d0
d0
38
00
ENDCHAR
STARTCHAR 3223
ENCODING 12835
SWIDTH 822 0
DWIDTH 6 0
BBX 6 8 0 -2
BITMAP
68
f8
68
f8
d8
40
68
00
ENDCHAR
STARTCHAR 3224
ENCODING 12836
SWIDTH 822 0
DWIDTH 6 0
BBX 6 8 0 -2
BITMAP
f0
98
c8
b0
d0
90
e8
00
ENDCHAR
STARTCHAR 3225
ENCODING 12837
SWIDTH 822 0
DWIDTH 6 0
BBX 6 8 0 -2
BITMAP
f8
a8
c0
b8
e8
90
e8
00
ENDCHAR
STARTCHAR 3226
ENCODING 12838
SWIDTH 822 0
DWIDTH 6 0
BBX 6 8 0 -2
BITMAP
f8
20
20
70
20
20
f8
00
ENDCHAR
STARTCHAR 3227
ENCODING 12839
SWIDTH 822 0
DWIDTH 6 0
BBX 6 8 0 -2
BITMAP
50
88
40
f8
a8
78
a8
00
ENDCHAR
STARTCHAR 3228
ENCODING 12840
SWIDTH 822 0
DWIDTH 6 0
BBX 6 8 0 -2
BITMAP
50
f8
78
b8
78
50
68
00
ENDCHAR
STARTCHAR 3229
ENCODING 12841
SWIDTH 822 0
DWIDTH 6 0
BBX 6 8 0 -2
BITMAP
a8
f8
a8
60
78
08
a8
00
ENDCHAR
STARTCHAR 322a
ENCODING 12842
SWIDTH 822 0
DWIDTH 6 0
BBX 6 8 0 -2
BITMAP
e8
98
d8
b0
d8
88
e8
00
ENDCHAR
STARTCHAR 322b
ENCODING 12843
SWIDTH 822 0
DWIDTH 6 0
BBX 6 8 0 -2
BITMAP
50
f8
50
f8
70
70
88
00
ENDCHAR
STARTCHAR 322c
ENCODING 12844
SWIDTH 822 0
DWIDTH 6 0
BBX 6 8 0 -2
BITMAP
f8
88
d8
a8
d8
f8
88
00
ENDCHAR
STARTCHAR 322d
ENCODING 12845
SWIDTH 822 0
DWIDTH 6 0
BBX 6 8 0 -2
BITMAP
90
78
d8
58
f8
90
90
00
ENDCHAR
STARTCHAR 322e
ENCODING 12846
SWIDTH 822 0
DWIDTH 6 0
BBX 6 8 0 -2
BITMAP
50
f8
90
78
d0
50
a8
00
ENDCHAR
STARTCHAR 322f
ENCODING 12847
SWIDTH 822 0
DWIDTH 6 0
BBX 6 8 0 -2
BITMAP
50
78
e8
f8
58
60
58
00
ENDCHAR
STARTCHAR 3230
ENCODING 12848
SWIDTH 822 0
DWIDTH 6 0
BBX 6 8 0 -2
BITMAP
f8
f8
90
a8
b8
90
b8
00
ENDCHAR
STARTCHAR 3231
ENCODING 12849
SWIDTH 822 0
DWIDTH 6 0
BBX 6 8 0 -2
BITMAP
50
f8
e8
78
58
60
58
00
ENDCHAR
STARTCHAR 3232
ENCODING 12850
SWIDTH 822 0
DWIDTH 6 0
BBX 6 8 0 -2
BITMAP
d0
f8
e8
f8
d8
e0
d8
00
ENDCHAR
STARTCHAR 3233
ENCODING 12851
SWIDTH 822 0
DWIDTH 6 0
BBX 6 8 0 -2
BITMAP
70
d0
78
e8
f8
68
68
00
ENDCHAR
STARTCHAR 3234
ENCODING 12852
SWIDTH 822 0
DWIDTH 6 0
BBX 6 8 0 -2
BITMAP
d0
d0
f8
50
d0
50
78
00
ENDCHAR
STARTCHAR 3235
ENCODING 12853
SWIDTH 822 0
DWIDTH 6 0
BBX 6 8 0 -2
BITMAP
70
10
20
40
80
88
78
00
ENDCHAR
STARTCHAR 3236
ENCODING 12854
SWIDTH 822 0
DWIDTH 6 0
BBX 6 8 0 -2
BITMAP
50
78
d0
e8
70
70
58
00
ENDCHAR
STARTCHAR 3237
ENCODING 12855
SWIDTH 822 0
DWIDTH 6 0
BBX 6 8 0 -2
BITMAP
98
f8
58
f8
58
f0
d0
00
ENDCHAR
STARTCHAR 3238
ENCODING 12856
SWIDTH 822 0
DWIDTH 6 0
BBX 6 8 0 -2
BITMAP
f8
a8
d8
f8
00
c8
b8
00
ENDCHAR
STARTCHAR 3239
ENCODING 12857
SWIDTH 822 0
DWIDTH 6 0
BBX 6 8 0 -2
BITMAP
b8
28
b8
00
b8
a8
f8
00
ENDCHAR
STARTCHAR 323a
ENCODING 12858
SWIDTH 822 0
DWIDTH 6 0
BBX 6 8 0 -2
BITMAP
c8
70
e8
58
d8
e0
58
00
ENDCHAR
STARTCHAR 323b
ENCODING 12859
SWIDTH 822 0
DWIDTH 6 0
BBX 6 8 0 -2
BITMAP
20
f8
50
f8
70
50
70
00
ENDCHAR
STARTCHAR 323c
ENCODING 12860
SWIDTH 822 0
DWIDTH 6 0
BBX 6 8 0 -2
BITMAP
f8
20
30
28
20
20
20
00
ENDCHAR
STARTCHAR 323d
ENCODING 12861
SWIDTH 822 0
DWIDTH 6 0
BBX 6 8 0 -2
BITMAP
30
50
d0
58
50
50
58
00
ENDCHAR
STARTCHAR 323e
ENCODING 12862
SWIDTH 822 0
DWIDTH 6 0
BBX 6 8 0 -2
BITMAP
38
60
f8
68
68
50
68
00
ENDCHAR
STARTCHAR 323f
ENCODING 12863
SWIDTH 822 0
DWIDTH 6 0
BBX 6 8 0 -2
BITMAP
38
48
f8
68
78
48
58
00
ENDCHAR
STARTCHAR 3240
ENCODING 12864
SWIDTH 822 0
DWIDTH 6 0
BBX 6 8 0 -2
BITMAP
50
78
d8
d8
78
78
58
00
ENDCHAR
STARTCHAR 3241
ENCODING 12865
SWIDTH 822 0
DWIDTH 6 0
BBX 6 8 0 -2
BITMAP
38
50
f8
68
68
68
78
00
ENDCHAR
STARTCHAR 3242
ENCODING 12866
SWIDTH 822 0
DWIDTH 6 0
BBX 6 8 0 -2
BITMAP
50
78
d0
f8
50
50
78
00
ENDCHAR
STARTCHAR 3243
ENCODING 12867
SWIDTH 822 0
DWIDTH 6 0
BBX 6 8 0 -2
BITMAP
40
f8
68
68
68
a8
b8
00
ENDCHAR
STARTCHAR 3244
ENCODING 12868
SWIDTH 822 0
DWIDTH 6 0
BBX 6 8 0 -2
BITMAP
f8
10
70
50
70
10
30
00
ENDCHAR
STARTCHAR 3245
ENCODING 12869
SWIDTH 822 0
DWIDTH 6 0
BBX 6 8 0 -2
BITMAP
20
f8
70
50
f8
68
b8
00
ENDCHAR
STARTCHAR 3246
ENCODING 12870
SWIDTH 822 0
DWIDTH 6 0
BBX 6 8 0 -2
BITMAP
f8
20
70
70
d0
20
d8
00
ENDCHAR
STARTCHAR 3247
ENCODING 12871
SWIDTH 822 0
DWIDTH 6 0
BBX 6 8 0 -2
BITMAP
90
b8
e8
d0
e8
58
a8
00
ENDCHAR
STARTCHAR 3248
ENCODING 12872
SWIDTH 822 0
DWIDTH 6 0
BBX 6 8 0 -2
BITMAP
20
f8
88
70
68
b0
68
00
ENDCHAR
STARTCHAR 3249
ENCODING 12873
SWIDTH 822 0
DWIDTH 6 0
BBX 6 8 0 -2
BITMAP
20
f8
b8
30
f8
50
a8
00
ENDCHAR
STARTCHAR 324a
ENCODING 12874
SWIDTH 822 0
DWIDTH 6 0
BBX 6 8 0 -2
BITMAP
c8
68
c8
68
c8
f8
48
00
ENDCHAR
STARTCHAR 324b
ENCODING 12875
SWIDTH 822 0
DWIDTH 6 0
BBX 6 8 0 -2
BITMAP
78
e8
c8
f8
e8
50
68
00
ENDCHAR
STARTCHAR 324c
ENCODING 12876
SWIDTH 822 0
DWIDTH 6 0
BBX 6 8 0 -2
BITMAP
f8
a8
f8
20
f8
70
a8
00
ENDCHAR
STARTCHAR 324d
ENCODING 12877
SWIDTH 822 0
DWIDTH 6 0
BBX 6 8 0 -2
BITMAP
40
f8
68
b8
f8
70
a8
00
ENDCHAR
STARTCHAR 324e
ENCODING 12878
SWIDTH 822 0
DWIDTH 6 0
BBX 6 8 0 -2
BITMAP
f0
38
a8
f0
30
b0
68
00
ENDCHAR
STARTCHAR 324f
ENCODING 12879
SWIDTH 822 0
DWIDTH 6 0
BBX 6 8 0 -2
BITMAP
b8
08
b8
28
b8
88
98
00
ENDCHAR
STARTCHAR 3250
ENCODING 12880
SWIDTH 822 0
DWIDTH 6 0
BBX 6 8 0 -2
BITMAP
20
68
70
a0
20
50
88
00
ENDCHAR
STARTCHAR 3251
ENCODING 12881
SWIDTH 822 0
DWIDTH 6 0
BBX 6 8 0 -2
BITMAP
38
c8
78
e8
78
c8
18
00
ENDCHAR
STARTCHAR 3252
ENCODING 12882
SWIDTH 822 0
DWIDTH 6 0
BBX 6 8 0 -2
BITMAP
58
e8
28
78
c8
58
58
00
ENDCHAR
STARTCHAR 3253
ENCODING 12883
SWIDTH 822 0
DWIDTH 6 0
BBX 6 8 0 -2
BITMAP
10
60
f8
20
70
a8
20
00
ENDCHAR
STARTCHAR 3254
ENCODING 12884
SWIDTH 822 0
DWIDTH 6 0
BBX 6 8 0 -2
BITMAP
d0
78
e8
50
e8
d8
68
00
ENDCHAR
STARTCHAR 3255
ENCODING 12885
SWIDTH 822 0
DWIDTH 6 0
BBX 6 8 0 -2
BITMAP
90
d8
48
f8
a8
d8
f8
00
ENDCHAR
STARTCHAR 3256
ENCODING 12886
SWIDTH 822 0
DWIDTH 6 0
BBX 6 8 0 -2
BITMAP
50
f8
10
58
d0
50
58
00
ENDCHAR
STARTCHAR 3257
ENCODING 12887
SWIDTH 822 0
DWIDTH 6 0
BBX 6 8 0 -2
BITMAP
50
f8
50
f8
08
68
68
00
ENDCHAR
STARTCHAR 3258
ENCODING 12888
SWIDTH 822 0
DWIDTH 6 0
BBX 6 8 0 -2
BITMAP
50
f8
50
40
f8
68
b8
00
ENDCHAR
STARTCHAR 3259
ENCODING 12889
SWIDTH 822 0
DWIDTH 6 0
BBX 6 8 0 -2
BITMAP
50
f8
50
78
c8
68
68
00
ENDCHAR
STARTCHAR 325a
ENCODING 12890
SWIDTH 822 0
DWIDTH 6 0
BBX 6 8 0 -2
BITMAP
50
f8
70
f8
70
f8
20
00
ENDCHAR
STARTCHAR 325b
ENCODING 12891
SWIDTH 822 0
DWIDTH 6 0
BBX 6 8 0 -2
BITMAP
50
f8
70
70
f8
70
a8
00
ENDCHAR
STARTCHAR 325c
ENCODING 12892
SWIDTH 822 0
DWIDTH 6 0
BBX 6 8 0 -2
BITMAP
78
e8
c8
f8
68
50
e8
00
ENDCHAR
STARTCHAR 325d
ENCODING 12893
SWIDTH 822 0
DWIDTH 6 0
BBX 6 8 0 -2
BITMAP
b8
f8
38
d0
38
f8
d0
00
ENDCHAR
STARTCHAR 325e
ENCODING 12894
SWIDTH 822 0
DWIDTH 6 0
BBX 6 8 0 -2
BITMAP
28
f8
b0
b8
f0
38
10
00
ENDCHAR
STARTCHAR 325f
ENCODING 12895
SWIDTH 822 0
DWIDTH 6 0
BBX 6 8 0 -2
BITMAP
50
58
d0
78
70
70
88
00
ENDCHAR
STARTCHAR 3260
ENCODING 12896
SWIDTH 822 0
DWIDTH 6 0
BBX 6 8 0 -2
BITMAP
a0
78
38
b8
d8
80
f8
00
ENDCHAR
STARTCHAR 3261
ENCODING 12897
SWIDTH 822 0
DWIDTH 6 0
BBX 6 8 0 -2
BITMAP
b8
28
28
b8
c8
d8
f8
00
ENDCHAR
STARTCHAR 3262
ENCODING 12898
SWIDTH 822 0
DWIDTH 6 0
BBX 6 8 0 -2
BITMAP
70
f8
a8
00
b8
d0
a8
00
ENDCHAR
STARTCHAR 3263
ENCODING 12899
SWIDTH 822 0
DWIDTH 6 0
BBX 6 8 0 -2
BITMAP
50
f8
a8
e8
50
50
e8
00
ENDCHAR
STARTCHAR 3264
ENCODING 12900
SWIDTH 822 0
DWIDTH 6 0
BBX 6 8 0 -2
BITMAP
78
50
f8
d0
58
70
48
00
ENDCHAR
STARTCHAR 3265
ENCODING 12901
SWIDTH 822 0
DWIDTH 6 0
BBX 6 8 0 -2
BITMAP
78
50
78
d0
d8
f0
08
00
ENDCHAR
STARTCHAR 3266
ENCODING 12902
SWIDTH 822 0
DWIDTH 6 0
BBX 6 8 0 -2
BITMAP
38
d0
f8
50
58
f0
48
00
ENDCHAR
STARTCHAR 3267
ENCODING 12903
SWIDTH 822 0
DWIDTH 6 0
BBX 6 8 0 -2
BITMAP
78
50
50
f8
30
d0
30
00
ENDCHAR
STARTCHAR 3268
ENCODING 12904
SWIDTH 822 0
DWIDTH 6 0
BBX 6 8 0 -2
BITMAP
f8
20
a8
b8
b8
88
f8
00
ENDCHAR
STARTCHAR 3269
ENCODING 12905
SWIDTH 822 0
DWIDTH 6 0
BBX 6 8 0 -2
BITMAP
d0
90
d0
d0
d0
90
e8
00
ENDCHAR
STARTCHAR 326a
ENCODING 12906
SWIDTH 822 0
DWIDTH 6 0
BBX 6 8 0 -2
BITMAP
50
f8
78
50
f8
50
b0
00
ENDCHAR
STARTCHAR 326b
ENCODING 12907
SWIDTH 822 0
DWIDTH 6 0
BBX 6 8 0 -2
BITMAP
78
d0
f8
d0
58
70
c8
00
ENDCHAR
STARTCHAR 326c
ENCODING 12908
SWIDTH 822 0
DWIDTH 6 0
BBX 6 8 0 -2
BITMAP
40
f8
68
b8
70
70
88
00
ENDCHAR
STARTCHAR 326d
ENCODING 12909
SWIDTH 822 0
DWIDTH 6 0
BBX 6 8 0 -2
BITMAP
e8
b8
b0
f8
70
b0
78
00
ENDCHAR
STARTCHAR 326e
ENCODING 12910
SWIDTH 822 0
DWIDTH 6 0
BBX 6 8 0 -2
BITMAP
58
b0
38
d0
d8
b0
c8
00
ENDCHAR
STARTCHAR 326f
ENCODING 12911
SWIDTH 822 0
DWIDTH 6 0
BBX 6 8 0 -2
BITMAP
40
f8
68
b8
38
08
a8
00
ENDCHAR
STARTCHAR 3270
ENCODING 12912
SWIDTH 822 0
DWIDTH 6 0
BBX 6 8 0 -2
BITMAP
20
50
88
50
50
50
90
00
ENDCHAR
STARTCHAR 3271
ENCODING 12913
SWIDTH 822 0
DWIDTH 6 0
BBX 6 8 0 -2
BITMAP
20
50
b8
00
f8
50
e8
00
ENDCHAR
STARTCHAR 3272
ENCODING 12914
SWIDTH 822 0
DWIDTH 6 0
BBX 6 8 0 -2
BITMAP
78
a8
60
78
68
78
a8
00
ENDCHAR
STARTCHAR 3273
ENCODING 12915
SWIDTH 822 0
DWIDTH 6 0
BBX 6 8 0 -2
BITMAP
f8
88
f8
d8
f8
88
f8
00
ENDCHAR
STARTCHAR 3274
ENCODING 12916
SWIDTH 822 0
DWIDTH 6 0
BBX 6 8 0 -2
BITMAP
50
78
f8
78
50
d0
28
00
ENDCHAR
STARTCHAR 3275
ENCODING 12917
SWIDTH 822 0
DWIDTH 6 0
BBX 6 8 0 -2
BITMAP
50
78
f8
50
78
f0
28
00
ENDCHAR
STARTCHAR 3276
ENCODING 12918
SWIDTH 822 0
DWIDTH 6 0
BBX 6 8 0 -2
BITMAP
d8
58
98
58
d8
40
b8
00
ENDCHAR
STARTCHAR 3277
ENCODING 12919
SWIDTH 822 0
DWIDTH 6 0
BBX 6 8 0 -2
BITMAP
50
f8
d8
78
50
50
68
00
ENDCHAR
STARTCHAR 3278
ENCODING 12920
SWIDTH 822 0
DWIDTH 6 0
BBX 6 8 0 -2
BITMAP
78
e8
d0
68
78
50
78
00
ENDCHAR
STARTCHAR 3279
ENCODING 12921
SWIDTH 822 0
DWIDTH 6 0
BBX 6 8 0 -2
BITMAP
60
f8
d8
58
68
78
48
00
ENDCHAR
STARTCHAR 327a
ENCODING 12922
SWIDTH 822 0
DWIDTH 6 0
BBX 6 8 0 -2
BITMAP
78
d0
f8
70
50
50
68
00
ENDCHAR
STARTCHAR 327b
ENCODING 12923
SWIDTH 822 0
DWIDTH 6 0
BBX 6 8 0 -2
BITMAP
50
f8
f8
50
78
70
68
00
ENDCHAR
STARTCHAR 327c
ENCODING 12924
SWIDTH 822 0
DWIDTH 6 0
BBX 6 8 0 -2
BITMAP
10
f8
10
b0
f8
b0
a8
00
ENDCHAR
STARTCHAR 327d
ENCODING 12925
SWIDTH 822 0
DWIDTH 6 0
BBX 6 8 0 -2
BITMAP
78
e8
78
40
f8
58
e8
00
ENDCHAR
STARTCHAR 327e
ENCODING 12926
SWIDTH 822 0
DWIDTH 6 0
BBX 6 8 0 -2
BITMAP
d0
58
e8
a8
a8
d0
28
00
ENDCHAR
STARTCHAR 3321
ENCODING 13089
SWIDTH 822 0
DWIDTH 6 0
BBX 6 8 0 -2
BITMAP
68
c8
e8
c8
78
48
b8
00
ENDCHAR
STARTCHAR 3322
ENCODING 13090
SWIDTH 822 0
DWIDTH 6 0
BBX 6 8 0 -2
BITMAP
20
f8
d8
d8
e8
f8
08
00
ENDCHAR
STARTCHAR 3323
ENCODING 13091
SWIDTH 822 0
DWIDTH 6 0
BBX 6 8 0 -2
BITMAP
50
f8
50
f0
d8
50
48
00
ENDCHAR
STARTCHAR 3324
ENCODING 13092
SWIDTH 822 0
DWIDTH 6 0
BBX 6 8 0 -2
BITMAP
a0
38
98
18
a8
b8
88
00
ENDCHAR
STARTCHAR 3325
ENCODING 13093
SWIDTH 822 0
DWIDTH 6 0
BBX 6 8 0 -2
BITMAP
f8
90
d8
d0
90
90
a8
00
ENDCHAR
STARTCHAR 3326
ENCODING 13094
SWIDTH 822 0
DWIDTH 6 0
BBX 6 8 0 -2
BITMAP
f8
a8
f8
50
d8
50
90
00
ENDCHAR
STARTCHAR 3327
ENCODING 13095
SWIDTH 822 0
DWIDTH 6 0
BBX 6 8 0 -2
BITMAP
90
d8
90
d8
20
70
70
00
ENDCHAR
STARTCHAR 3328
ENCODING 13096
SWIDTH 822 0
DWIDTH 6 0
BBX 6 8 0 -2
BITMAP
50
a8
78
80
78
e0
78
00
ENDCHAR
STARTCHAR 3329
ENCODING 13097
SWIDTH 822 0
DWIDTH 6 0
BBX 6 8 0 -2
BITMAP
50
f8
20
50
d8
50
90
00
ENDCHAR
STARTCHAR 332a
ENCODING 13098
SWIDTH 822 0
DWIDTH 6 0
BBX 6 8 0 -2
BITMAP
58
c8
d8
70
70
28
f8
00
ENDCHAR
STARTCHAR 332b
ENCODING 13099
SWIDTH 822 0
DWIDTH 6 0
BBX 6 8 0 -2
BITMAP
d8
d8
88
f8
f8
d8
88
00
ENDCHAR
STARTCHAR 332c
ENCODING 13100
SWIDTH 822 0
DWIDTH 6 0
BBX 6 8 0 -2
BITMAP
d0
d8
90
d8
e0
b8
b8
00
ENDCHAR
STARTCHAR 332d
ENCODING 13101
SWIDTH 822 0
DWIDTH 6 0
BBX 6 8 0 -2
BITMAP
f8
88
f8
88
f8
00
88
00
ENDCHAR
STARTCHAR 332e
ENCODING 13102
SWIDTH 822 0
DWIDTH 6 0
BBX 6 8 0 -2
BITMAP
b8
e8
28
e8
a8
68
e8
00
ENDCHAR
STARTCHAR 332f
ENCODING 13103
SWIDTH 822 0
DWIDTH 6 0
BBX 6 8 0 -2
BITMAP
50
f8
98
58
b8
58
a8
00
ENDCHAR
STARTCHAR 3330
ENCODING 13104
SWIDTH 822 0
DWIDTH 6 0
BBX 6 8 0 -2
BITMAP
50
70
b0
78
30
50
90
00
ENDCHAR
STARTCHAR 3331
ENCODING 13105
SWIDTH 822 0
DWIDTH 6 0
BBX 6 8 0 -2
BITMAP
10
f8
e0
d0
e8
10
68
00
ENDCHAR
STARTCHAR 3332
ENCODING 13106
SWIDTH 822 0
DWIDTH 6 0
BBX 6 8 0 -2
BITMAP
20
f8
a8
70
20
f8
70
00
ENDCHAR
STARTCHAR 3333
ENCODING 13107
SWIDTH 822 0
DWIDTH 6 0
BBX 6 8 0 -2
BITMAP
a8
f8
b8
90
b8
90
b8
00
ENDCHAR
STARTCHAR 3334
ENCODING 13108
SWIDTH 822 0
DWIDTH 6 0
BBX 6 8 0 -2
BITMAP
58
e8
e8
58
70
50
68
00
ENDCHAR
STARTCHAR 3335
ENCODING 13109
SWIDTH 822 0
DWIDTH 6 0
BBX 6 8 0 -2
BITMAP
58
e8
68
d8
f0
50
68
00
ENDCHAR
STARTCHAR 3336
ENCODING 13110
SWIDTH 822 0
DWIDTH 6 0
BBX 6 8 0 -2
BITMAP
f8
50
f8
50
f8
d0
b8
00
ENDCHAR
STARTCHAR 3337
ENCODING 13111
SWIDTH 822 0
DWIDTH 6 0
BBX 6 8 0 -2
BITMAP
d8
58
78
88
78
68
18
00
ENDCHAR
STARTCHAR 3338
ENCODING 13112
SWIDTH 822 0
DWIDTH 6 0
BBX 6 8 0 -2
BITMAP
50
f8
70
e8
70
50
f8
00
ENDCHAR
STARTCHAR 3339
ENCODING 13113
SWIDTH 822 0
DWIDTH 6 0
BBX 6 8 0 -2
BITMAP
58
b0
58
f8
58
78
48
00
ENDCHAR
STARTCHAR 333a
ENCODING 13114
SWIDTH 822 0
DWIDTH 6 0
BBX 6 8 0 -2
BITMAP
90
f8
20
90
28
d0
e8
00
ENDCHAR
STARTCHAR 333b
ENCODING 13115
SWIDTH 822 0
DWIDTH 6 0
BBX 6 8 0 -2
BITMAP
68
b8
c0
78
e8
50
f8
00
ENDCHAR
STARTCHAR 333c
ENCODING 13116
SWIDTH 822 0
DWIDTH 6 0
BBX 6 8 0 -2
BITMAP
68
78
e8
90
68
70
68
00
ENDCHAR
STARTCHAR 333d
ENCODING 13117
SWIDTH 822 0
DWIDTH 6 0
BBX 6 8 0 -2
BITMAP
b8
38
b8
10
b8
90
b8
00
ENDCHAR
STARTCHAR 333e
ENCODING 13118
SWIDTH 822 0
DWIDTH 6 0
BBX 6 8 0 -2
BITMAP
58
e8
50
a8
70
d8
70
00
ENDCHAR
STARTCHAR 333f
ENCODING 13119
SWIDTH 822 0
DWIDTH 6 0
BBX 6 8 0 -2
BITMAP
50
f8
d0
f8
50
50
f8
00
ENDCHAR
STARTCHAR 3340
ENCODING 13120
SWIDTH 822 0
DWIDTH 6 0
BBX 6 8 0 -2
BITMAP
78
40
d8
58
58
c0
38
00
ENDCHAR
STARTCHAR 3341
ENCODING 13121
SWIDTH 822 0
DWIDTH 6 0
BBX 6 8 0 -2
BITMAP
50
f8
50
f8
d8
58
50
00
ENDCHAR
STARTCHAR 3342
ENCODING 13122
SWIDTH 822 0
DWIDTH 6 0
BBX 6 8 0 -2
BITMAP
78
c0
f8
d0
58
68
e8
00
ENDCHAR
STARTCHAR 3343
ENCODING 13123
SWIDTH 822 0
DWIDTH 6 0
BBX 6 8 0 -2
BITMAP
60
b8
c8
58
e8
78
c8
00
ENDCHAR
STARTCHAR 3344
ENCODING 13124
SWIDTH 822 0
DWIDTH 6 0
BBX 6 8 0 -2
BITMAP
48
e8
78
e8
68
78
c8
00
ENDCHAR
STARTCHAR 3345
ENCODING 13125
SWIDTH 822 0
DWIDTH 6 0
BBX 6 8 0 -2
BITMAP
10
f8
d0
f8
f8
38
58
00
ENDCHAR
STARTCHAR 3346
ENCODING 13126
SWIDTH 822 0
DWIDTH 6 0
BBX 6 8 0 -2
BITMAP
30
50
20
50
f8
50
70
00
ENDCHAR
STARTCHAR 3347
ENCODING 13127
SWIDTH 822 0
DWIDTH 6 0
BBX 6 8 0 -2
BITMAP
20
f8
d8
f0
b8
f8
d0
00
ENDCHAR
STARTCHAR 3348
ENCODING 13128
SWIDTH 822 0
DWIDTH 6 0
BBX 6 8 0 -2
BITMAP
50
f8
40
50
d0
68
f8
00
ENDCHAR
STARTCHAR 3349
ENCODING 13129
SWIDTH 822 0
DWIDTH 6 0
BBX 6 8 0 -2
BITMAP
68
f8
68
58
d8
50
e8
00
ENDCHAR
STARTCHAR 334a
ENCODING 13130
SWIDTH 822 0
DWIDTH 6 0
BBX 6 8 0 -2
BITMAP
58
e8
50
e8
c0
58
58
00
ENDCHAR
STARTCHAR 334b
ENCODING 13131
SWIDTH 822 0
DWIDTH 6 0
BBX 6 8 0 -2
BITMAP
50
f8
60
d0
e8
50
68
00
ENDCHAR
STARTCHAR 334c
ENCODING 13132
SWIDTH 822 0
DWIDTH 6 0
BBX 6 8 0 -2
BITMAP
58
e8
40
f8
a8
50
a8
00
ENDCHAR
STARTCHAR 334d
ENCODING 13133
SWIDTH 822 0
DWIDTH 6 0
BBX 6 8 0 -2
BITMAP
a8
78
b0
78
e8
50
a8
00
ENDCHAR
STARTCHAR 334e
ENCODING 13134
SWIDTH 822 0
DWIDTH 6 0
BBX 6 8 0 -2
BITMAP
d0
78
68
90
78
70
38
00
ENDCHAR
STARTCHAR 334f
ENCODING 13135
SWIDTH 822 0
DWIDTH 6 0
BBX 6 8 0 -2
BITMAP
e8
78
f0
78
e8
d0
68
00
ENDCHAR
STARTCHAR 3350
ENCODING 13136
SWIDTH 822 0
DWIDTH 6 0
BBX 6 8 0 -2
BITMAP
a8
70
d8
70
50
70
98
00
ENDCHAR
STARTCHAR 3351
ENCODING 13137
SWIDTH 822 0
DWIDTH 6 0
BBX 6 8 0 -2
BITMAP
30
d0
78
68
78
48
98
00
ENDCHAR
STARTCHAR 3352
ENCODING 13138
SWIDTH 822 0
DWIDTH 6 0
BBX 6 8 0 -2
BITMAP
50
f8
50
f8
d8
58
a8
00
ENDCHAR
STARTCHAR 3353
ENCODING 13139
SWIDTH 822 0
DWIDTH 6 0
BBX 6 8 0 -2
BITMAP
d0
78
e8
c0
68
d0
68
00
ENDCHAR
STARTCHAR 3354
ENCODING 13140
SWIDTH 822 0
DWIDTH 6 0
BBX 6 8 0 -2
BITMAP
58
f8
b0
f8
58
f0
50
00
ENDCHAR
STARTCHAR 3355
ENCODING 13141
SWIDTH 822 0
DWIDTH 6 0
BBX 6 8 0 -2
BITMAP
d8
d8
b8
d8
a8
f8
b8
00
ENDCHAR
STARTCHAR 3356
ENCODING 13142
SWIDTH 822 0
DWIDTH 6 0
BBX 6 8 0 -2
BITMAP
f8
d8
98
c0
f8
b8
a8
00
ENDCHAR
STARTCHAR 3357
ENCODING 13143
SWIDTH 822 0
DWIDTH 6 0
BBX 6 8 0 -2
BITMAP
50
f8
20
70
70
f8
20
00
ENDCHAR
STARTCHAR 3358
ENCODING 13144
SWIDTH 822 0
DWIDTH 6 0
BBX 6 8 0 -2
BITMAP
a8
f8
b8
10
f8
20
60
00
ENDCHAR
STARTCHAR 3359
ENCODING 13145
SWIDTH 822 0
DWIDTH 6 0
BBX 6 8 0 -2
BITMAP
10
60
50
f8
20
a8
f8
00
ENDCHAR
STARTCHAR 335a
ENCODING 13146
SWIDTH 822 0
DWIDTH 6 0
BBX 6 8 0 -2
BITMAP
a8
50
d8
20
f8
70
a8
00
ENDCHAR
STARTCHAR 335b
ENCODING 13147
SWIDTH 822 0
DWIDTH 6 0
BBX 6 8 0 -2
BITMAP
58
f0
b8
58
b8
60
68
00
ENDCHAR
STARTCHAR 335c
ENCODING 13148
SWIDTH 822 0
DWIDTH 6 0
BBX 6 8 0 -2
BITMAP
b8
b0
18
f8
58
60
28
00
ENDCHAR
STARTCHAR 335d
ENCODING 13149
SWIDTH 822 0
DWIDTH 6 0
BBX 6 8 0 -2
BITMAP
50
f0
50
78
d0
70
d0
00
ENDCHAR
STARTCHAR 335e
ENCODING 13150
SWIDTH 822 0
DWIDTH 6 0
BBX 6 8 0 -2
BITMAP
90
d8
48
20
f8
50
f8
00
ENDCHAR
STARTCHAR 335f
ENCODING 13151
SWIDTH 822 0
DWIDTH 6 0
BBX 6 8 0 -2
BITMAP
78
e8
70
e8
c0
50
78
00
ENDCHAR
STARTCHAR 3360
ENCODING 13152
SWIDTH 822 0
DWIDTH 6 0
BBX 6 8 0 -2
BITMAP
78
d8
40
f8
d8
40
78
00
ENDCHAR
STARTCHAR 3361
ENCODING 13153
SWIDTH 822 0
DWIDTH 6 0
BBX 6 8 0 -2
BITMAP
78
f8
58
f0
d8
70
58
00
ENDCHAR
STARTCHAR 3362
ENCODING 13154
SWIDTH 822 0
DWIDTH 6 0
BBX 6 8 0 -2
BITMAP
d0
70
f8
f0
f0
30
a8
00
ENDCHAR
STARTCHAR 3363
ENCODING 13155
SWIDTH 822 0
DWIDTH 6 0
BBX 6 8 0 -2
BITMAP
90
28
b8
10
b8
c8
a8
00
ENDCHAR
STARTCHAR 3364
ENCODING 13156
SWIDTH 822 0
DWIDTH 6 0
BBX 6 8 0 -2
BITMAP
48
e8
a8
48
e8
68
68
00
ENDCHAR
STARTCHAR 3365
ENCODING 13157
SWIDTH 822 0
DWIDTH 6 0
BBX 6 8 0 -2
BITMAP
18
d8
c0
d8
e8
38
08
00
ENDCHAR
STARTCHAR 3366
ENCODING 13158
SWIDTH 822 0
DWIDTH 6 0
BBX 6 8 0 -2
BITMAP
50
e8
d8
40
78
68
78
00
ENDCHAR
STARTCHAR 3367
ENCODING 13159
SWIDTH 822 0
DWIDTH 6 0
BBX 6 8 0 -2
BITMAP
78
d0
78
50
f8
68
f8
00
ENDCHAR
STARTCHAR 3368
ENCODING 13160
SWIDTH 822 0
DWIDTH 6 0
BBX 6 8 0 -2
BITMAP
b8
10
b8
10
b8
a8
b8
00
ENDCHAR
STARTCHAR 3369
ENCODING 13161
SWIDTH 822 0
DWIDTH 6 0
BBX 6 8 0 -2
BITMAP
b0
30
80
38
c8
e8
98
00
ENDCHAR
STARTCHAR 336a
ENCODING 13162
SWIDTH 822 0
DWIDTH 6 0
BBX 6 8 0 -2
BITMAP
b0
30
f8
48
b0
b0
b0
00
ENDCHAR
STARTCHAR 336b
ENCODING 13163
SWIDTH 822 0
DWIDTH 6 0
BBX 6 8 0 -2
BITMAP
50
f8
70
78
c8
68
18
00
ENDCHAR
STARTCHAR 336c
ENCODING 13164
SWIDTH 822 0
DWIDTH 6 0
BBX 6 8 0 -2
BITMAP
58
d8
40
98
68
78
48
00
ENDCHAR
STARTCHAR 336d
ENCODING 13165
SWIDTH 822 0
DWIDTH 6 0
BBX 6 8 0 -2
BITMAP
d0
78
e8
d0
78
d8
58
00
ENDCHAR
STARTCHAR 336e
ENCODING 13166
SWIDTH 822 0
DWIDTH 6 0
BBX 6 8 0 -2
BITMAP
70
50
70
50
70
50
f8
00
ENDCHAR
STARTCHAR 336f
ENCODING 13167
SWIDTH 822 0
DWIDTH 6 0
BBX 6 8 0 -2
BITMAP
f8
68
f0
e8
c0
10
b8
00
ENDCHAR
STARTCHAR 3370
ENCODING 13168
SWIDTH 822 0
DWIDTH 6 0
BBX 6 8 0 -2
BITMAP
10
d0
f8
d0
d0
10
10
00
ENDCHAR
STARTCHAR 3371
ENCODING 13169
SWIDTH 822 0
DWIDTH 6 0
BBX 6 8 0 -2
BITMAP
68
f8
40
f0
f8
70
78
00
ENDCHAR
STARTCHAR 3372
ENCODING 13170
SWIDTH 822 0
DWIDTH 6 0
BBX 6 8 0 -2
BITMAP
68
f8
70
f8
f0
78
50
00
ENDCHAR
STARTCHAR 3373
ENCODING 13171
SWIDTH 822 0
DWIDTH 6 0
BBX 6 8 0 -2
BITMAP
a0
f8
c8
70
d0
e0
78
00
ENDCHAR
STARTCHAR 3374
ENCODING 13172
SWIDTH 822 0
DWIDTH 6 0
BBX 6 8 0 -2
BITMAP
70
f8
50
f8
d0
78
50
00
ENDCHAR
STARTCHAR 3375
ENCODING 13173
SWIDTH 822 0
DWIDTH 6 0
BBX 6 8 0 -2
BITMAP
a8
d8
f8
d8
f8
50
98
00
ENDCHAR
STARTCHAR 3376
ENCODING 13174
SWIDTH 822 0
DWIDTH 6 0
BBX 6 8 0 -2
BITMAP
20
f8
a8
50
70
70
18
00
ENDCHAR
STARTCHAR 3377
ENCODING 13175
SWIDTH 822 0
DWIDTH 6 0
BBX 6 8 0 -2
BITMAP
50
f8
90
38
a8
38
a8
00
ENDCHAR
STARTCHAR 3378
ENCODING 13176
SWIDTH 822 0
DWIDTH 6 0
BBX 6 8 0 -2
BITMAP
50
d8
20
d8
20
70
f8
00
ENDCHAR
STARTCHAR 3379
ENCODING 13177
SWIDTH 822 0
DWIDTH 6 0
BBX 6 8 0 -2
BITMAP
68
b8
d8
78
d0
78
d0
00
ENDCHAR
STARTCHAR 337a
ENCODING 13178
SWIDTH 822 0
DWIDTH 6 0
BBX 6 8 0 -2
BITMAP
10
d8
d0
f8
e8
58
78
00
ENDCHAR
STARTCHAR 337b
ENCODING 13179
SWIDTH 822 0
DWIDTH 6 0
BBX 6 8 0 -2
BITMAP
d0
f8
f8
e0
78
48
28
00
ENDCHAR
STARTCHAR 337c
ENCODING 13180
SWIDTH 822 0
DWIDTH 6 0
BBX 6 8 0 -2
BITMAP
78
d0
78
e8
f8
68
78
00
ENDCHAR
STARTCHAR 337d
ENCODING 13181
SWIDTH 822 0
DWIDTH 6 0
BBX 6 8 0 -2
BITMAP
50
f8
70
10
f8
58
b0
00
ENDCHAR
STARTCHAR 337e
ENCODING 13182
SWIDTH 822 0
DWIDTH 6 0
BBX 6 8 0 -2
BITMAP
50
f8
50
f8
b8
30
f8
00
ENDCHAR
STARTCHAR 3421
ENCODING 13345
SWIDTH 822 0
DWIDTH 6 0
BBX 6 8 0 -2
BITMAP
d8
68
f8
b0
f8
68
d8
00
ENDCHAR
STARTCHAR 3422
ENCODING 13346
SWIDTH 822 0
DWIDTH 6 0
BBX 6 8 0 -2
BITMAP
28
28
a8
48
68
88
98
00
ENDCHAR
STARTCHAR 3423
ENCODING 13347
SWIDTH 822 0
DWIDTH 6 0
BBX 6 8 0 -2
BITMAP
50
f8
00
a8
48
68
98
00
ENDCHAR
STARTCHAR 3424
ENCODING 13348
SWIDTH 822 0
DWIDTH 6 0
BBX 6 8 0 -2
BITMAP
f8
40
70
50
70
50
d8
00
ENDCHAR
STARTCHAR 3425
ENCODING 13349
SWIDTH 822 0
DWIDTH 6 0
BBX 6 8 0 -2
BITMAP
e0
78
c0
f8
50
e0
58
00
ENDCHAR
STARTCHAR 3426
ENCODING 13350
SWIDTH 822 0
DWIDTH 6 0
BBX 6 8 0 -2
BITMAP
78
68
f8
c0
68
68
68
00
ENDCHAR
STARTCHAR 3427
ENCODING 13351
SWIDTH 822 0
DWIDTH 6 0
BBX 6 8 0 -2
BITMAP
f8
88
60
18
e8
58
b8
00
ENDCHAR
STARTCHAR 3428
ENCODING 13352
SWIDTH 822 0
DWIDTH 6 0
BBX 6 8 0 -2
BITMAP
20
f8
a8
70
70
88
20
00
ENDCHAR
STARTCHAR 3429
ENCODING 13353
SWIDTH 822 0
DWIDTH 6 0
BBX 6 8 0 -2
BITMAP
e8
58
58
f8
48
48
58
00
ENDCHAR
STARTCHAR 342a
ENCODING 13354
SWIDTH 822 0
DWIDTH 6 0
BBX 6 8 0 -2
BITMAP
50
f8
58
58
f8
a8
e8
00
ENDCHAR
STARTCHAR 342b
ENCODING 13355
SWIDTH 822 0
DWIDTH 6 0
BBX 6 8 0 -2
BITMAP
90
f8
58
f8
d8
d8
e8
00
ENDCHAR
STARTCHAR 342c
ENCODING 13356
SWIDTH 822 0
DWIDTH 6 0
BBX 6 8 0 -2
BITMAP
a8
70
f8
50
a8
40
70
00
ENDCHAR
STARTCHAR 342d
ENCODING 13357
SWIDTH 822 0
DWIDTH 6 0
BBX 6 8 0 -2
BITMAP
18
e8
d8
d8
f8
10
28
00
ENDCHAR
STARTCHAR 342e
ENCODING 13358
SWIDTH 822 0
DWIDTH 6 0
BBX 6 8 0 -2
BITMAP
50
78
d0
50
78
f0
38
00
ENDCHAR
STARTCHAR 342f
ENCODING 13359
SWIDTH 822 0
DWIDTH 6 0
BBX 6 8 0 -2
BITMAP
20
f8
20
50
f8
50
a8
00
ENDCHAR
STARTCHAR 3430
ENCODING 13360
SWIDTH 822 0
DWIDTH 6 0
BBX 6 8 0 -2
BITMAP
20
f8
88
70
f8
50
98
00
ENDCHAR
STARTCHAR 3431
ENCODING 13361
SWIDTH 822 0
DWIDTH 6 0
BBX 6 8 0 -2
BITMAP
20
f8
88
70
70
48
78
00
ENDCHAR
STARTCHAR 3432
ENCODING 13362
SWIDTH 822 0
DWIDTH 6 0
BBX 6 8 0 -2
BITMAP
20
f8
a8
70
70
70
98
00
ENDCHAR
STARTCHAR 3433
ENCODING 13363
SWIDTH 822 0
DWIDTH 6 0
BBX 6 8 0 -2
BITMAP
70
20
20
f8
20
20
20
00
ENDCHAR
STARTCHAR 3434
ENCODING 13364
SWIDTH 822 0
DWIDTH 6 0
BBX 6 8 0 -2
BITMAP
d0
68
c0
f8
50
f8
50
00
ENDCHAR
STARTCHAR 3435
ENCODING 13365
SWIDTH 822 0
DWIDTH 6 0
BBX 6 8 0 -2
BITMAP
20
70
70
f8
f8
48
b8
00
ENDCHAR
STARTCHAR 3436
ENCODING 13366
SWIDTH 822 0
DWIDTH 6 0
BBX 6 8 0 -2
BITMAP
10
f8
d0
c8
00
c8
b8
00
ENDCHAR
STARTCHAR 3437
ENCODING 13367
SWIDTH 822 0
DWIDTH 6 0
BBX 6 8 0 -2
BITMAP
70
e8
f0
78
78
40
68
00
ENDCHAR
STARTCHAR 3438
ENCODING 13368
SWIDTH 822 0
DWIDTH 6 0
BBX 6 8 0 -2
BITMAP
50
f8
f0
68
40
68
58
00
ENDCHAR
STARTCHAR 3439
ENCODING 13369
SWIDTH 822 0
DWIDTH 6 0
BBX 6 8 0 -2
BITMAP
58
e8
58
58
f8
50
e8
00
ENDCHAR
STARTCHAR 343a
ENCODING 13370
SWIDTH 822 0
DWIDTH 6 0
BBX 6 8 0 -2
BITMAP
f0
58
e8
68
68
f0
28
00
ENDCHAR
STARTCHAR 343b
ENCODING 13371
SWIDTH 822 0
DWIDTH 6 0
BBX 6 8 0 -2
BITMAP
68
f8
68
f8
e8
68
78
00
ENDCHAR
STARTCHAR 343c
ENCODING 13372
SWIDTH 822 0
DWIDTH 6 0
BBX 6 8 0 -2
BITMAP
78
c0
58
d8
d8
40
78
00
ENDCHAR
STARTCHAR 343d
ENCODING 13373
SWIDTH 822 0
DWIDTH 6 0
BBX 6 8 0 -2
BITMAP
50
f8
68
d8
d0
58
58
00
ENDCHAR
STARTCHAR 343e
ENCODING 13374
SWIDTH 822 0
DWIDTH 6 0
BBX 6 8 0 -2
BITMAP
50
d8
68
d0
10
d0
68
00
ENDCHAR
STARTCHAR 343f
ENCODING 13375
SWIDTH 822 0
DWIDTH 6 0
BBX 6 8 0 -2
BITMAP
90
f8
68
70
f0
70
68
00
ENDCHAR
STARTCHAR 3440
ENCODING 13376
SWIDTH 822 0
DWIDTH 6 0
BBX 6 8 0 -2
BITMAP
b8
10
90
38
90
90
90
00
ENDCHAR
STARTCHAR 3441
ENCODING 13377
SWIDTH 822 0
DWIDTH 6 0
BBX 6 8 0 -2
BITMAP
a8
78
b8
10
b8
90
a8
00
ENDCHAR
STARTCHAR 3442
ENCODING 13378
SWIDTH 822 0
DWIDTH 6 0
BBX 6 8 0 -2
BITMAP
f8
78
c8
58
d8
d8
c8
00
ENDCHAR
STARTCHAR 3443
ENCODING 13379
SWIDTH 822 0
DWIDTH 6 0
BBX 6 8 0 -2
BITMAP
a0
38
90
38
f0
b0
b8
00
ENDCHAR
STARTCHAR 3444
ENCODING 13380
SWIDTH 822 0
DWIDTH 6 0
BBX 6 8 0 -2
BITMAP
38
f8
50
e8
50
f8
10
00
ENDCHAR
STARTCHAR 3445
ENCODING 13381
SWIDTH 822 0
DWIDTH 6 0
BBX 6 8 0 -2
BITMAP
50
f8
50
70
50
50
70
00
ENDCHAR
STARTCHAR 3446
ENCODING 13382
SWIDTH 822 0
DWIDTH 6 0
BBX 6 8 0 -2
BITMAP
d0
d8
c0
d8
00
70
f8
00
ENDCHAR
STARTCHAR 3447
ENCODING 13383
SWIDTH 822 0
DWIDTH 6 0
BBX 6 8 0 -2
BITMAP
10
60
30
f8
40
b0
30
00
ENDCHAR
STARTCHAR 3448
ENCODING 13384
SWIDTH 822 0
DWIDTH 6 0
BBX 6 8 0 -2
BITMAP
90
d8
48
70
20
f8
20
00
ENDCHAR
STARTCHAR 3449
ENCODING 13385
SWIDTH 822 0
DWIDTH 6 0
BBX 6 8 0 -2
BITMAP
90
d8
48
f8
e8
70
70
00
ENDCHAR
STARTCHAR 344a
ENCODING 13386
SWIDTH 822 0
DWIDTH 6 0
BBX 6 8 0 -2
BITMAP
90
d8
48
d8
d8
88
a8
00
ENDCHAR
STARTCHAR 344b
ENCODING 13387
SWIDTH 822 0
DWIDTH 6 0
BBX 6 8 0 -2
BITMAP
58
80
68
98
68
d0
68
00
ENDCHAR
STARTCHAR 344c
ENCODING 13388
SWIDTH 822 0
DWIDTH 6 0
BBX 6 8 0 -2
BITMAP
40
70
a0
f8
20
a8
f8
00
ENDCHAR
STARTCHAR 344d
ENCODING 13389
SWIDTH 822 0
DWIDTH 6 0
BBX 6 8 0 -2
BITMAP
d0
68
c0
f8
68
d8
68
00
ENDCHAR
STARTCHAR 344e
ENCODING 13390
SWIDTH 822 0
DWIDTH 6 0
BBX 6 8 0 -2
BITMAP
f8
d0
d0
f8
d0
d0
d0
00
ENDCHAR
STARTCHAR 344f
ENCODING 13391
SWIDTH 822 0
DWIDTH 6 0
BBX 6 8 0 -2
BITMAP
68
e8
e0
e8
c0
f0
f8
00
ENDCHAR
STARTCHAR 3450
ENCODING 13392
SWIDTH 822 0
DWIDTH 6 0
BBX 6 8 0 -2
BITMAP
50
f8
88
70
f8
50
98
00
ENDCHAR
STARTCHAR 3451
ENCODING 13393
SWIDTH 822 0
DWIDTH 6 0
BBX 6 8 0 -2
BITMAP
b8
e8
78
e8
d8
d0
e8
00
ENDCHAR
STARTCHAR 3452
ENCODING 13394
SWIDTH 822 0
DWIDTH 6 0
BBX 6 8 0 -2
BITMAP
90
f8
38
b8
10
f8
d0
00
ENDCHAR
STARTCHAR 3453
ENCODING 13395
SWIDTH 822 0
DWIDTH 6 0
BBX 6 8 0 -2
BITMAP
70
f8
70
00
70
70
88
00
ENDCHAR
STARTCHAR 3454
ENCODING 13396
SWIDTH 822 0
DWIDTH 6 0
BBX 6 8 0 -2
BITMAP
b8
38
28
90
b8
90
f8
00
ENDCHAR
STARTCHAR 3455
ENCODING 13397
SWIDTH 822 0
DWIDTH 6 0
BBX 6 8 0 -2
BITMAP
68
a8
e0
68
c0
70
f8
00
ENDCHAR
STARTCHAR 3456
ENCODING 13398
SWIDTH 822 0
DWIDTH 6 0
BBX 6 8 0 -2
BITMAP
d8
d8
88
b8
b8
b8
88
00
ENDCHAR
STARTCHAR 3457
ENCODING 13399
SWIDTH 822 0
DWIDTH 6 0
BBX 6 8 0 -2
BITMAP
d8
d8
a8
f8
a8
f8
a8
00
ENDCHAR
STARTCHAR 3458
ENCODING 13400
SWIDTH 822 0
DWIDTH 6 0
BBX 6 8 0 -2
BITMAP
d8
d8
88
d8
f8
a8
d8
00
ENDCHAR
STARTCHAR 3459
ENCODING 13401
SWIDTH 822 0
DWIDTH 6 0
BBX 6 8 0 -2
BITMAP
d8
e8
90
d8
d8
98
98
00
ENDCHAR
STARTCHAR 345a
ENCODING 13402
SWIDTH 822 0
DWIDTH 6 0
BBX 6 8 0 -2
BITMAP
d0
78
d8
f8
70
f8
50
00
ENDCHAR
STARTCHAR 345b
ENCODING 13403
SWIDTH 822 0
DWIDTH 6 0
BBX 6 8 0 -2
BITMAP
50
b8
28
d8
d0
98
d8
00
ENDCHAR
STARTCHAR 345c
ENCODING 13404
SWIDTH 822 0
DWIDTH 6 0
BBX 6 8 0 -2
BITMAP
50
b8
68
d8
50
d8
d8
00
ENDCHAR
STARTCHAR 345d
ENCODING 13405
SWIDTH 822 0
DWIDTH 6 0
BBX 6 8 0 -2
BITMAP
40
f0
50
d0
70
50
98
00
ENDCHAR
STARTCHAR 345e
ENCODING 13406
SWIDTH 822 0
DWIDTH 6 0
BBX 6 8 0 -2
BITMAP
20
50
f8
10
70
50
70
00
ENDCHAR
STARTCHAR 345f
ENCODING 13407
SWIDTH 822 0
DWIDTH 6 0
BBX 6 8 0 -2
BITMAP
a8
f8
80
b8
90
f8
90
00
ENDCHAR
STARTCHAR 3460
ENCODING 13408
SWIDTH 822 0
DWIDTH 6 0
BBX 6 8 0 -2
BITMAP
a8
f8
50
f8
e8
f0
a8
00
ENDCHAR
STARTCHAR 3461
ENCODING 13409
SWIDTH 822 0
DWIDTH 6 0
BBX 6 8 0 -2
BITMAP
38
c0
78
d0
50
d0
28
00
ENDCHAR
STARTCHAR 3462
ENCODING 13410
SWIDTH 822 0
DWIDTH 6 0
BBX 6 8 0 -2
BITMAP
10
78
d0
68
c0
68
b8
00
ENDCHAR
STARTCHAR 3463
ENCODING 13411
SWIDTH 822 0
DWIDTH 6 0
BBX 6 8 0 -2
BITMAP
f8
a8
f8
a0
e8
b0
e8
00
ENDCHAR
STARTCHAR 3464
ENCODING 13412
SWIDTH 822 0
DWIDTH 6 0
BBX 6 8 0 -2
BITMAP
a8
f8
00
f8
40
b8
38
00
ENDCHAR
STARTCHAR 3465
ENCODING 13413
SWIDTH 822 0
DWIDTH 6 0
BBX 6 8 0 -2
BITMAP
d8
40
f8
50
10
d0
e8
00
ENDCHAR
STARTCHAR 3466
ENCODING 13414
SWIDTH 822 0
DWIDTH 6 0
BBX 6 8 0 -2
BITMAP
f8
a8
d8
d8
b0
b0
c8
00
ENDCHAR
STARTCHAR 3467
ENCODING 13415
SWIDTH 822 0
DWIDTH 6 0
BBX 6 8 0 -2
BITMAP
f8
a8
d8
d0
d8
d0
d8
00
ENDCHAR
STARTCHAR 3468
ENCODING 13416
SWIDTH 822 0
DWIDTH 6 0
BBX 6 8 0 -2
BITMAP
38
d0
38
e8
78
40
a8
00
ENDCHAR
STARTCHAR 3469
ENCODING 13417
SWIDTH 822 0
DWIDTH 6 0
BBX 6 8 0 -2
BITMAP
58
f0
58
f8
b8
c0
a8
00
ENDCHAR
STARTCHAR 346a
ENCODING 13418
SWIDTH 822 0
DWIDTH 6 0
BBX 6 8 0 -2
BITMAP
f8
d0
f8
f8
58
e0
48
00
ENDCHAR
STARTCHAR 346b
ENCODING 13419
SWIDTH 822 0
DWIDTH 6 0
BBX 6 8 0 -2
BITMAP
20
50
88
10
58
50
f8
00
ENDCHAR
STARTCHAR 346c
ENCODING 13420
SWIDTH 822 0
DWIDTH 6 0
BBX 6 8 0 -2
BITMAP
50
78
d0
f8
68
50
68
00
ENDCHAR
STARTCHAR 346d
ENCODING 13421
SWIDTH 822 0
DWIDTH 6 0
BBX 6 8 0 -2
BITMAP
30
d0
78
78
68
60
b8
00
ENDCHAR
STARTCHAR 346e
ENCODING 13422
SWIDTH 822 0
DWIDTH 6 0
BBX 6 8 0 -2
BITMAP
20
f8
70
50
f8
50
70
00
ENDCHAR
STARTCHAR 346f
ENCODING 13423
SWIDTH 822 0
DWIDTH 6 0
BBX 6 8 0 -2
BITMAP
d8
d8
20
f8
50
d8
d8
00
ENDCHAR
STARTCHAR 3470
ENCODING 13424
SWIDTH 822 0
DWIDTH 6 0
BBX 6 8 0 -2
BITMAP
50
f8
50
f8
50
a8
70
00
ENDCHAR
STARTCHAR 3471
ENCODING 13425
SWIDTH 822 0
DWIDTH 6 0
BBX 6 8 0 -2
BITMAP
20
f8
20
50
f8
10
50
00
ENDCHAR
STARTCHAR 3472
ENCODING 13426
SWIDTH 822 0
DWIDTH 6 0
BBX 6 8 0 -2
BITMAP
90
b8
d0
f8
e8
78
98
00
ENDCHAR
STARTCHAR 3473
ENCODING 13427
SWIDTH 822 0
DWIDTH 6 0
BBX 6 8 0 -2
BITMAP
20
f8
a8
50
f8
10
50
00
ENDCHAR
STARTCHAR 3474
ENCODING 13428
SWIDTH 822 0
DWIDTH 6 0
BBX 6 8 0 -2
BITMAP
50
78
50
f8
e8
d0
28
00
ENDCHAR
STARTCHAR 3475
ENCODING 13429
SWIDTH 822 0
DWIDTH 6 0
BBX 6 8 0 -2
BITMAP
50
20
50
f8
20
78
a8
00
ENDCHAR
STARTCHAR 3476
ENCODING 13430
SWIDTH 822 0
DWIDTH 6 0
BBX 6 8 0 -2
BITMAP
48
90
48
f0
58
50
a8
00
ENDCHAR
STARTCHAR 3477
ENCODING 13431
SWIDTH 822 0
DWIDTH 6 0
BBX 6 8 0 -2
BITMAP
70
10
70
40
70
c8
b8
00
ENDCHAR
STARTCHAR 3478
ENCODING 13432
SWIDTH 822 0
DWIDTH 6 0
BBX 6 8 0 -2
BITMAP
78
e8
50
78
f0
78
d0
00
ENDCHAR
STARTCHAR 3479
ENCODING 13433
SWIDTH 822 0
DWIDTH 6 0
BBX 6 8 0 -2
BITMAP
40
f8
68
e8
e8
68
48
00
ENDCHAR
STARTCHAR 347a
ENCODING 13434
SWIDTH 822 0
DWIDTH 6 0
BBX 6 8 0 -2
BITMAP
50
f8
58
78
78
a0
a8
00
ENDCHAR
STARTCHAR 347b
ENCODING 13435
SWIDTH 822 0
DWIDTH 6 0
BBX 6 8 0 -2
BITMAP
38
d8
d8
f8
90
d0
28
00
ENDCHAR
STARTCHAR 347c
ENCODING 13436
SWIDTH 822 0
DWIDTH 6 0
BBX 6 8 0 -2
BITMAP
58
f8
78
78
f8
18
a8
00
ENDCHAR
STARTCHAR 347d
ENCODING 13437
SWIDTH 822 0
DWIDTH 6 0
BBX 6 8 0 -2
BITMAP
68
f8
78
f8
f8
40
68
00
ENDCHAR
STARTCHAR 347e
ENCODING 13438
SWIDTH 822 0
DWIDTH 6 0
BBX 6 8 0 -2
BITMAP
20
f8
50
e8
f8
70
a8
00
ENDCHAR
STARTCHAR 3521
ENCODING 13601
SWIDTH 822 0
DWIDTH 6 0
BBX 6 8 0 -2
BITMAP
68
d0
68
f0
d8
50
68
00
ENDCHAR
STARTCHAR 3522
ENCODING 13602
SWIDTH 822 0
DWIDTH 6 0
BBX 6 8 0 -2
BITMAP
58
c8
f8
e8
50
78
90
00
ENDCHAR
STARTCHAR 3523
ENCODING 13603
SWIDTH 822 0
DWIDTH 6 0
BBX 6 8 0 -2
BITMAP
58
e8
60
f8
68
b0
68
00
ENDCHAR
STARTCHAR 3524
ENCODING 13604
SWIDTH 822 0
DWIDTH 6 0
BBX 6 8 0 -2
BITMAP
80
f8
70
f8
a8
48
a8
00
ENDCHAR
STARTCHAR 3525
ENCODING 13605
SWIDTH 822 0
DWIDTH 6 0
BBX 6 8 0 -2
BITMAP
a0
38
80
30
90
90
88
00
ENDCHAR
STARTCHAR 3526
ENCODING 13606
SWIDTH 822 0
DWIDTH 6 0
BBX 6 8 0 -2
BITMAP
48
90
48
f0
18
d0
c8
00
ENDCHAR
STARTCHAR 3527
ENCODING 13607
SWIDTH 822 0
DWIDTH 6 0
BBX 6 8 0 -2
BITMAP
48
f0
60
b8
68
68
48
00
ENDCHAR
STARTCHAR 3528
ENCODING 13608
SWIDTH 822 0
DWIDTH 6 0
BBX 6 8 0 -2
BITMAP
70
f8
50
b8
10
f8
20
00
ENDCHAR
STARTCHAR 3529
ENCODING 13609
SWIDTH 822 0
DWIDTH 6 0
BBX 6 8 0 -2
BITMAP
e8
50
e8
50
f8
d8
50
00
ENDCHAR
STARTCHAR 352a
ENCODING 13610
SWIDTH 822 0
DWIDTH 6 0
BBX 6 8 0 -2
BITMAP
78
88
48
b8
60
e8
78
00
ENDCHAR
STARTCHAR 352b
ENCODING 13611
SWIDTH 822 0
DWIDTH 6 0
BBX 6 8 0 -2
BITMAP
70
b8
58
b8
58
70
68
00
ENDCHAR
STARTCHAR 352c
ENCODING 13612
SWIDTH 822 0
DWIDTH 6 0
BBX 6 8 0 -2
BITMAP
78
e8
78
e8
78
50
a8
00
ENDCHAR
STARTCHAR 352d
ENCODING 13613
SWIDTH 822 0
DWIDTH 6 0
BBX 6 8 0 -2
BITMAP
b8
c8
08
b8
20
e8
f8
00
ENDCHAR
STARTCHAR 352e
ENCODING 13614
SWIDTH 822 0
DWIDTH 6 0
BBX 6 8 0 -2
BITMAP
20
70
f8
70
50
70
88
00
ENDCHAR
STARTCHAR 352f
ENCODING 13615
SWIDTH 822 0
DWIDTH 6 0
BBX 6 8 0 -2
BITMAP
58
e8
58
f0
58
c0
b8
00
ENDCHAR
STARTCHAR 3530
ENCODING 13616
SWIDTH 822 0
DWIDTH 6 0
BBX 6 8 0 -2
BITMAP
d0
70
d0
d0
50
d0
68
00
ENDCHAR
STARTCHAR 3531
ENCODING 13617
SWIDTH 822 0
DWIDTH 6 0
BBX 6 8 0 -2
BITMAP
38
a8
50
f8
78
78
90
00
ENDCHAR
STARTCHAR 3532
ENCODING 13618
SWIDTH 822 0
DWIDTH 6 0
BBX 6 8 0 -2
BITMAP
40
b8
28
e8
e8
a8
c8
00
ENDCHAR
STARTCHAR 3533
ENCODING 13619
SWIDTH 822 0
DWIDTH 6 0
BBX 6 8 0 -2
BITMAP
d0
b8
d0
a8
78
c8
68
00
ENDCHAR
STARTCHAR 3534
ENCODING 13620
SWIDTH 822 0
DWIDTH 6 0
BBX 6 8 0 -2
BITMAP
20
f8
a8
f8
a8
70
98
00
ENDCHAR
STARTCHAR 3535
ENCODING 13621
SWIDTH 822 0
DWIDTH 6 0
BBX 6 8 0 -2
BITMAP
70
90
70
f8
a8
f0
18
00
ENDCHAR
STARTCHAR 3536
ENCODING 13622
SWIDTH 822 0
DWIDTH 6 0
BBX 6 8 0 -2
BITMAP
68
50
f0
d0
78
48
68
00
ENDCHAR
STARTCHAR 3537
ENCODING 13623
SWIDTH 822 0
DWIDTH 6 0
BBX 6 8 0 -2
BITMAP
68
78
d0
f8
58
70
48
00
ENDCHAR
STARTCHAR 3538
ENCODING 13624
SWIDTH 822 0
DWIDTH 6 0
BBX 6 8 0 -2
BITMAP
90
b8
d0
f8
e8
50
a8
00
ENDCHAR
STARTCHAR 3539
ENCODING 13625
SWIDTH 822 0
DWIDTH 6 0
BBX 6 8 0 -2
BITMAP
20
f8
88
70
70
50
f8
00
ENDCHAR
STARTCHAR 353a
ENCODING 13626
SWIDTH 822 0
DWIDTH 6 0
BBX 6 8 0 -2
BITMAP
58
70
d8
f0
d8
d0
e8
00
ENDCHAR
STARTCHAR 353b
ENCODING 13627
SWIDTH 822 0
DWIDTH 6 0
BBX 6 8 0 -2
BITMAP
50
f8
50
78
e8
50
e8
00
ENDCHAR
STARTCHAR 353c
ENCODING 13628
SWIDTH 822 0
DWIDTH 6 0
BBX 6 8 0 -2
BITMAP
58
e8
78
70
f8
50
e8
00
ENDCHAR
STARTCHAR 353d
ENCODING 13629
SWIDTH 822 0
DWIDTH 6 0
BBX 6 8 0 -2
BITMAP
50
f8
68
70
f0
10
a8
00
ENDCHAR
STARTCHAR 353e
ENCODING 13630
SWIDTH 822 0
DWIDTH 6 0
BBX 6 8 0 -2
BITMAP
e8
f8
d0
78
d8
70
48
00
ENDCHAR
STARTCHAR 353f
ENCODING 13631
SWIDTH 822 0
DWIDTH 6 0
BBX 6 8 0 -2
BITMAP
98
e8
98
70
f8
50
a8
00
ENDCHAR
STARTCHAR 3540
ENCODING 13632
SWIDTH 822 0
DWIDTH 6 0
BBX 6 8 0 -2
BITMAP
48
f0
70
b8
70
70
68
00
ENDCHAR
STARTCHAR 3541
ENCODING 13633
SWIDTH 822 0
DWIDTH 6 0
BBX 6 8 0 -2
BITMAP
50
f8
20
f8
58
f0
48
00
ENDCHAR
STARTCHAR 3542
ENCODING 13634
SWIDTH 822 0
DWIDTH 6 0
BBX 6 8 0 -2
BITMAP
68
f8
d0
f8
58
70
c8
00
ENDCHAR
STARTCHAR 3543
ENCODING 13635
SWIDTH 822 0
DWIDTH 6 0
BBX 6 8 0 -2
BITMAP
90
f8
28
c0
18
d8
f8
00
ENDCHAR
STARTCHAR 3544
ENCODING 13636
SWIDTH 822 0
DWIDTH 6 0
BBX 6 8 0 -2
BITMAP
a8
f8
10
b8
18
f0
c8
00
ENDCHAR
STARTCHAR 3545
ENCODING 13637
SWIDTH 822 0
DWIDTH 6 0
BBX 6 8 0 -2
BITMAP
60
f8
68
58
f8
58
e8
00
ENDCHAR
STARTCHAR 3546
ENCODING 13638
SWIDTH 822 0
DWIDTH 6 0
BBX 6 8 0 -2
BITMAP
50
f8
40
78
a8
78
a8
00
ENDCHAR
STARTCHAR 3547
ENCODING 13639
SWIDTH 822 0
DWIDTH 6 0
BBX 6 8 0 -2
BITMAP
a0
f8
e8
58
f8
d8
68
00
ENDCHAR
STARTCHAR 3548
ENCODING 13640
SWIDTH 822 0
DWIDTH 6 0
BBX 6 8 0 -2
BITMAP
20
f8
20
70
00
70
70
00
ENDCHAR
STARTCHAR 3549
ENCODING 13641
SWIDTH 822 0
DWIDTH 6 0
BBX 6 8 0 -2
BITMAP
20
f8
c0
f8
d0
20
18
00
ENDCHAR
STARTCHAR 354a
ENCODING 13642
SWIDTH 822 0
DWIDTH 6 0
BBX 6 8 0 -2
BITMAP
58
f8
d8
e8
f0
20
58
00
ENDCHAR
STARTCHAR 354b
ENCODING 13643
SWIDTH 822 0
DWIDTH 6 0
BBX 6 8 0 -2
BITMAP
50
f8
50
f8
c0
58
58
00
ENDCHAR
STARTCHAR 354c
ENCODING 13644
SWIDTH 822 0
DWIDTH 6 0
BBX 6 8 0 -2
BITMAP
70
d8
78
d0
c0
78
68
00
ENDCHAR
STARTCHAR 354d
ENCODING 13645
SWIDTH 822 0
DWIDTH 6 0
BBX 6 8 0 -2
BITMAP
90
f8
10
b8
00
d8
d8
00
ENDCHAR
STARTCHAR 354e
ENCODING 13646
SWIDTH 822 0
DWIDTH 6 0
BBX 6 8 0 -2
BITMAP
f0
50
58
90
78
68
38
00
ENDCHAR
STARTCHAR 354f
ENCODING 13647
SWIDTH 822 0
DWIDTH 6 0
BBX 6 8 0 -2
BITMAP
60
f8
50
d0
f8
50
50
00
ENDCHAR
STARTCHAR 3550
ENCODING 13648
SWIDTH 822 0
DWIDTH 6 0
BBX 6 8 0 -2
BITMAP
70
f8
70
a8
50
f8
a8
00
ENDCHAR
STARTCHAR 3551
ENCODING 13649
SWIDTH 822 0
DWIDTH 6 0
BBX 6 8 0 -2
BITMAP
58
f8
58
f8
58
b0
d0
00
ENDCHAR
STARTCHAR 3552
ENCODING 13650
SWIDTH 822 0
DWIDTH 6 0
BBX 6 8 0 -2
BITMAP
20
f8
b8
50
20
d8
70
00
ENDCHAR
STARTCHAR 3553
ENCODING 13651
SWIDTH 822 0
DWIDTH 6 0
BBX 6 8 0 -2
BITMAP
d0
f8
d8
f8
d8
e8
b8
00
ENDCHAR
STARTCHAR 3554
ENCODING 13652
SWIDTH 822 0
DWIDTH 6 0
BBX 6 8 0 -2
BITMAP
20
38
e0
b8
b8
a0
b8
00
ENDCHAR
STARTCHAR 3555
ENCODING 13653
SWIDTH 822 0
DWIDTH 6 0
BBX 6 8 0 -2
BITMAP
a8
78
28
b8
90
a0
f8
00
ENDCHAR
STARTCHAR 3556
ENCODING 13654
SWIDTH 822 0
DWIDTH 6 0
BBX 6 8 0 -2
BITMAP
10
60
40
78
50
50
f8
00
ENDCHAR
STARTCHAR 3557
ENCODING 13655
SWIDTH 822 0
DWIDTH 6 0
BBX 6 8 0 -2
BITMAP
40
70
50
90
20
50
88
00
ENDCHAR
STARTCHAR 3558
ENCODING 13656
SWIDTH 822 0
DWIDTH 6 0
BBX 6 8 0 -2
BITMAP
50
70
d0
d0
50
50
68
00
ENDCHAR
STARTCHAR 3559
ENCODING 13657
SWIDTH 822 0
DWIDTH 6 0
BBX 6 8 0 -2
BITMAP
50
78
d0
f8
78
50
50
00
ENDCHAR
STARTCHAR 355a
ENCODING 13658
SWIDTH 822 0
DWIDTH 6 0
BBX 6 8 0 -2
BITMAP
f0
50
58
48
68
50
a8
00
ENDCHAR
STARTCHAR 355b
ENCODING 13659
SWIDTH 822 0
DWIDTH 6 0
BBX 6 8 0 -2
BITMAP
70
d0
d8
c8
e8
50
a8
00
ENDCHAR
STARTCHAR 355c
ENCODING 13660
SWIDTH 822 0
DWIDTH 6 0
BBX 6 8 0 -2
BITMAP
20
f8
d8
70
20
50
70
00
ENDCHAR
STARTCHAR 355d
ENCODING 13661
SWIDTH 822 0
DWIDTH 6 0
BBX 6 8 0 -2
BITMAP
f0
10
f0
80
f8
08
18
00
ENDCHAR
STARTCHAR 355e
ENCODING 13662
SWIDTH 822 0
DWIDTH 6 0
BBX 6 8 0 -2
BITMAP
30
d0
70
10
70
c8
b8
00
ENDCHAR
STARTCHAR 355f
ENCODING 13663
SWIDTH 822 0
DWIDTH 6 0
BBX 6 8 0 -2
BITMAP
50
f8
58
d8
78
d0
68
00
ENDCHAR
STARTCHAR 3560
ENCODING 13664
SWIDTH 822 0
DWIDTH 6 0
BBX 6 8 0 -2
BITMAP
78
d0
50
d8
c8
48
58
00
ENDCHAR
STARTCHAR 3561
ENCODING 13665
SWIDTH 822 0
DWIDTH 6 0
BBX 6 8 0 -2
BITMAP
28
f8
20
a8
70
a8
60
00
ENDCHAR
STARTCHAR 3562
ENCODING 13666
SWIDTH 822 0
DWIDTH 6 0
BBX 6 8 0 -2
BITMAP
f0
50
d8
48
e8
d0
a8
00
ENDCHAR
STARTCHAR 3563
ENCODING 13667
SWIDTH 822 0
DWIDTH 6 0
BBX 6 8 0 -2
BITMAP
90
38
88
28
a8
90
b8
00
ENDCHAR
STARTCHAR 3564
ENCODING 13668
SWIDTH 822 0
DWIDTH 6 0
BBX 6 8 0 -2
BITMAP
70
90
20
d8
a8
20
d8
00
ENDCHAR
STARTCHAR 3565
ENCODING 13669
SWIDTH 822 0
DWIDTH 6 0
BBX 6 8 0 -2
BITMAP
10
f8
50
d8
70
d8
30
00
ENDCHAR
STARTCHAR 3566
ENCODING 13670
SWIDTH 822 0
DWIDTH 6 0
BBX 6 8 0 -2
BITMAP
20
f8
d8
20
f0
50
98
00
ENDCHAR
STARTCHAR 3567
ENCODING 13671
SWIDTH 822 0
DWIDTH 6 0
BBX 6 8 0 -2
BITMAP
20
f8
d8
50
d8
c8
58
00
ENDCHAR
STARTCHAR 3568
ENCODING 13672
SWIDTH 822 0
DWIDTH 6 0
BBX 6 8 0 -2
BITMAP
90
d8
48
78
28
50
a8
00
ENDCHAR
STARTCHAR 3569
ENCODING 13673
SWIDTH 822 0
DWIDTH 6 0
BBX 6 8 0 -2
BITMAP
70
90
58
a8
68
d0
68
00
ENDCHAR
STARTCHAR 356a
ENCODING 13674
SWIDTH 822 0
DWIDTH 6 0
BBX 6 8 0 -2
BITMAP
48
a8
68
a8
68
f8
48
00
ENDCHAR
STARTCHAR 356b
ENCODING 13675
SWIDTH 822 0
DWIDTH 6 0
BBX 6 8 0 -2
BITMAP
50
a8
78
80
78
e8
78
00
ENDCHAR
STARTCHAR 356c
ENCODING 13676
SWIDTH 822 0
DWIDTH 6 0
BBX 6 8 0 -2
BITMAP
b8
a8
a8
b8
a8
a8
b8
00
ENDCHAR
STARTCHAR 356d
ENCODING 13677
SWIDTH 822 0
DWIDTH 6 0
BBX 6 8 0 -2
BITMAP
60
78
a0
20
f8
20
20
00
ENDCHAR
STARTCHAR 356e
ENCODING 13678
SWIDTH 822 0
DWIDTH 6 0
BBX 6 8 0 -2
BITMAP
20
70
20
f8
20
50
e8
00
ENDCHAR
STARTCHAR 356f
ENCODING 13679
SWIDTH 822 0
DWIDTH 6 0
BBX 6 8 0 -2
BITMAP
f8
f8
90
b8
90
a8
b8
00
ENDCHAR
STARTCHAR 3570
ENCODING 13680
SWIDTH 822 0
DWIDTH 6 0
BBX 6 8 0 -2
BITMAP
f8
80
f0
90
f0
80
f8
00
ENDCHAR
STARTCHAR 3571
ENCODING 13681
SWIDTH 822 0
DWIDTH 6 0
BBX 6 8 0 -2
BITMAP
78
e0
78
68
f8
60
f8
00
ENDCHAR
STARTCHAR 3572
ENCODING 13682
SWIDTH 822 0
DWIDTH 6 0
BBX 6 8 0 -2
BITMAP
40
f8
68
68
e8
60
d8
00
ENDCHAR
STARTCHAR 3573
ENCODING 13683
SWIDTH 822 0
DWIDTH 6 0
BBX 6 8 0 -2
BITMAP
a8
f8
50
88
70
f8
60
00
ENDCHAR
STARTCHAR 3574
ENCODING 13684
SWIDTH 822 0
DWIDTH 6 0
BBX 6 8 0 -2
BITMAP
b8
30
b8
20
f8
70
a8
00
ENDCHAR
STARTCHAR 3575
ENCODING 13685
SWIDTH 822 0
DWIDTH 6 0
BBX 6 8 0 -2
BITMAP
20
38
e0
b8
80
d0
f8
00
ENDCHAR
STARTCHAR 3576
ENCODING 13686
SWIDTH 822 0
DWIDTH 6 0
BBX 6 8 0 -2
BITMAP
a0
f8
10
d0
38
d0
d0
00
ENDCHAR
STARTCHAR 3577
ENCODING 13687
SWIDTH 822 0
DWIDTH 6 0
BBX 6 8 0 -2
BITMAP
f8
b0
d8
78
d8
f0
d8
00
ENDCHAR
STARTCHAR 3578
ENCODING 13688
SWIDTH 822 0
DWIDTH 6 0
BBX 6 8 0 -2
BITMAP
78
b8
f0
78
d0
68
f8
00
ENDCHAR
STARTCHAR 3579
ENCODING 13689
SWIDTH 822 0
DWIDTH 6 0
BBX 6 8 0 -2
BITMAP
98
28
90
38
b8
80
a8
00
ENDCHAR
STARTCHAR 357a
ENCODING 13690
SWIDTH 822 0
DWIDTH 6 0
BBX 6 8 0 -2
BITMAP
58
b8
78
d0
f8
20
a8
00
ENDCHAR
STARTCHAR 357b
ENCODING 13691
SWIDTH 822 0
DWIDTH 6 0
BBX 6 8 0 -2
BITMAP
30
d0
78
68
78
00
a8
00
ENDCHAR
STARTCHAR 357c
ENCODING 13692
SWIDTH 822 0
DWIDTH 6 0
BBX 6 8 0 -2
BITMAP
20
f8
50
70
10
20
60
00
ENDCHAR
STARTCHAR 357d
ENCODING 13693
SWIDTH 822 0
DWIDTH 6 0
BBX 6 8 0 -2
BITMAP
20
f8
50
70
10
f8
20
00
ENDCHAR
STARTCHAR 357e
ENCODING 13694
SWIDTH 822 0
DWIDTH 6 0
BBX 6 8 0 -2
BITMAP
20
f8
50
70
20
a8
60
00
ENDCHAR
STARTCHAR 3621
ENCODING 13857
SWIDTH 822 0
DWIDTH 6 0
BBX 6 8 0 -2
BITMAP
68
78
e8
e8
78
40
68
00
ENDCHAR
STARTCHAR 3622
ENCODING 13858
SWIDTH 822 0
DWIDTH 6 0
BBX 6 8 0 -2
BITMAP
50
78
d0
e8
78
50
68
00
ENDCHAR
STARTCHAR 3623
ENCODING 13859
SWIDTH 822 0
DWIDTH 6 0
BBX 6 8 0 -2
BITMAP
58
78
d0
e8
40
78
68
00
ENDCHAR
STARTCHAR 3624
ENCODING 13860
SWIDTH 822 0
DWIDTH 6 0
BBX 6 8 0 -2
BITMAP
d8
a8
d8
88
f8
50
98
00
ENDCHAR
STARTCHAR 3625
ENCODING 13861
SWIDTH 822 0
DWIDTH 6 0
BBX 6 8 0 -2
BITMAP
50
f8
68
f8
68
50
a8
00
ENDCHAR
STARTCHAR 3626
ENCODING 13862
SWIDTH 822 0
DWIDTH 6 0
BBX 6 8 0 -2
BITMAP
50
f8
50
50
f8
00
88
00
ENDCHAR
STARTCHAR 3627
ENCODING 13863
SWIDTH 822 0
DWIDTH 6 0
BBX 6 8 0 -2
BITMAP
88
d8
a8
a8
d8
88
f8
00
ENDCHAR
STARTCHAR 3628
ENCODING 13864
SWIDTH 822 0
DWIDTH 6 0
BBX 6 8 0 -2
BITMAP
50
78
e8
40
68
78
68
00
ENDCHAR
STARTCHAR 3629
ENCODING 13865
SWIDTH 822 0
DWIDTH 6 0
BBX 6 8 0 -2
BITMAP
f8
b8
90
b8
90
b8
f8
00
ENDCHAR
STARTCHAR 362a
ENCODING 13866
SWIDTH 822 0
DWIDTH 6 0
BBX 6 8 0 -2
BITMAP
58
98
f8
f8
d8
70
90
00
ENDCHAR
STARTCHAR 362b
ENCODING 13867
SWIDTH 822 0
DWIDTH 6 0
BBX 6 8 0 -2
BITMAP
08
e8
a8
a8
e8
38
08
00
ENDCHAR
STARTCHAR 362c
ENCODING 13868
SWIDTH 822 0
DWIDTH 6 0
BBX 6 8 0 -2
BITMAP
70
f8
50
a8
f8
88
a8
00
ENDCHAR
STARTCHAR 362d
ENCODING 13869
SWIDTH 822 0
DWIDTH 6 0
BBX 6 8 0 -2
BITMAP
50
78
e8
78
78
d0
28
00
ENDCHAR
STARTCHAR 362e
ENCODING 13870
SWIDTH 822 0
DWIDTH 6 0
BBX 6 8 0 -2
BITMAP
50
78
50
e8
f8
d0
28
00
ENDCHAR
STARTCHAR 362f
ENCODING 13871
SWIDTH 822 0
DWIDTH 6 0
BBX 6 8 0 -2
BITMAP
d0
60
f8
b8
d0
58
f8
00
ENDCHAR
STARTCHAR 3630
ENCODING 13872
SWIDTH 822 0
DWIDTH 6 0
BBX 6 8 0 -2
BITMAP
f8
58
c0
b8
d8
40
f8
00
ENDCHAR
STARTCHAR 3631
ENCODING 13873
SWIDTH 822 0
DWIDTH 6 0
BBX 6 8 0 -2
BITMAP
50
f8
d0
78
50
60
78
00
ENDCHAR
STARTCHAR 3632
ENCODING 13874
SWIDTH 822 0
DWIDTH 6 0
BBX 6 8 0 -2
BITMAP
f0
70
70
e8
00
c8
b8
00
ENDCHAR
STARTCHAR 3633
ENCODING 13875
SWIDTH 822 0
DWIDTH 6 0
BBX 6 8 0 -2
BITMAP
50
f8
50
f8
40
e8
40
00
ENDCHAR
STARTCHAR 3634
ENCODING 13876
SWIDTH 822 0
DWIDTH 6 0
BBX 6 8 0 -2
BITMAP
50
f8
50
68
f8
50
e8
00
ENDCHAR
STARTCHAR 3635
ENCODING 13877
SWIDTH 822 0
DWIDTH 6 0
BBX 6 8 0 -2
BITMAP
50
f8
58
f8
58
b0
28
00
ENDCHAR
STARTCHAR 3636
ENCODING 13878
SWIDTH 822 0
DWIDTH 6 0
BBX 6 8 0 -2
BITMAP
58
f8
50
e8
c0
78
68
00
ENDCHAR
STARTCHAR 3637
ENCODING 13879
SWIDTH 822 0
DWIDTH 6 0
BBX 6 8 0 -2
BITMAP
f8
48
c8
78
b0
b0
d8
00
ENDCHAR
STARTCHAR 3638
ENCODING 13880
SWIDTH 822 0
DWIDTH 6 0
BBX 6 8 0 -2
BITMAP
b8
50
d0
78
d0
50
b8
00
ENDCHAR
STARTCHAR 3639
ENCODING 13881
SWIDTH 822 0
DWIDTH 6 0
BBX 6 8 0 -2
BITMAP
90
78
d0
68
f8
50
a8
00
ENDCHAR
STARTCHAR 363a
ENCODING 13882
SWIDTH 822 0
DWIDTH 6 0
BBX 6 8 0 -2
BITMAP
b8
f8
50
e8
40
78
a8
00
ENDCHAR
STARTCHAR 363b
ENCODING 13883
SWIDTH 822 0
DWIDTH 6 0
BBX 6 8 0 -2
BITMAP
e0
f8
e8
d8
e8
f8
c8
00
ENDCHAR
STARTCHAR 363c
ENCODING 13884
SWIDTH 822 0
DWIDTH 6 0
BBX 6 8 0 -2
BITMAP
20
f0
50
78
a8
70
50
00
ENDCHAR
STARTCHAR 363d
ENCODING 13885
SWIDTH 822 0
DWIDTH 6 0
BBX 6 8 0 -2
BITMAP
58
a8
d8
f8
f8
00
88
00
ENDCHAR
STARTCHAR 363e
ENCODING 13886
SWIDTH 822 0
DWIDTH 6 0
BBX 6 8 0 -2
BITMAP
50
f8
70
d8
f8
88
a8
00
ENDCHAR
STARTCHAR 363f
ENCODING 13887
SWIDTH 822 0
DWIDTH 6 0
BBX 6 8 0 -2
BITMAP
58
b8
70
b8
58
70
90
00
ENDCHAR
STARTCHAR 3640
ENCODING 13888
SWIDTH 822 0
DWIDTH 6 0
BBX 6 8 0 -2
BITMAP
50
b8
e8
78
f0
70
d8
00
ENDCHAR
STARTCHAR 3641
ENCODING 13889
SWIDTH 822 0
DWIDTH 6 0
BBX 6 8 0 -2
BITMAP
58
b8
78
b0
50
f8
70
00
ENDCHAR
STARTCHAR 3642
ENCODING 13890
SWIDTH 822 0
DWIDTH 6 0
BBX 6 8 0 -2
BITMAP
58
b8
78
b0
d8
60
50
00
ENDCHAR
STARTCHAR 3643
ENCODING 13891
SWIDTH 822 0
DWIDTH 6 0
BBX 6 8 0 -2
BITMAP
b8
e8
f0
68
78
08
a8
00
ENDCHAR
STARTCHAR 3644
ENCODING 13892
SWIDTH 822 0
DWIDTH 6 0
BBX 6 8 0 -2
BITMAP
60
58
d8
d8
78
50
50
00
ENDCHAR
STARTCHAR 3645
ENCODING 13893
SWIDTH 822 0
DWIDTH 6 0
BBX 6 8 0 -2
BITMAP
d8
68
58
70
f8
d0
a8
00
ENDCHAR
STARTCHAR 3646
ENCODING 13894
SWIDTH 822 0
DWIDTH 6 0
BBX 6 8 0 -2
BITMAP
20
70
f8
50
f8
50
98
00
ENDCHAR
STARTCHAR 3647
ENCODING 13895
SWIDTH 822 0
DWIDTH 6 0
BBX 6 8 0 -2
BITMAP
10
f8
b0
e8
b8
d0
28
00
ENDCHAR
STARTCHAR 3648
ENCODING 13896
SWIDTH 822 0
DWIDTH 6 0
BBX 6 8 0 -2
BITMAP
a8
f8
50
f8
f8
70
a8
00
ENDCHAR
STARTCHAR 3649
ENCODING 13897
SWIDTH 822 0
DWIDTH 6 0
BBX 6 8 0 -2
BITMAP
f0
f0
80
f8
88
e8
e8
00
ENDCHAR
STARTCHAR 364a
ENCODING 13898
SWIDTH 822 0
DWIDTH 6 0
BBX 6 8 0 -2
BITMAP
50
50
f8
d8
f8
d8
f8
00
ENDCHAR
STARTCHAR 364b
ENCODING 13899
SWIDTH 822 0
DWIDTH 6 0
BBX 6 8 0 -2
BITMAP
78
d0
58
c8
e8
40
78
00
ENDCHAR
STARTCHAR 364c
ENCODING 13900
SWIDTH 822 0
DWIDTH 6 0
BBX 6 8 0 -2
BITMAP
f8
20
20
70
28
20
f8
00
ENDCHAR
STARTCHAR 364d
ENCODING 13901
SWIDTH 822 0
DWIDTH 6 0
BBX 6 8 0 -2
BITMAP
78
c8
78
c8
f8
78
48
00
ENDCHAR
STARTCHAR 364e
ENCODING 13902
SWIDTH 822 0
DWIDTH 6 0
BBX 6 8 0 -2
BITMAP
88
70
d0
78
d0
d0
50
00
ENDCHAR
STARTCHAR 364f
ENCODING 13903
SWIDTH 822 0
DWIDTH 6 0
BBX 6 8 0 -2
BITMAP
68
78
f8
d0
78
50
78
00
ENDCHAR
STARTCHAR 3650
ENCODING 13904
SWIDTH 822 0
DWIDTH 6 0
BBX 6 8 0 -2
BITMAP
b0
f8
f8
58
f8
58
e8
00
ENDCHAR
STARTCHAR 3651
ENCODING 13905
SWIDTH 822 0
DWIDTH 6 0
BBX 6 8 0 -2
BITMAP
60
78
c8
68
58
e8
18
00
ENDCHAR
STARTCHAR 3652
ENCODING 13906
SWIDTH 822 0
DWIDTH 6 0
BBX 6 8 0 -2
BITMAP
20
f8
a8
a8
a8
20
20
00
ENDCHAR
STARTCHAR 3653
ENCODING 13907
SWIDTH 822 0
DWIDTH 6 0
BBX 6 8 0 -2
BITMAP
50
b8
e8
70
f8
58
d0
00
ENDCHAR
STARTCHAR 3654
ENCODING 13908
SWIDTH 822 0
DWIDTH 6 0
BBX 6 8 0 -2
BITMAP
10
60
40
78
50
50
90
00
ENDCHAR
STARTCHAR 3655
ENCODING 13909
SWIDTH 822 0
DWIDTH 6 0
BBX 6 8 0 -2
BITMAP
60
b8
98
d0
d0
d0
68
00
ENDCHAR
STARTCHAR 3656
ENCODING 13910
SWIDTH 822 0
DWIDTH 6 0
BBX 6 8 0 -2
BITMAP
60
b8
d8
50
d0
50
e8
00
ENDCHAR
STARTCHAR 3657
ENCODING 13911
SWIDTH 822 0
DWIDTH 6 0
BBX 6 8 0 -2
BITMAP
d8
50
a8
50
f8
10
20
00
ENDCHAR
STARTCHAR 3658
ENCODING 13912
SWIDTH 822 0
DWIDTH 6 0
BBX 6 8 0 -2
BITMAP
48
d8
48
70
f8
20
a8
00
ENDCHAR
STARTCHAR 3659
ENCODING 13913
SWIDTH 822 0
DWIDTH 6 0
BBX 6 8 0 -2
BITMAP
20
d8
70
70
f8
e8
88
00
ENDCHAR
STARTCHAR 365a
ENCODING 13914
SWIDTH 822 0
DWIDTH 6 0
BBX 6 8 0 -2
BITMAP
90
d8
48
d0
f8
d8
e8
00
ENDCHAR
STARTCHAR 365b
ENCODING 13915
SWIDTH 822 0
DWIDTH 6 0
BBX 6 8 0 -2
BITMAP
f8
e8
d0
28
f8
20
a8
00
ENDCHAR
STARTCHAR 365c
ENCODING 13916
SWIDTH 822 0
DWIDTH 6 0
BBX 6 8 0 -2
BITMAP
50
f8
50
78
40
78
90
00
ENDCHAR
STARTCHAR 365d
ENCODING 13917
SWIDTH 822 0
DWIDTH 6 0
BBX 6 8 0 -2
BITMAP
50
f8
b8
f8
e8
a8
f8
00
ENDCHAR
STARTCHAR 365e
ENCODING 13918
SWIDTH 822 0
DWIDTH 6 0
BBX 6 8 0 -2
BITMAP
50
e8
58
80
58
48
50
00
ENDCHAR
STARTCHAR 365f
ENCODING 13919
SWIDTH 822 0
DWIDTH 6 0
BBX 6 8 0 -2
BITMAP
48
d8
48
b8
50
78
50
00
ENDCHAR
STARTCHAR 3660
ENCODING 13920
SWIDTH 822 0
DWIDTH 6 0
BBX 6 8 0 -2
BITMAP
a8
f8
38
d0
38
d0
f8
00
ENDCHAR
STARTCHAR 3661
ENCODING 13921
SWIDTH 822 0
DWIDTH 6 0
BBX 6 8 0 -2
BITMAP
88
30
20
b8
d0
90
f8
00
ENDCHAR
STARTCHAR 3662
ENCODING 13922
SWIDTH 822 0
DWIDTH 6 0
BBX 6 8 0 -2
BITMAP
20
50
f8
20
f8
70
f8
00
ENDCHAR
STARTCHAR 3663
ENCODING 13923
SWIDTH 822 0
DWIDTH 6 0
BBX 6 8 0 -2
BITMAP
10
e8
d8
c0
f8
08
10
00
ENDCHAR
STARTCHAR 3664
ENCODING 13924
SWIDTH 822 0
DWIDTH 6 0
BBX 6 8 0 -2
BITMAP
78
a8
f8
60
e8
70
e8
00
ENDCHAR
STARTCHAR 3665
ENCODING 13925
SWIDTH 822 0
DWIDTH 6 0
BBX 6 8 0 -2
BITMAP
40
f0
50
50
50
50
98
00
ENDCHAR
STARTCHAR 3666
ENCODING 13926
SWIDTH 822 0
DWIDTH 6 0
BBX 6 8 0 -2
BITMAP
58
58
d8
c0
78
40
68
00
ENDCHAR
STARTCHAR 3667
ENCODING 13927
SWIDTH 822 0
DWIDTH 6 0
BBX 6 8 0 -2
BITMAP
40
78
88
78
58
78
08
00
ENDCHAR
STARTCHAR 3668
ENCODING 13928
SWIDTH 822 0
DWIDTH 6 0
BBX 6 8 0 -2
BITMAP
f8
80
d0
a0
d0
80
f8
00
ENDCHAR
STARTCHAR 3669
ENCODING 13929
SWIDTH 822 0
DWIDTH 6 0
BBX 6 8 0 -2
BITMAP
a0
78
c8
58
d8
48
98
00
ENDCHAR
STARTCHAR 366a
ENCODING 13930
SWIDTH 822 0
DWIDTH 6 0
BBX 6 8 0 -2
BITMAP
10
d8
68
c8
50
d0
28
00
ENDCHAR
STARTCHAR 366b
ENCODING 13931
SWIDTH 822 0
DWIDTH 6 0
BBX 6 8 0 -2
BITMAP
98
f0
58
f8
58
50
b8
00
ENDCHAR
STARTCHAR 366c
ENCODING 13932
SWIDTH 822 0
DWIDTH 6 0
BBX 6 8 0 -2
BITMAP
50
f8
50
f8
20
50
70
00
ENDCHAR
STARTCHAR 366d
ENCODING 13933
SWIDTH 822 0
DWIDTH 6 0
BBX 6 8 0 -2
BITMAP
38
60
68
70
e8
60
b8
00
ENDCHAR
STARTCHAR 366e
ENCODING 13934
SWIDTH 822 0
DWIDTH 6 0
BBX 6 8 0 -2
BITMAP
f8
a0
e8
b0
68
e0
78
00
ENDCHAR
STARTCHAR 366f
ENCODING 13935
SWIDTH 822 0
DWIDTH 6 0
BBX 6 8 0 -2
BITMAP
c8
b0
e0
b8
70
f0
78
00
ENDCHAR
STARTCHAR 3670
ENCODING 13936
SWIDTH 822 0
DWIDTH 6 0
BBX 6 8 0 -2
BITMAP
e0
b8
c8
98
58
c8
58
00
ENDCHAR
STARTCHAR 3671
ENCODING 13937
SWIDTH 822 0
DWIDTH 6 0
BBX 6 8 0 -2
BITMAP
70
50
70
50
f8
00
88
00
ENDCHAR
STARTCHAR 3672
ENCODING 13938
SWIDTH 822 0
DWIDTH 6 0
BBX 6 8 0 -2
BITMAP
70
70
b8
e8
00
c8
b8
00
ENDCHAR
STARTCHAR 3673
ENCODING 13939
SWIDTH 822 0
DWIDTH 6 0
BBX 6 8 0 -2
BITMAP
20
38
e0
b8
b0
f8
50
00
ENDCHAR
STARTCHAR 3674
ENCODING 13940
SWIDTH 822 0
DWIDTH 6 0
BBX 6 8 0 -2
BITMAP
10
e8
b0
b0
e8
30
28
00
ENDCHAR
STARTCHAR 3675
ENCODING 13941
SWIDTH 822 0
DWIDTH 6 0
BBX 6 8 0 -2
BITMAP
20
f8
d8
00
70
20
f8
00
ENDCHAR
STARTCHAR 3676
ENCODING 13942
SWIDTH 822 0
DWIDTH 6 0
BBX 6 8 0 -2
BITMAP
78
68
f8
d0
78
78
68
00
ENDCHAR
STARTCHAR 3677
ENCODING 13943
SWIDTH 822 0
DWIDTH 6 0
BBX 6 8 0 -2
BITMAP
20
f8
88
70
70
b8
e8
00
ENDCHAR
STARTCHAR 3678
ENCODING 13944
SWIDTH 822 0
DWIDTH 6 0
BBX 6 8 0 -2
BITMAP
b8
38
10
b8
b8
a8
f8
00
ENDCHAR
STARTCHAR 3679
ENCODING 13945
SWIDTH 822 0
DWIDTH 6 0
BBX 6 8 0 -2
BITMAP
f8
e8
b8
d0
f8
b8
a8
00
ENDCHAR
STARTCHAR 367a
ENCODING 13946
SWIDTH 822 0
DWIDTH 6 0
BBX 6 8 0 -2
BITMAP
20
70
70
20
f8
f8
20
00
ENDCHAR
STARTCHAR 367b
ENCODING 13947
SWIDTH 822 0
DWIDTH 6 0
BBX 6 8 0 -2
BITMAP
50
d8
48
f8
d8
70
50
00
ENDCHAR
STARTCHAR 367c
ENCODING 13948
SWIDTH 822 0
DWIDTH 6 0
BBX 6 8 0 -2
BITMAP
48
a8
e8
68
e8
68
c8
00
ENDCHAR
STARTCHAR 367d
ENCODING 13949
SWIDTH 822 0
DWIDTH 6 0
BBX 6 8 0 -2
BITMAP
f8
f8
d0
b8
a8
b8
a8
00
ENDCHAR
STARTCHAR 367e
ENCODING 13950
SWIDTH 822 0
DWIDTH 6 0
BBX 6 8 0 -2
BITMAP
f8
88
f8
b8
90
d8
f8
00
ENDCHAR
STARTCHAR 3721
ENCODING 14113
SWIDTH 822 0
DWIDTH 6 0
BBX 6 8 0 -2
BITMAP
78
c8
78
78
d0
58
f8
00
ENDCHAR
STARTCHAR 3722
ENCODING 14114
SWIDTH 822 0
DWIDTH 6 0
BBX 6 8 0 -2
BITMAP
20
f8
d8
70
70
68
b8
00
ENDCHAR
STARTCHAR 3723
ENCODING 14115
SWIDTH 822 0
DWIDTH 6 0
BBX 6 8 0 -2
BITMAP
20
e8
70
a8
70
50
70
00
ENDCHAR
STARTCHAR 3724
ENCODING 14116
SWIDTH 822 0
DWIDTH 6 0
BBX 6 8 0 -2
BITMAP
b0
f0
f8
50
f0
f0
58
00
ENDCHAR
STARTCHAR 3725
ENCODING 14117
SWIDTH 822 0
DWIDTH 6 0
BBX 6 8 0 -2
BITMAP
68
b0
68
f8
68
70
70
00
ENDCHAR
STARTCHAR 3726
ENCODING 14118
SWIDTH 822 0
DWIDTH 6 0
BBX 6 8 0 -2
BITMAP
20
f8
d8
10
b8
10
b8
00
ENDCHAR
STARTCHAR 3727
ENCODING 14119
SWIDTH 822 0
DWIDTH 6 0
BBX 6 8 0 -2
BITMAP
50
98
c0
d0
d8
00
a8
00
ENDCHAR
STARTCHAR 3728
ENCODING 14120
SWIDTH 822 0
DWIDTH 6 0
BBX 6 8 0 -2
BITMAP
f8
e8
b8
c0
f8
b0
a8
00
ENDCHAR
STARTCHAR 3729
ENCODING 14121
SWIDTH 822 0
DWIDTH 6 0
BBX 6 8 0 -2
BITMAP
70
90
70
a8
f8
70
a8
00
ENDCHAR
STARTCHAR 372a
ENCODING 14122
SWIDTH 822 0
DWIDTH 6 0
BBX 6 8 0 -2
BITMAP
f8
70
70
20
f8
70
a8
00
ENDCHAR
STARTCHAR 372b
ENCODING 14123
SWIDTH 822 0
DWIDTH 6 0
BBX 6 8 0 -2
BITMAP
50
80
68
80
50
f8
50
00
ENDCHAR
STARTCHAR 372c
ENCODING 14124
SWIDTH 822 0
DWIDTH 6 0
BBX 6 8 0 -2
BITMAP
70
20
d8
50
a8
70
a8
00
ENDCHAR
STARTCHAR 372d
ENCODING 14125
SWIDTH 822 0
DWIDTH 6 0
BBX 6 8 0 -2
BITMAP
50
b0
f8
70
f0
70
e8
00
ENDCHAR
STARTCHAR 372e
ENCODING 14126
SWIDTH 822 0
DWIDTH 6 0
BBX 6 8 0 -2
BITMAP
d0
78
d8
d8
68
00
a8
00
ENDCHAR
STARTCHAR 372f
ENCODING 14127
SWIDTH 822 0
DWIDTH 6 0
BBX 6 8 0 -2
BITMAP
f0
50
f8
50
70
b8
38
00
ENDCHAR
STARTCHAR 3730
ENCODING 14128
SWIDTH 822 0
DWIDTH 6 0
BBX 6 8 0 -2
BITMAP
50
f8
70
f8
50
f8
a8
00
ENDCHAR
STARTCHAR 3731
ENCODING 14129
SWIDTH 822 0
DWIDTH 6 0
BBX 6 8 0 -2
BITMAP
48
e8
28
a8
28
e8
c8
00
ENDCHAR
STARTCHAR 3732
ENCODING 14130
SWIDTH 822 0
DWIDTH 6 0
BBX 6 8 0 -2
BITMAP
e8
78
d0
78
90
f8
d0
00
ENDCHAR
STARTCHAR 3733
ENCODING 14131
SWIDTH 822 0
DWIDTH 6 0
BBX 6 8 0 -2
BITMAP
f8
88
20
f8
70
f8
20
00
ENDCHAR
STARTCHAR 3734
ENCODING 14132
SWIDTH 822 0
DWIDTH 6 0
BBX 6 8 0 -2
BITMAP
f8
58
f0
58
98
70
70
00
ENDCHAR
STARTCHAR 3735
ENCODING 14133
SWIDTH 822 0
DWIDTH 6 0
BBX 6 8 0 -2
BITMAP
50
f0
50
f8
50
70
d0
00
ENDCHAR
STARTCHAR 3736
ENCODING 14134
SWIDTH 822 0
DWIDTH 6 0
BBX 6 8 0 -2
BITMAP
40
f8
68
b8
78
d0
68
00
ENDCHAR
STARTCHAR 3737
ENCODING 14135
SWIDTH 822 0
DWIDTH 6 0
BBX 6 8 0 -2
BITMAP
58
f8
30
58
f8
50
50
00
ENDCHAR
STARTCHAR 3738
ENCODING 14136
SWIDTH 822 0
DWIDTH 6 0
BBX 6 8 0 -2
BITMAP
78
60
d0
e8
50
78
50
00
ENDCHAR
STARTCHAR 3739
ENCODING 14137
SWIDTH 822 0
DWIDTH 6 0
BBX 6 8 0 -2
BITMAP
58
50
f8
d8
58
60
48
00
ENDCHAR
STARTCHAR 373a
ENCODING 14138
SWIDTH 822 0
DWIDTH 6 0
BBX 6 8 0 -2
BITMAP
e8
78
78
f8
68
68
a8
00
ENDCHAR
STARTCHAR 373b
ENCODING 14139
SWIDTH 822 0
DWIDTH 6 0
BBX 6 8 0 -2
BITMAP
f8
88
88
f8
50
50
98
00
ENDCHAR
STARTCHAR 373c
ENCODING 14140
SWIDTH 822 0
DWIDTH 6 0
BBX 6 8 0 -2
BITMAP
f8
68
50
a8
70
50
70
00
ENDCHAR
STARTCHAR 373d
ENCODING 14141
SWIDTH 822 0
DWIDTH 6 0
BBX 6 8 0 -2
BITMAP
20
70
20
f8
70
20
f8
00
ENDCHAR
STARTCHAR 373e
ENCODING 14142
SWIDTH 822 0
DWIDTH 6 0
BBX 6 8 0 -2
BITMAP
10
f8
50
f8
50
d0
38
00
ENDCHAR
STARTCHAR 373f
ENCODING 14143
SWIDTH 822 0
DWIDTH 6 0
BBX 6 8 0 -2
BITMAP
e8
58
f8
58
88
20
f8
00
ENDCHAR
STARTCHAR 3740
ENCODING 14144
SWIDTH 822 0
DWIDTH 6 0
BBX 6 8 0 -2
BITMAP
78
d8
68
c0
f8
20
d8
00
ENDCHAR
STARTCHAR 3741
ENCODING 14145
SWIDTH 822 0
DWIDTH 6 0
BBX 6 8 0 -2
BITMAP
e8
70
68
f0
60
68
b0
00
ENDCHAR
STARTCHAR 3742
ENCODING 14146
SWIDTH 822 0
DWIDTH 6 0
BBX 6 8 0 -2
BITMAP
78
a8
50
e8
78
50
78
00
ENDCHAR
STARTCHAR 3743
ENCODING 14147
SWIDTH 822 0
DWIDTH 6 0
BBX 6 8 0 -2
BITMAP
20
f8
70
70
00
c8
b8
00
ENDCHAR
STARTCHAR 3744
ENCODING 14148
SWIDTH 822 0
DWIDTH 6 0
BBX 6 8 0 -2
BITMAP
20
f8
b0
f8
d8
b0
e8
00
ENDCHAR
STARTCHAR 3745
ENCODING 14149
SWIDTH 822 0
DWIDTH 6 0
BBX 6 8 0 -2
BITMAP
48
d8
48
f8
70
c8
b8
00
ENDCHAR
STARTCHAR 3746
ENCODING 14150
SWIDTH 822 0
DWIDTH 6 0
BBX 6 8 0 -2
BITMAP
d0
78
e8
78
00
c8
b8
00
ENDCHAR
STARTCHAR 3747
ENCODING 14151
SWIDTH 822 0
DWIDTH 6 0
BBX 6 8 0 -2
BITMAP
58
d8
40
58
e8
78
c8
00
ENDCHAR
STARTCHAR 3748
ENCODING 14152
SWIDTH 822 0
DWIDTH 6 0
BBX 6 8 0 -2
BITMAP
68
f8
70
78
c0
58
e8
00
ENDCHAR
STARTCHAR 3749
ENCODING 14153
SWIDTH 822 0
DWIDTH 6 0
BBX 6 8 0 -2
BITMAP
b0
f8
a8
e8
28
b0
68
00
ENDCHAR
STARTCHAR 374a
ENCODING 14154
SWIDTH 822 0
DWIDTH 6 0
BBX 6 8 0 -2
BITMAP
70
50
f8
50
70
a8
60
00
ENDCHAR
STARTCHAR 374b
ENCODING 14155
SWIDTH 822 0
DWIDTH 6 0
BBX 6 8 0 -2
BITMAP
50
f8
50
f8
d0
50
78
00
ENDCHAR
STARTCHAR 374c
ENCODING 14156
SWIDTH 822 0
DWIDTH 6 0
BBX 6 8 0 -2
BITMAP
88
30
a8
10
b8
90
a8
00
ENDCHAR
STARTCHAR 374d
ENCODING 14157
SWIDTH 822 0
DWIDTH 6 0
BBX 6 8 0 -2
BITMAP
10
f8
d0
f8
d0
d0
38
00
ENDCHAR
STARTCHAR 374e
ENCODING 14158
SWIDTH 822 0
DWIDTH 6 0
BBX 6 8 0 -2
BITMAP
d0
78
d0
58
e0
f8
78
00
ENDCHAR
STARTCHAR 374f
ENCODING 14159
SWIDTH 822 0
DWIDTH 6 0
BBX 6 8 0 -2
BITMAP
18
e0
40
28
f8
20
a8
00
ENDCHAR
STARTCHAR 3750
ENCODING 14160
SWIDTH 822 0
DWIDTH 6 0
BBX 6 8 0 -2
BITMAP
78
a8
50
a8
78
d0
78
00
ENDCHAR
STARTCHAR 3751
ENCODING 14161
SWIDTH 822 0
DWIDTH 6 0
BBX 6 8 0 -2
BITMAP
68
b0
78
b0
68
e0
78
00
ENDCHAR
STARTCHAR 3752
ENCODING 14162
SWIDTH 822 0
DWIDTH 6 0
BBX 6 8 0 -2
BITMAP
f8
68
d0
68
f8
20
a8
00
ENDCHAR
STARTCHAR 3753
ENCODING 14163
SWIDTH 822 0
DWIDTH 6 0
BBX 6 8 0 -2
BITMAP
f8
f8
50
f0
58
f0
10
00
ENDCHAR
STARTCHAR 3754
ENCODING 14164
SWIDTH 822 0
DWIDTH 6 0
BBX 6 8 0 -2
BITMAP
50
f8
50
20
d8
20
f8
00
ENDCHAR
STARTCHAR 3755
ENCODING 14165
SWIDTH 822 0
DWIDTH 6 0
BBX 6 8 0 -2
BITMAP
50
f8
e0
68
e8
68
a8
00
ENDCHAR
STARTCHAR 3756
ENCODING 14166
SWIDTH 822 0
DWIDTH 6 0
BBX 6 8 0 -2
BITMAP
a8
f8
88
70
70
28
f8
00
ENDCHAR
STARTCHAR 3757
ENCODING 14167
SWIDTH 822 0
DWIDTH 6 0
BBX 6 8 0 -2
BITMAP
50
d0
38
d0
10
d0
d0
00
ENDCHAR
STARTCHAR 3758
ENCODING 14168
SWIDTH 822 0
DWIDTH 6 0
BBX 6 8 0 -2
BITMAP
50
d8
10
d8
00
d8
d8
00
ENDCHAR
STARTCHAR 3759
ENCODING 14169
SWIDTH 822 0
DWIDTH 6 0
BBX 6 8 0 -2
BITMAP
b8
e8
f0
68
00
f8
70
00
ENDCHAR
STARTCHAR 375a
ENCODING 14170
SWIDTH 822 0
DWIDTH 6 0
BBX 6 8 0 -2
BITMAP
f8
68
d0
e8
78
d0
78
00
ENDCHAR
STARTCHAR 375b
ENCODING 14171
SWIDTH 822 0
DWIDTH 6 0
BBX 6 8 0 -2
BITMAP
f8
30
b8
58
b8
40
e8
00
ENDCHAR
STARTCHAR 375c
ENCODING 14172
SWIDTH 822 0
DWIDTH 6 0
BBX 6 8 0 -2
BITMAP
e8
18
b8
50
f8
48
a8
00
ENDCHAR
STARTCHAR 375d
ENCODING 14173
SWIDTH 822 0
DWIDTH 6 0
BBX 6 8 0 -2
BITMAP
50
f8
50
00
f8
50
e8
00
ENDCHAR
STARTCHAR 375e
ENCODING 14174
SWIDTH 822 0
DWIDTH 6 0
BBX 6 8 0 -2
BITMAP
a0
58
58
d8
f0
90
f8
00
ENDCHAR
STARTCHAR 375f
ENCODING 14175
SWIDTH 822 0
DWIDTH 6 0
BBX 6 8 0 -2
BITMAP
d0
78
e8
f8
d0
18
b0
00
ENDCHAR
STARTCHAR 3760
ENCODING 14176
SWIDTH 822 0
DWIDTH 6 0
BBX 6 8 0 -2
BITMAP
48
68
c8
a8
c8
a8
d8
00
ENDCHAR
STARTCHAR 3761
ENCODING 14177
SWIDTH 822 0
DWIDTH 6 0
BBX 6 8 0 -2
BITMAP
d8
50
f8
d0
58
d0
68
00
ENDCHAR
STARTCHAR 3762
ENCODING 14178
SWIDTH 822 0
DWIDTH 6 0
BBX 6 8 0 -2
BITMAP
b8
e8
d0
a8
70
f8
20
00
ENDCHAR
STARTCHAR 3763
ENCODING 14179
SWIDTH 822 0
DWIDTH 6 0
BBX 6 8 0 -2
BITMAP
b0
78
d8
78
b8
d0
a8
00
ENDCHAR
STARTCHAR 3764
ENCODING 14180
SWIDTH 822 0
DWIDTH 6 0
BBX 6 8 0 -2
BITMAP
e8
d0
b8
f8
d0
98
b0
00
ENDCHAR
STARTCHAR 3765
ENCODING 14181
SWIDTH 822 0
DWIDTH 6 0
BBX 6 8 0 -2
BITMAP
68
c0
58
e8
e8
68
68
00
ENDCHAR
STARTCHAR 3766
ENCODING 14182
SWIDTH 822 0
DWIDTH 6 0
BBX 6 8 0 -2
BITMAP
68
78
d8
e8
50
78
50
00
ENDCHAR
STARTCHAR 3767
ENCODING 14183
SWIDTH 822 0
DWIDTH 6 0
BBX 6 8 0 -2
BITMAP
40
78
a8
20
20
50
88
00
ENDCHAR
STARTCHAR 3768
ENCODING 14184
SWIDTH 822 0
DWIDTH 6 0
BBX 6 8 0 -2
BITMAP
90
38
98
78
90
90
a8
00
ENDCHAR
STARTCHAR 3769
ENCODING 14185
SWIDTH 822 0
DWIDTH 6 0
BBX 6 8 0 -2
BITMAP
b8
78
b8
68
90
d8
90
00
ENDCHAR
STARTCHAR 376a
ENCODING 14186
SWIDTH 822 0
DWIDTH 6 0
BBX 6 8 0 -2
BITMAP
20
f8
88
50
50
50
88
00
ENDCHAR
STARTCHAR 376b
ENCODING 14187
SWIDTH 822 0
DWIDTH 6 0
BBX 6 8 0 -2
BITMAP
50
b8
50
b8
40
d8
58
00
ENDCHAR
STARTCHAR 376c
ENCODING 14188
SWIDTH 822 0
DWIDTH 6 0
BBX 6 8 0 -2
BITMAP
20
78
58
58
58
58
f8
00
ENDCHAR
STARTCHAR 376d
ENCODING 14189
SWIDTH 822 0
DWIDTH 6 0
BBX 6 8 0 -2
BITMAP
90
f8
18
b8
10
d0
e8
00
ENDCHAR
STARTCHAR 376e
ENCODING 14190
SWIDTH 822 0
DWIDTH 6 0
BBX 6 8 0 -2
BITMAP
78
48
78
48
78
48
98
00
ENDCHAR
STARTCHAR 376f
ENCODING 14191
SWIDTH 822 0
DWIDTH 6 0
BBX 6 8 0 -2
BITMAP
70
78
d0
d0
78
50
50
00
ENDCHAR
STARTCHAR 3770
ENCODING 14192
SWIDTH 822 0
DWIDTH 6 0
BBX 6 8 0 -2
BITMAP
50
68
d0
f8
78
50
68
00
ENDCHAR
STARTCHAR 3771
ENCODING 14193
SWIDTH 822 0
DWIDTH 6 0
BBX 6 8 0 -2
BITMAP
68
50
f8
d0
68
50
58
00
ENDCHAR
STARTCHAR 3772
ENCODING 14194
SWIDTH 822 0
DWIDTH 6 0
BBX 6 8 0 -2
BITMAP
48
78
d8
e8
58
68
78
00
ENDCHAR
STARTCHAR 3773
ENCODING 14195
SWIDTH 822 0
DWIDTH 6 0
BBX 6 8 0 -2
BITMAP
50
f8
30
f8
38
70
a8
00
ENDCHAR
STARTCHAR 3774
ENCODING 14196
SWIDTH 822 0
DWIDTH 6 0
BBX 6 8 0 -2
BITMAP
a8
70
f8
50
88
30
50
00
ENDCHAR
STARTCHAR 3775
ENCODING 14197
SWIDTH 822 0
DWIDTH 6 0
BBX 6 8 0 -2
BITMAP
48
a8
48
e8
e8
48
a8
00
ENDCHAR
STARTCHAR 3776
ENCODING 14198
SWIDTH 822 0
DWIDTH 6 0
BBX 6 8 0 -2
BITMAP
10
f8
c8
f0
c0
30
78
00
ENDCHAR
STARTCHAR 3777
ENCODING 14199
SWIDTH 822 0
DWIDTH 6 0
BBX 6 8 0 -2
BITMAP
f8
d8
a8
d8
a8
b8
f8
00
ENDCHAR
STARTCHAR 3778
ENCODING 14200
SWIDTH 822 0
DWIDTH 6 0
BBX 6 8 0 -2
BITMAP
f8
e8
d0
28
70
20
f8
00
ENDCHAR
STARTCHAR 3779
ENCODING 14201
SWIDTH 822 0
DWIDTH 6 0
BBX 6 8 0 -2
BITMAP
a8
b8
d8
f8
d0
78
90
00
ENDCHAR
STARTCHAR 377a
ENCODING 14202
SWIDTH 822 0
DWIDTH 6 0
BBX 6 8 0 -2
BITMAP
d0
78
b8
50
f8
50
b8
00
ENDCHAR
STARTCHAR 377b
ENCODING 14203
SWIDTH 822 0
DWIDTH 6 0
BBX 6 8 0 -2
BITMAP
20
f8
a8
70
30
c8
b8
00
ENDCHAR
STARTCHAR 377c
ENCODING 14204
SWIDTH 822 0
DWIDTH 6 0
BBX 6 8 0 -2
BITMAP
f8
d0
e8
50
00
c8
b8
00
ENDCHAR
STARTCHAR 377d
ENCODING 14205
SWIDTH 822 0
DWIDTH 6 0
BBX 6 8 0 -2
BITMAP
a8
70
f8
50
b8
20
60
00
ENDCHAR
STARTCHAR 377e
ENCODING 14206
SWIDTH 822 0
DWIDTH 6 0
BBX 6 8 0 -2
BITMAP
68
d0
78
50
e8
50
d8
00
ENDCHAR
STARTCHAR 3821
ENCODING 14369
SWIDTH 822 0
DWIDTH 6 0
BBX 6 8 0 -2
BITMAP
50
e8
40
f8
f8
50
68
00
ENDCHAR
STARTCHAR 3822
ENCODING 14370
SWIDTH 822 0
DWIDTH 6 0
BBX 6 8 0 -2
BITMAP
60
f8
50
f8
f0
70
78
00
ENDCHAR
STARTCHAR 3823
ENCODING 14371
SWIDTH 822 0
DWIDTH 6 0
BBX 6 8 0 -2
BITMAP
20
f8
50
f8
c8
70
20
00
ENDCHAR
STARTCHAR 3824
ENCODING 14372
SWIDTH 822 0
DWIDTH 6 0
BBX 6 8 0 -2
BITMAP
28
20
f8
20
20
50
88
00
ENDCHAR
STARTCHAR 3825
ENCODING 14373
SWIDTH 822 0
DWIDTH 6 0
BBX 6 8 0 -2
BITMAP
50
f0
58
f0
f0
f0
a8
00
ENDCHAR
STARTCHAR 3826
ENCODING 14374
SWIDTH 822 0
DWIDTH 6 0
BBX 6 8 0 -2
BITMAP
f8
58
58
b8
58
58
28
00
ENDCHAR
STARTCHAR 3827
ENCODING 14375
SWIDTH 822 0
DWIDTH 6 0
BBX 6 8 0 -2
BITMAP
f8
68
78
a8
78
50
28
00
ENDCHAR
STARTCHAR 3828
ENCODING 14376
SWIDTH 822 0
DWIDTH 6 0
BBX 6 8 0 -2
BITMAP
58
98
40
b8
68
f8
68
00
ENDCHAR
STARTCHAR 3829
ENCODING 14377
SWIDTH 822 0
DWIDTH 6 0
BBX 6 8 0 -2
BITMAP
30
b0
b0
80
f8
20
a8
00
ENDCHAR
STARTCHAR 382a
ENCODING 14378
SWIDTH 822 0
DWIDTH 6 0
BBX 6 8 0 -2
BITMAP
f8
70
40
78
68
b8
28
00
ENDCHAR
STARTCHAR 382b
ENCODING 14379
SWIDTH 822 0
DWIDTH 6 0
BBX 6 8 0 -2
BITMAP
f8
88
f8
88
f8
50
98
00
ENDCHAR
STARTCHAR 382c
ENCODING 14380
SWIDTH 822 0
DWIDTH 6 0
BBX 6 8 0 -2
BITMAP
a8
f8
18
b8
10
f8
d0
00
ENDCHAR
STARTCHAR 382d
ENCODING 14381
SWIDTH 822 0
DWIDTH 6 0
BBX 6 8 0 -2
BITMAP
f8
e8
d0
28
70
70
88
00
ENDCHAR
STARTCHAR 382e
ENCODING 14382
SWIDTH 822 0
DWIDTH 6 0
BBX 6 8 0 -2
BITMAP
f8
50
d0
f8
50
d0
50
00
ENDCHAR
STARTCHAR 382f
ENCODING 14383
SWIDTH 822 0
DWIDTH 6 0
BBX 6 8 0 -2
BITMAP
90
78
58
f8
b0
b8
f8
00
ENDCHAR
STARTCHAR 3830
ENCODING 14384
SWIDTH 822 0
DWIDTH 6 0
BBX 6 8 0 -2
BITMAP
48
b8
d8
68
d8
68
f8
00
ENDCHAR
STARTCHAR 3831
ENCODING 14385
SWIDTH 822 0
DWIDTH 6 0
BBX 6 8 0 -2
BITMAP
d0
e8
80
f8
f8
90
a8
00
ENDCHAR
STARTCHAR 3832
ENCODING 14386
SWIDTH 822 0
DWIDTH 6 0
BBX 6 8 0 -2
BITMAP
f8
b0
58
f8
78
60
e8
00
ENDCHAR
STARTCHAR 3833
ENCODING 14387
SWIDTH 822 0
DWIDTH 6 0
BBX 6 8 0 -2
BITMAP
d0
a8
c0
b8
78
d0
68
00
ENDCHAR
STARTCHAR 3834
ENCODING 14388
SWIDTH 822 0
DWIDTH 6 0
BBX 6 8 0 -2
BITMAP
50
68
40
f8
b8
b0
e8
00
ENDCHAR
STARTCHAR 3835
ENCODING 14389
SWIDTH 822 0
DWIDTH 6 0
BBX 6 8 0 -2
BITMAP
70
00
f8
50
50
50
98
00
ENDCHAR
STARTCHAR 3836
ENCODING 14390
SWIDTH 822 0
DWIDTH 6 0
BBX 6 8 0 -2
BITMAP
f8
90
b8
b8
90
d8
b0
00
ENDCHAR
STARTCHAR 3837
ENCODING 14391
SWIDTH 822 0
DWIDTH 6 0
BBX 6 8 0 -2
BITMAP
a8
f8
80
d8
e8
d0
a8
00
ENDCHAR
STARTCHAR 3838
ENCODING 14392
SWIDTH 822 0
DWIDTH 6 0
BBX 6 8 0 -2
BITMAP
40
58
88
48
a8
e8
10
00
ENDCHAR
STARTCHAR 3839
ENCODING 14393
SWIDTH 822 0
DWIDTH 6 0
BBX 6 8 0 -2
BITMAP
d0
78
d0
a8
d0
60
f8
00
ENDCHAR
STARTCHAR 383a
ENCODING 14394
SWIDTH 822 0
DWIDTH 6 0
BBX 6 8 0 -2
BITMAP
90
78
d0
70
d8
f0
e8
00
ENDCHAR
STARTCHAR 383b
ENCODING 14395
SWIDTH 822 0
DWIDTH 6 0
BBX 6 8 0 -2
BITMAP
f8
50
f8
78
d0
f8
90
00
ENDCHAR
STARTCHAR 383c
ENCODING 14396
SWIDTH 822 0
DWIDTH 6 0
BBX 6 8 0 -2
BITMAP
20
f8
40
d0
20
50
e8
00
ENDCHAR
STARTCHAR 383d
ENCODING 14397
SWIDTH 822 0
DWIDTH 6 0
BBX 6 8 0 -2
BITMAP
38
e8
78
e8
78
d0
28
00
ENDCHAR
STARTCHAR 383e
ENCODING 14398
SWIDTH 822 0
DWIDTH 6 0
BBX 6 8 0 -2
BITMAP
50
b8
50
a8
50
e0
78
00
ENDCHAR
STARTCHAR 383f
ENCODING 14399
SWIDTH 822 0
DWIDTH 6 0
BBX 6 8 0 -2
BITMAP
50
f8
d0
e8
d0
e0
f8
00
ENDCHAR
STARTCHAR 3840
ENCODING 14400
SWIDTH 822 0
DWIDTH 6 0
BBX 6 8 0 -2
BITMAP
20
f8
00
70
00
70
70
00
ENDCHAR
STARTCHAR 3841
ENCODING 14401
SWIDTH 822 0
DWIDTH 6 0
BBX 6 8 0 -2
BITMAP
90
f8
28
f8
50
c8
d0
00
ENDCHAR
STARTCHAR 3842
ENCODING 14402
SWIDTH 822 0
DWIDTH 6 0
BBX 6 8 0 -2
BITMAP
f8
e8
b8
e0
e8
b0
a8
00
ENDCHAR
STARTCHAR 3843
ENCODING 14403
SWIDTH 822 0
DWIDTH 6 0
BBX 6 8 0 -2
BITMAP
18
e0
a8
20
f8
20
60
00
ENDCHAR
STARTCHAR 3844
ENCODING 14404
SWIDTH 822 0
DWIDTH 6 0
BBX 6 8 0 -2
BITMAP
78
58
f8
d8
68
78
78
00
ENDCHAR
STARTCHAR 3845
ENCODING 14405
SWIDTH 822 0
DWIDTH 6 0
BBX 6 8 0 -2
BITMAP
20
20
f8
20
70
50
70
00
ENDCHAR
STARTCHAR 3846
ENCODING 14406
SWIDTH 822 0
DWIDTH 6 0
BBX 6 8 0 -2
BITMAP
08
f0
d8
d0
f8
10
30
00
ENDCHAR
STARTCHAR 3847
ENCODING 14407
SWIDTH 822 0
DWIDTH 6 0
BBX 6 8 0 -2
BITMAP
f8
a8
f8
a8
d8
f8
f8
00
ENDCHAR
STARTCHAR 3848
ENCODING 14408
SWIDTH 822 0
DWIDTH 6 0
BBX 6 8 0 -2
BITMAP
90
90
f8
d0
f8
68
b8
00
ENDCHAR
STARTCHAR 3849
ENCODING 14409
SWIDTH 822 0
DWIDTH 6 0
BBX 6 8 0 -2
BITMAP
c8
70
a8
68
e8
78
e8
00
ENDCHAR
STARTCHAR 384a
ENCODING 14410
SWIDTH 822 0
DWIDTH 6 0
BBX 6 8 0 -2
BITMAP
f0
10
10
f0
80
88
78
00
ENDCHAR
STARTCHAR 384b
ENCODING 14411
SWIDTH 822 0
DWIDTH 6 0
BBX 6 8 0 -2
BITMAP
20
f8
90
f8
b0
f8
90
00
ENDCHAR
STARTCHAR 384c
ENCODING 14412
SWIDTH 822 0
DWIDTH 6 0
BBX 6 8 0 -2
BITMAP
c8
70
e8
a8
e8
78
e8
00
ENDCHAR
STARTCHAR 384d
ENCODING 14413
SWIDTH 822 0
DWIDTH 6 0
BBX 6 8 0 -2
BITMAP
f8
00
78
48
78
40
80
00
ENDCHAR
STARTCHAR 384e
ENCODING 14414
SWIDTH 822 0
DWIDTH 6 0
BBX 6 8 0 -2
BITMAP
50
d8
68
e8
a8
d0
28
00
ENDCHAR
STARTCHAR 384f
ENCODING 14415
SWIDTH 822 0
DWIDTH 6 0
BBX 6 8 0 -2
BITMAP
50
d0
78
d0
f8
68
78
00
ENDCHAR
STARTCHAR 3850
ENCODING 14416
SWIDTH 822 0
DWIDTH 6 0
BBX 6 8 0 -2
BITMAP
b8
78
b8
78
d8
f8
98
00
ENDCHAR
STARTCHAR 3851
ENCODING 14417
SWIDTH 822 0
DWIDTH 6 0
BBX 6 8 0 -2
BITMAP
88
70
e8
68
e8
78
a8
00
ENDCHAR
STARTCHAR 3852
ENCODING 14418
SWIDTH 822 0
DWIDTH 6 0
BBX 6 8 0 -2
BITMAP
b8
78
f8
78
d8
f8
58
00
ENDCHAR
STARTCHAR 3853
ENCODING 14419
SWIDTH 822 0
DWIDTH 6 0
BBX 6 8 0 -2
BITMAP
50
f8
50
a8
50
58
48
00
ENDCHAR
STARTCHAR 3854
ENCODING 14420
SWIDTH 822 0
DWIDTH 6 0
BBX 6 8 0 -2
BITMAP
f8
e8
c0
f8
e8
d0
a8
00
ENDCHAR
STARTCHAR 3855
ENCODING 14421
SWIDTH 822 0
DWIDTH 6 0
BBX 6 8 0 -2
BITMAP
78
e8
78
e8
b8
e8
28
00
ENDCHAR
STARTCHAR 3856
ENCODING 14422
SWIDTH 822 0
DWIDTH 6 0
BBX 6 8 0 -2
BITMAP
50
f8
f0
68
a8
78
e8
00
ENDCHAR
STARTCHAR 3857
ENCODING 14423
SWIDTH 822 0
DWIDTH 6 0
BBX 6 8 0 -2
BITMAP
20
38
e0
b8
80
b0
d8
00
ENDCHAR
STARTCHAR 3858
ENCODING 14424
SWIDTH 822 0
DWIDTH 6 0
BBX 6 8 0 -2
BITMAP
90
f8
10
a8
10
d8
c8
00
ENDCHAR
STARTCHAR 3859
ENCODING 14425
SWIDTH 822 0
DWIDTH 6 0
BBX 6 8 0 -2
BITMAP
d0
b8
d0
68
d0
d8
c8
00
ENDCHAR
STARTCHAR 385a
ENCODING 14426
SWIDTH 822 0
DWIDTH 6 0
BBX 6 8 0 -2
BITMAP
50
b0
f8
50
f8
68
f8
00
ENDCHAR
STARTCHAR 385b
ENCODING 14427
SWIDTH 822 0
DWIDTH 6 0
BBX 6 8 0 -2
BITMAP
f8
70
40
68
78
70
b8
00
ENDCHAR
STARTCHAR 385c
ENCODING 14428
SWIDTH 822 0
DWIDTH 6 0
BBX 6 8 0 -2
BITMAP
f8
70
58
78
f8
60
68
00
ENDCHAR
STARTCHAR 385d
ENCODING 14429
SWIDTH 822 0
DWIDTH 6 0
BBX 6 8 0 -2
BITMAP
50
f8
50
b8
e8
50
e8
00
ENDCHAR
STARTCHAR 385e
ENCODING 14430
SWIDTH 822 0
DWIDTH 6 0
BBX 6 8 0 -2
BITMAP
70
20
20
f0
50
50
f8
00
ENDCHAR
STARTCHAR 385f
ENCODING 14431
SWIDTH 822 0
DWIDTH 6 0
BBX 6 8 0 -2
BITMAP
f8
20
30
50
60
20
f8
00
ENDCHAR
STARTCHAR 3860
ENCODING 14432
SWIDTH 822 0
DWIDTH 6 0
BBX 6 8 0 -2
BITMAP
78
50
d0
f8
58
58
78
00
ENDCHAR
STARTCHAR 3861
ENCODING 14433
SWIDTH 822 0
DWIDTH 6 0
BBX 6 8 0 -2
BITMAP
40
78
a0
20
f8
20
20
00
ENDCHAR
STARTCHAR 3862
ENCODING 14434
SWIDTH 822 0
DWIDTH 6 0
BBX 6 8 0 -2
BITMAP
38
a8
f8
10
f8
00
88
00
ENDCHAR
STARTCHAR 3863
ENCODING 14435
SWIDTH 822 0
DWIDTH 6 0
BBX 6 8 0 -2
BITMAP
70
20
f0
50
f8
50
70
00
ENDCHAR
STARTCHAR 3864
ENCODING 14436
SWIDTH 822 0
DWIDTH 6 0
BBX 6 8 0 -2
BITMAP
98
98
f0
d0
f8
40
a8
00
ENDCHAR
STARTCHAR 3865
ENCODING 14437
SWIDTH 822 0
DWIDTH 6 0
BBX 6 8 0 -2
BITMAP
50
a0
50
d8
68
50
68
00
ENDCHAR
STARTCHAR 3866
ENCODING 14438
SWIDTH 822 0
DWIDTH 6 0
BBX 6 8 0 -2
BITMAP
68
b8
58
f8
58
78
48
00
ENDCHAR
STARTCHAR 3867
ENCODING 14439
SWIDTH 822 0
DWIDTH 6 0
BBX 6 8 0 -2
BITMAP
78
d0
f8
58
40
58
58
00
ENDCHAR
STARTCHAR 3868
ENCODING 14440
SWIDTH 822 0
DWIDTH 6 0
BBX 6 8 0 -2
BITMAP
78
d0
78
d8
c0
58
58
00
ENDCHAR
STARTCHAR 3869
ENCODING 14441
SWIDTH 822 0
DWIDTH 6 0
BBX 6 8 0 -2
BITMAP
50
e8
58
d8
f8
78
68
00
ENDCHAR
STARTCHAR 386a
ENCODING 14442
SWIDTH 822 0
DWIDTH 6 0
BBX 6 8 0 -2
BITMAP
38
f8
78
f8
58
f8
18
00
ENDCHAR
STARTCHAR 386b
ENCODING 14443
SWIDTH 822 0
DWIDTH 6 0
BBX 6 8 0 -2
BITMAP
50
f8
50
70
88
70
b0
00
ENDCHAR
STARTCHAR 386c
ENCODING 14444
SWIDTH 822 0
DWIDTH 6 0
BBX 6 8 0 -2
BITMAP
b8
d0
38
d8
00
d8
d8
00
ENDCHAR
STARTCHAR 386d
ENCODING 14445
SWIDTH 822 0
DWIDTH 6 0
BBX 6 8 0 -2
BITMAP
58
d8
30
d0
38
c0
e8
00
ENDCHAR
STARTCHAR 386e
ENCODING 14446
SWIDTH 822 0
DWIDTH 6 0
BBX 6 8 0 -2
BITMAP
a8
f8
30
b8
28
d0
e8
00
ENDCHAR
STARTCHAR 386f
ENCODING 14447
SWIDTH 822 0
DWIDTH 6 0
BBX 6 8 0 -2
BITMAP
d8
78
f8
f8
d8
f8
d8
00
ENDCHAR
STARTCHAR 3870
ENCODING 14448
SWIDTH 822 0
DWIDTH 6 0
BBX 6 8 0 -2
BITMAP
40
78
80
70
20
48
38
00
ENDCHAR
STARTCHAR 3871
ENCODING 14449
SWIDTH 822 0
DWIDTH 6 0
BBX 6 8 0 -2
BITMAP
f8
78
f8
d0
f8
10
b8
00
ENDCHAR
STARTCHAR 3872
ENCODING 14450
SWIDTH 822 0
DWIDTH 6 0
BBX 6 8 0 -2
BITMAP
20
f8
50
88
50
20
d8
00
ENDCHAR
STARTCHAR 3873
ENCODING 14451
SWIDTH 822 0
DWIDTH 6 0
BBX 6 8 0 -2
BITMAP
50
78
e8
c0
68
50
68
00
ENDCHAR
STARTCHAR 3874
ENCODING 14452
SWIDTH 822 0
DWIDTH 6 0
BBX 6 8 0 -2
BITMAP
58
48
f8
d0
78
50
68
00
ENDCHAR
STARTCHAR 3875
ENCODING 14453
SWIDTH 822 0
DWIDTH 6 0
BBX 6 8 0 -2
BITMAP
58
48
f8
f0
78
50
68
00
ENDCHAR
STARTCHAR 3876
ENCODING 14454
SWIDTH 822 0
DWIDTH 6 0
BBX 6 8 0 -2
BITMAP
50
78
f8
e8
78
78
50
00
ENDCHAR
STARTCHAR 3877
ENCODING 14455
SWIDTH 822 0
DWIDTH 6 0
BBX 6 8 0 -2
BITMAP
20
a8
20
f8
50
50
98
00
ENDCHAR
STARTCHAR 3878
ENCODING 14456
SWIDTH 822 0
DWIDTH 6 0
BBX 6 8 0 -2
BITMAP
50
50
88
20
20
50
e8
00
ENDCHAR
STARTCHAR 3879
ENCODING 14457
SWIDTH 822 0
DWIDTH 6 0
BBX 6 8 0 -2
BITMAP
10
f8
58
58
d8
28
28
00
ENDCHAR
STARTCHAR 387a
ENCODING 14458
SWIDTH 822 0
DWIDTH 6 0
BBX 6 8 0 -2
BITMAP
50
f8
b8
18
b8
58
a8
00
ENDCHAR
STARTCHAR 387b
ENCODING 14459
SWIDTH 822 0
DWIDTH 6 0
BBX 6 8 0 -2
BITMAP
40
78
a8
28
58
e8
18
00
ENDCHAR
STARTCHAR 387c
ENCODING 14460
SWIDTH 822 0
DWIDTH 6 0
BBX 6 8 0 -2
BITMAP
f8
b0
b0
90
f8
90
b0
00
ENDCHAR
STARTCHAR 387d
ENCODING 14461
SWIDTH 822 0
DWIDTH 6 0
BBX 6 8 0 -2
BITMAP
00
f8
88
88
88
f8
88
00
ENDCHAR
STARTCHAR 387e
ENCODING 14462
SWIDTH 822 0
DWIDTH 6 0
BBX 6 8 0 -2
BITMAP
20
f8
88
f8
d8
f8
88
00
ENDCHAR
STARTCHAR 3921
ENCODING 14625
SWIDTH 822 0
DWIDTH 6 0
BBX 6 8 0 -2
BITMAP
08
70
40
78
40
58
98
00
ENDCHAR
STARTCHAR 3922
ENCODING 14626
SWIDTH 822 0
DWIDTH 6 0
BBX 6 8 0 -2
BITMAP
58
c8
f8
d0
f8
50
68
00
ENDCHAR
STARTCHAR 3923
ENCODING 14627
SWIDTH 822 0
DWIDTH 6 0
BBX 6 8 0 -2
BITMAP
50
78
c0
78
68
e8
28
00
ENDCHAR
STARTCHAR 3924
ENCODING 14628
SWIDTH 822 0
DWIDTH 6 0
BBX 6 8 0 -2
BITMAP
48
70
c0
58
40
d8
18
00
ENDCHAR
STARTCHAR 3925
ENCODING 14629
SWIDTH 822 0
DWIDTH 6 0
BBX 6 8 0 -2
BITMAP
b8
88
d0
f8
d0
50
b0
00
ENDCHAR
STARTCHAR 3926
ENCODING 14630
SWIDTH 822 0
DWIDTH 6 0
BBX 6 8 0 -2
BITMAP
f0
30
50
70
d0
50
d8
00
ENDCHAR
STARTCHAR 3927
ENCODING 14631
SWIDTH 822 0
DWIDTH 6 0
BBX 6 8 0 -2
BITMAP
28
70
20
f8
50
b8
20
00
ENDCHAR
STARTCHAR 3928
ENCODING 14632
SWIDTH 822 0
DWIDTH 6 0
BBX 6 8 0 -2
BITMAP
20
f8
a8
f0
40
90
38
00
ENDCHAR
STARTCHAR 3929
ENCODING 14633
SWIDTH 822 0
DWIDTH 6 0
BBX 6 8 0 -2
BITMAP
00
70
20
20
20
20
f8
00
ENDCHAR
STARTCHAR 392a
ENCODING 14634
SWIDTH 822 0
DWIDTH 6 0
BBX 6 8 0 -2
BITMAP
38
d0
50
58
48
c8
18
00
ENDCHAR
STARTCHAR 392b
ENCODING 14635
SWIDTH 822 0
DWIDTH 6 0
BBX 6 8 0 -2
BITMAP
50
f8
50
f0
68
c0
70
00
ENDCHAR
STARTCHAR 392c
ENCODING 14636
SWIDTH 822 0
DWIDTH 6 0
BBX 6 8 0 -2
BITMAP
20
70
f8
50
f8
70
20
00
ENDCHAR
STARTCHAR 392d
ENCODING 14637
SWIDTH 822 0
DWIDTH 6 0
BBX 6 8 0 -2
BITMAP
20
f8
80
90
90
a8
b8
00
ENDCHAR
STARTCHAR 392e
ENCODING 14638
SWIDTH 822 0
DWIDTH 6 0
BBX 6 8 0 -2
BITMAP
20
f8
b0
98
b8
90
a8
00
ENDCHAR
STARTCHAR 392f
ENCODING 14639
SWIDTH 822 0
DWIDTH 6 0
BBX 6 8 0 -2
BITMAP
20
f8
b0
f0
a8
f0
a8
00
ENDCHAR
STARTCHAR 3930
ENCODING 14640
SWIDTH 822 0
DWIDTH 6 0
BBX 6 8 0 -2
BITMAP
d0
50
d0
90
e0
68
f8
00
ENDCHAR
STARTCHAR 3931
ENCODING 14641
SWIDTH 822 0
DWIDTH 6 0
BBX 6 8 0 -2
BITMAP
78
c0
d8
58
58
40
78
00
ENDCHAR
STARTCHAR 3932
ENCODING 14642
SWIDTH 822 0
DWIDTH 6 0
BBX 6 8 0 -2
BITMAP
68
f8
e0
78
40
68
68
00
ENDCHAR
STARTCHAR 3933
ENCODING 14643
SWIDTH 822 0
DWIDTH 6 0
BBX 6 8 0 -2
BITMAP
50
f8
40
78
e8
68
c8
00
ENDCHAR
STARTCHAR 3934
ENCODING 14644
SWIDTH 822 0
DWIDTH 6 0
BBX 6 8 0 -2
BITMAP
60
f8
48
58
d8
48
d8
00
ENDCHAR
STARTCHAR 3935
ENCODING 14645
SWIDTH 822 0
DWIDTH 6 0
BBX 6 8 0 -2
BITMAP
50
f8
68
40
f8
50
f8
00
ENDCHAR
STARTCHAR 3936
ENCODING 14646
SWIDTH 822 0
DWIDTH 6 0
BBX 6 8 0 -2
BITMAP
10
d8
68
68
68
d0
28
00
ENDCHAR
STARTCHAR 3937
ENCODING 14647
SWIDTH 822 0
DWIDTH 6 0
BBX 6 8 0 -2
BITMAP
f8
88
f8
40
98
d8
10
00
ENDCHAR
STARTCHAR 3938
ENCODING 14648
SWIDTH 822 0
DWIDTH 6 0
BBX 6 8 0 -2
BITMAP
f8
f8
20
a8
f8
50
98
00
ENDCHAR
STARTCHAR 3939
ENCODING 14649
SWIDTH 822 0
DWIDTH 6 0
BBX 6 8 0 -2
BITMAP
f8
70
70
20
60
20
d8
00
ENDCHAR
STARTCHAR 393a
ENCODING 14650
SWIDTH 822 0
DWIDTH 6 0
BBX 6 8 0 -2
BITMAP
50
f8
40
f8
e8
68
48
00
ENDCHAR
STARTCHAR 393b
ENCODING 14651
SWIDTH 822 0
DWIDTH 6 0
BBX 6 8 0 -2
BITMAP
50
f8
68
c0
e8
50
68
00
ENDCHAR
STARTCHAR 393c
ENCODING 14652
SWIDTH 822 0
DWIDTH 6 0
BBX 6 8 0 -2
BITMAP
78
d0
78
f8
f0
50
68
00
ENDCHAR
STARTCHAR 393d
ENCODING 14653
SWIDTH 822 0
DWIDTH 6 0
BBX 6 8 0 -2
BITMAP
68
f8
68
f8
f8
78
68
00
ENDCHAR
STARTCHAR 393e
ENCODING 14654
SWIDTH 822 0
DWIDTH 6 0
BBX 6 8 0 -2
BITMAP
80
38
90
10
90
90
b8
00
ENDCHAR
STARTCHAR 393f
ENCODING 14655
SWIDTH 822 0
DWIDTH 6 0
BBX 6 8 0 -2
BITMAP
a8
78
a8
28
f8
80
a8
00
ENDCHAR
STARTCHAR 3940
ENCODING 14656
SWIDTH 822 0
DWIDTH 6 0
BBX 6 8 0 -2
BITMAP
b0
38
d0
38
80
b8
b8
00
ENDCHAR
STARTCHAR 3941
ENCODING 14657
SWIDTH 822 0
DWIDTH 6 0
BBX 6 8 0 -2
BITMAP
a8
78
a8
70
a8
d0
98
00
ENDCHAR
STARTCHAR 3942
ENCODING 14658
SWIDTH 822 0
DWIDTH 6 0
BBX 6 8 0 -2
BITMAP
a8
78
a8
78
b8
f8
a8
00
ENDCHAR
STARTCHAR 3943
ENCODING 14659
SWIDTH 822 0
DWIDTH 6 0
BBX 6 8 0 -2
BITMAP
f8
a8
f8
a8
f8
20
20
00
ENDCHAR
STARTCHAR 3944
ENCODING 14660
SWIDTH 822 0
DWIDTH 6 0
BBX 6 8 0 -2
BITMAP
20
70
50
70
f8
20
f8
00
ENDCHAR
STARTCHAR 3945
ENCODING 14661
SWIDTH 822 0
DWIDTH 6 0
BBX 6 8 0 -2
BITMAP
f8
50
78
b8
70
50
28
00
ENDCHAR
STARTCHAR 3946
ENCODING 14662
SWIDTH 822 0
DWIDTH 6 0
BBX 6 8 0 -2
BITMAP
d0
78
d8
40
f8
f8
68
00
ENDCHAR
STARTCHAR 3947
ENCODING 14663
SWIDTH 822 0
DWIDTH 6 0
BBX 6 8 0 -2
BITMAP
90
78
d8
58
f0
d8
70
00
ENDCHAR
STARTCHAR 3948
ENCODING 14664
SWIDTH 822 0
DWIDTH 6 0
BBX 6 8 0 -2
BITMAP
40
b8
50
90
50
d0
78
00
ENDCHAR
STARTCHAR 3949
ENCODING 14665
SWIDTH 822 0
DWIDTH 6 0
BBX 6 8 0 -2
BITMAP
60
b8
60
a8
68
d0
58
00
ENDCHAR
STARTCHAR 394a
ENCODING 14666
SWIDTH 822 0
DWIDTH 6 0
BBX 6 8 0 -2
BITMAP
50
b8
68
80
68
d0
68
00
ENDCHAR
STARTCHAR 394b
ENCODING 14667
SWIDTH 822 0
DWIDTH 6 0
BBX 6 8 0 -2
BITMAP
78
a8
78
b8
78
f8
68
00
ENDCHAR
STARTCHAR 394c
ENCODING 14668
SWIDTH 822 0
DWIDTH 6 0
BBX 6 8 0 -2
BITMAP
58
f8
58
d8
78
d8
68
00
ENDCHAR
STARTCHAR 394d
ENCODING 14669
SWIDTH 822 0
DWIDTH 6 0
BBX 6 8 0 -2
BITMAP
28
70
20
f8
60
b8
08
00
ENDCHAR
STARTCHAR 394e
ENCODING 14670
SWIDTH 822 0
DWIDTH 6 0
BBX 6 8 0 -2
BITMAP
10
58
50
f8
50
70
50
00
ENDCHAR
STARTCHAR 394f
ENCODING 14671
SWIDTH 822 0
DWIDTH 6 0
BBX 6 8 0 -2
BITMAP
e0
f8
e0
e8
e8
d0
d8
00
ENDCHAR
STARTCHAR 3950
ENCODING 14672
SWIDTH 822 0
DWIDTH 6 0
BBX 6 8 0 -2
BITMAP
d0
f8
e8
c0
f8
d0
f8
00
ENDCHAR
STARTCHAR 3951
ENCODING 14673
SWIDTH 822 0
DWIDTH 6 0
BBX 6 8 0 -2
BITMAP
20
f8
50
f8
f8
70
50
00
ENDCHAR
STARTCHAR 3952
ENCODING 14674
SWIDTH 822 0
DWIDTH 6 0
BBX 6 8 0 -2
BITMAP
50
f8
c0
f8
e8
e8
c8
00
ENDCHAR
STARTCHAR 3953
ENCODING 14675
SWIDTH 822 0
DWIDTH 6 0
BBX 6 8 0 -2
BITMAP
50
f8
40
70
00
68
a8
00
ENDCHAR
STARTCHAR 3954
ENCODING 14676
SWIDTH 822 0
DWIDTH 6 0
BBX 6 8 0 -2
BITMAP
58
80
78
c8
48
48
58
00
ENDCHAR
STARTCHAR 3955
ENCODING 14677
SWIDTH 822 0
DWIDTH 6 0
BBX 6 8 0 -2
BITMAP
48
b0
58
f8
78
58
68
00
ENDCHAR
STARTCHAR 3956
ENCODING 14678
SWIDTH 822 0
DWIDTH 6 0
BBX 6 8 0 -2
BITMAP
a8
f8
28
b8
38
f8
e8
00
ENDCHAR
STARTCHAR 3957
ENCODING 14679
SWIDTH 822 0
DWIDTH 6 0
BBX 6 8 0 -2
BITMAP
70
20
f8
70
50
70
88
00
ENDCHAR
STARTCHAR 3958
ENCODING 14680
SWIDTH 822 0
DWIDTH 6 0
BBX 6 8 0 -2
BITMAP
e8
b8
e8
b8
f8
38
a8
00
ENDCHAR
STARTCHAR 3959
ENCODING 14681
SWIDTH 822 0
DWIDTH 6 0
BBX 6 8 0 -2
BITMAP
58
f8
b0
18
b8
50
b0
00
ENDCHAR
STARTCHAR 395a
ENCODING 14682
SWIDTH 822 0
DWIDTH 6 0
BBX 6 8 0 -2
BITMAP
d0
78
d0
d8
e8
d8
c8
00
ENDCHAR
STARTCHAR 395b
ENCODING 14683
SWIDTH 822 0
DWIDTH 6 0
BBX 6 8 0 -2
BITMAP
50
b8
e0
68
e8
50
d8
00
ENDCHAR
STARTCHAR 395c
ENCODING 14684
SWIDTH 822 0
DWIDTH 6 0
BBX 6 8 0 -2
BITMAP
d0
78
60
a8
68
70
18
00
ENDCHAR
STARTCHAR 395d
ENCODING 14685
SWIDTH 822 0
DWIDTH 6 0
BBX 6 8 0 -2
BITMAP
78
a8
f8
78
f8
78
e8
00
ENDCHAR
STARTCHAR 395e
ENCODING 14686
SWIDTH 822 0
DWIDTH 6 0
BBX 6 8 0 -2
BITMAP
d8
d8
88
a8
d8
b8
b8
00
ENDCHAR
STARTCHAR 395f
ENCODING 14687
SWIDTH 822 0
DWIDTH 6 0
BBX 6 8 0 -2
BITMAP
d8
e8
90
e8
d0
b8
90
00
ENDCHAR
STARTCHAR 3960
ENCODING 14688
SWIDTH 822 0
DWIDTH 6 0
BBX 6 8 0 -2
BITMAP
38
d0
78
68
78
c0
28
00
ENDCHAR
STARTCHAR 3961
ENCODING 14689
SWIDTH 822 0
DWIDTH 6 0
BBX 6 8 0 -2
BITMAP
10
60
f8
70
a8
70
70
00
ENDCHAR
STARTCHAR 3962
ENCODING 14690
SWIDTH 822 0
DWIDTH 6 0
BBX 6 8 0 -2
BITMAP
20
f8
50
70
f8
88
a8
00
ENDCHAR
STARTCHAR 3963
ENCODING 14691
SWIDTH 822 0
DWIDTH 6 0
BBX 6 8 0 -2
BITMAP
90
78
b8
30
b8
e8
98
00
ENDCHAR
STARTCHAR 3964
ENCODING 14692
SWIDTH 822 0
DWIDTH 6 0
BBX 6 8 0 -2
BITMAP
e8
a8
e8
e8
e8
e8
a8
00
ENDCHAR
STARTCHAR 3965
ENCODING 14693
SWIDTH 822 0
DWIDTH 6 0
BBX 6 8 0 -2
BITMAP
50
f8
58
f8
58
a8
e8
00
ENDCHAR
STARTCHAR 3966
ENCODING 14694
SWIDTH 822 0
DWIDTH 6 0
BBX 6 8 0 -2
BITMAP
70
50
f8
40
70
10
30
00
ENDCHAR
STARTCHAR 3967
ENCODING 14695
SWIDTH 822 0
DWIDTH 6 0
BBX 6 8 0 -2
BITMAP
20
50
b8
00
70
50
70
00
ENDCHAR
STARTCHAR 3968
ENCODING 14696
SWIDTH 822 0
DWIDTH 6 0
BBX 6 8 0 -2
BITMAP
50
78
e8
78
70
d8
30
00
ENDCHAR
STARTCHAR 3969
ENCODING 14697
SWIDTH 822 0
DWIDTH 6 0
BBX 6 8 0 -2
BITMAP
50
f8
50
58
f0
58
c8
00
ENDCHAR
STARTCHAR 396a
ENCODING 14698
SWIDTH 822 0
DWIDTH 6 0
BBX 6 8 0 -2
BITMAP
90
78
a8
78
b0
d8
b0
00
ENDCHAR
STARTCHAR 396b
ENCODING 14699
SWIDTH 822 0
DWIDTH 6 0
BBX 6 8 0 -2
BITMAP
20
f8
50
f8
68
b0
68
00
ENDCHAR
STARTCHAR 396c
ENCODING 14700
SWIDTH 822 0
DWIDTH 6 0
BBX 6 8 0 -2
BITMAP
20
f8
70
f8
d8
f8
48
00
ENDCHAR
STARTCHAR 396d
ENCODING 14701
SWIDTH 822 0
DWIDTH 6 0
BBX 6 8 0 -2
BITMAP
60
f8
68
58
a8
58
b8
00
ENDCHAR
STARTCHAR 396e
ENCODING 14702
SWIDTH 822 0
DWIDTH 6 0
BBX 6 8 0 -2
BITMAP
20
f8
78
48
78
50
98
00
ENDCHAR
STARTCHAR 396f
ENCODING 14703
SWIDTH 822 0
DWIDTH 6 0
BBX 6 8 0 -2
BITMAP
48
e8
88
48
a8
48
a8
00
ENDCHAR
STARTCHAR 3970
ENCODING 14704
SWIDTH 822 0
DWIDTH 6 0
BBX 6 8 0 -2
BITMAP
60
78
a0
f8
00
70
70
00
ENDCHAR
STARTCHAR 3971
ENCODING 14705
SWIDTH 822 0
DWIDTH 6 0
BBX 6 8 0 -2
BITMAP
f8
f8
a8
f8
a8
f8
f8
00
ENDCHAR
STARTCHAR 3972
ENCODING 14706
SWIDTH 822 0
DWIDTH 6 0
BBX 6 8 0 -2
BITMAP
58
e8
40
f8
a8
d0
68
00
ENDCHAR
STARTCHAR 3973
ENCODING 14707
SWIDTH 822 0
DWIDTH 6 0
BBX 6 8 0 -2
BITMAP
f0
78
d0
f8
c0
d8
d8
00
ENDCHAR
STARTCHAR 3974
ENCODING 14708
SWIDTH 822 0
DWIDTH 6 0
BBX 6 8 0 -2
BITMAP
c8
f8
58
f0
18
e8
e8
00
ENDCHAR
STARTCHAR 3975
ENCODING 14709
SWIDTH 822 0
DWIDTH 6 0
BBX 6 8 0 -2
BITMAP
f8
a8
f8
20
f8
00
a8
00
ENDCHAR
STARTCHAR 3976
ENCODING 14710
SWIDTH 822 0
DWIDTH 6 0
BBX 6 8 0 -2
BITMAP
b0
70
d8
70
d0
70
a8
00
ENDCHAR
STARTCHAR 3977
ENCODING 14711
SWIDTH 822 0
DWIDTH 6 0
BBX 6 8 0 -2
BITMAP
90
78
d8
78
c0
f0
b8
00
ENDCHAR
STARTCHAR 3978
ENCODING 14712
SWIDTH 822 0
DWIDTH 6 0
BBX 6 8 0 -2
BITMAP
f8
f0
f0
e0
f8
d0
e8
00
ENDCHAR
STARTCHAR 3979
ENCODING 14713
SWIDTH 822 0
DWIDTH 6 0
BBX 6 8 0 -2
BITMAP
b8
10
d8
d8
18
d8
e8
00
ENDCHAR
STARTCHAR 397a
ENCODING 14714
SWIDTH 822 0
DWIDTH 6 0
BBX 6 8 0 -2
BITMAP
40
78
a8
28
50
c8
b8
00
ENDCHAR
STARTCHAR 397b
ENCODING 14715
SWIDTH 822 0
DWIDTH 6 0
BBX 6 8 0 -2
BITMAP
50
d8
e8
58
40
68
58
00
ENDCHAR
STARTCHAR 397c
ENCODING 14716
SWIDTH 822 0
DWIDTH 6 0
BBX 6 8 0 -2
BITMAP
70
50
f8
88
70
70
50
00
ENDCHAR
STARTCHAR 397d
ENCODING 14717
SWIDTH 822 0
DWIDTH 6 0
BBX 6 8 0 -2
BITMAP
90
78
e8
78
e8
68
b8
00
ENDCHAR
STARTCHAR 397e
ENCODING 14718
SWIDTH 822 0
DWIDTH 6 0
BBX 6 8 0 -2
BITMAP
b0
10
10
b0
c8
80
f8
00
ENDCHAR
STARTCHAR 3a21
ENCODING 14881
SWIDTH 822 0
DWIDTH 6 0
BBX 6 8 0 -2
BITMAP
50
50
78
d0
d0
f0
d8
00
ENDCHAR
STARTCHAR 3a22
ENCODING 14882
SWIDTH 822 0
DWIDTH 6 0
BBX 6 8 0 -2
BITMAP
b8
90
f8
a8
b8
c0
28
00
ENDCHAR
STARTCHAR 3a23
ENCODING 14883
SWIDTH 822 0
DWIDTH 6 0
BBX 6 8 0 -2
BITMAP
20
50
b8
00
f8
10
60
00
ENDCHAR
STARTCHAR 3a24
ENCODING 14884
SWIDTH 822 0
DWIDTH 6 0
BBX 6 8 0 -2
BITMAP
f8
a8
f8
a8
f8
a8
f8
00
ENDCHAR
STARTCHAR 3a25
ENCODING 14885
SWIDTH 822 0
DWIDTH 6 0
BBX 6 8 0 -2
BITMAP
50
78
f8
78
78
f8
10
00
ENDCHAR
STARTCHAR 3a26
ENCODING 14886
SWIDTH 822 0
DWIDTH 6 0
BBX 6 8 0 -2
BITMAP
38
d8
50
b8
50
20
f8
00
ENDCHAR
STARTCHAR 3a27
ENCODING 14887
SWIDTH 822 0
DWIDTH 6 0
BBX 6 8 0 -2
BITMAP
b8
b0
f8
f0
e8
58
98
00
ENDCHAR
STARTCHAR 3a28
ENCODING 14888
SWIDTH 822 0
DWIDTH 6 0
BBX 6 8 0 -2
BITMAP
78
e8
f8
60
68
70
68
00
ENDCHAR
STARTCHAR 3a29
ENCODING 14889
SWIDTH 822 0
DWIDTH 6 0
BBX 6 8 0 -2
BITMAP
38
d8
50
b8
50
c8
b8
00
ENDCHAR
STARTCHAR 3a2a
ENCODING 14890
SWIDTH 822 0
DWIDTH 6 0
BBX 6 8 0 -2
BITMAP
f0
a0
f8
90
c8
70
70
00
ENDCHAR
STARTCHAR 3a2b
ENCODING 14891
SWIDTH 822 0
DWIDTH 6 0
BBX 6 8 0 -2
BITMAP
70
50
70
90
d8
90
d8
00
ENDCHAR
STARTCHAR 3a2c
ENCODING 14892
SWIDTH 822 0
DWIDTH 6 0
BBX 6 8 0 -2
BITMAP
78
e8
78
e0
e8
70
68
00
ENDCHAR
STARTCHAR 3a2d
ENCODING 14893
SWIDTH 822 0
DWIDTH 6 0
BBX 6 8 0 -2
BITMAP
78
d8
78
d8
f8
58
78
00
ENDCHAR
STARTCHAR 3a2e
ENCODING 14894
SWIDTH 822 0
DWIDTH 6 0
BBX 6 8 0 -2
BITMAP
b8
28
b8
30
b8
b0
b8
00
ENDCHAR
STARTCHAR 3a2f
ENCODING 14895
SWIDTH 822 0
DWIDTH 6 0
BBX 6 8 0 -2
BITMAP
10
78
f0
70
e8
70
a8
00
ENDCHAR
STARTCHAR 3a30
ENCODING 14896
SWIDTH 822 0
DWIDTH 6 0
BBX 6 8 0 -2
BITMAP
68
b8
68
b8
68
e8
78
00
ENDCHAR
STARTCHAR 3a31
ENCODING 14897
SWIDTH 822 0
DWIDTH 6 0
BBX 6 8 0 -2
BITMAP
f8
88
f8
88
f8
a0
d8
00
ENDCHAR
STARTCHAR 3a32
ENCODING 14898
SWIDTH 822 0
DWIDTH 6 0
BBX 6 8 0 -2
BITMAP
d0
38
f8
78
b0
d0
28
00
ENDCHAR
STARTCHAR 3a33
ENCODING 14899
SWIDTH 822 0
DWIDTH 6 0
BBX 6 8 0 -2
BITMAP
90
d8
90
d8
70
00
f8
00
ENDCHAR
STARTCHAR 3a34
ENCODING 14900
SWIDTH 822 0
DWIDTH 6 0
BBX 6 8 0 -2
BITMAP
50
78
d0
e0
78
50
78
00
ENDCHAR
STARTCHAR 3a35
ENCODING 14901
SWIDTH 822 0
DWIDTH 6 0
BBX 6 8 0 -2
BITMAP
f8
28
88
50
20
50
88
00
ENDCHAR
STARTCHAR 3a36
ENCODING 14902
SWIDTH 822 0
DWIDTH 6 0
BBX 6 8 0 -2
BITMAP
28
f8
e8
d8
e8
10
28
00
ENDCHAR
STARTCHAR 3a37
ENCODING 14903
SWIDTH 822 0
DWIDTH 6 0
BBX 6 8 0 -2
BITMAP
68
78
50
f8
f8
d0
38
00
ENDCHAR
STARTCHAR 3a38
ENCODING 14904
SWIDTH 822 0
DWIDTH 6 0
BBX 6 8 0 -2
BITMAP
20
f8
40
78
50
90
78
00
ENDCHAR
STARTCHAR 3a39
ENCODING 14905
SWIDTH 822 0
DWIDTH 6 0
BBX 6 8 0 -2
BITMAP
50
f8
20
f8
78
50
b8
00
ENDCHAR
STARTCHAR 3a3a
ENCODING 14906
SWIDTH 822 0
DWIDTH 6 0
BBX 6 8 0 -2
BITMAP
20
f8
70
a8
70
50
f8
00
ENDCHAR
STARTCHAR 3a3b
ENCODING 14907
SWIDTH 822 0
DWIDTH 6 0
BBX 6 8 0 -2
BITMAP
90
30
b8
50
88
90
a0
00
ENDCHAR
STARTCHAR 3a3c
ENCODING 14908
SWIDTH 822 0
DWIDTH 6 0
BBX 6 8 0 -2
BITMAP
28
f8
50
f8
78
d0
38
00
ENDCHAR
STARTCHAR 3a3d
ENCODING 14909
SWIDTH 822 0
DWIDTH 6 0
BBX 6 8 0 -2
BITMAP
d0
70
78
90
60
68
10
00
ENDCHAR
STARTCHAR 3a3e
ENCODING 14910
SWIDTH 822 0
DWIDTH 6 0
BBX 6 8 0 -2
BITMAP
50
d8
30
d8
10
d8
d0
00
ENDCHAR
STARTCHAR 3a3f
ENCODING 14911
SWIDTH 822 0
DWIDTH 6 0
BBX 6 8 0 -2
BITMAP
68
b0
f8
68
f8
40
e8
00
ENDCHAR
STARTCHAR 3a40
ENCODING 14912
SWIDTH 822 0
DWIDTH 6 0
BBX 6 8 0 -2
BITMAP
90
58
90
60
f8
d0
68
00
ENDCHAR
STARTCHAR 3a41
ENCODING 14913
SWIDTH 822 0
DWIDTH 6 0
BBX 6 8 0 -2
BITMAP
50
50
a8
20
70
20
f8
00
ENDCHAR
STARTCHAR 3a42
ENCODING 14914
SWIDTH 822 0
DWIDTH 6 0
BBX 6 8 0 -2
BITMAP
20
f8
d0
a8
f0
a0
f8
00
ENDCHAR
STARTCHAR 3a43
ENCODING 14915
SWIDTH 822 0
DWIDTH 6 0
BBX 6 8 0 -2
BITMAP
50
d0
68
50
f8
50
f8
00
ENDCHAR
STARTCHAR 3a44
ENCODING 14916
SWIDTH 822 0
DWIDTH 6 0
BBX 6 8 0 -2
BITMAP
50
78
d0
f8
58
40
68
00
ENDCHAR
STARTCHAR 3a45
ENCODING 14917
SWIDTH 822 0
DWIDTH 6 0
BBX 6 8 0 -2
BITMAP
68
78
d0
f8
70
70
78
00
ENDCHAR
STARTCHAR 3a46
ENCODING 14918
SWIDTH 822 0
DWIDTH 6 0
BBX 6 8 0 -2
BITMAP
f8
20
70
70
f8
50
50
00
ENDCHAR
STARTCHAR 3a47
ENCODING 14919
SWIDTH 822 0
DWIDTH 6 0
BBX 6 8 0 -2
BITMAP
70
50
f8
68
70
e8
20
00
ENDCHAR
STARTCHAR 3a48
ENCODING 14920
SWIDTH 822 0
DWIDTH 6 0
BBX 6 8 0 -2
BITMAP
58
f0
50
f8
10
d0
c8
00
ENDCHAR
STARTCHAR 3a49
ENCODING 14921
SWIDTH 822 0
DWIDTH 6 0
BBX 6 8 0 -2
BITMAP
20
f8
d8
70
70
a8
70
00
ENDCHAR
STARTCHAR 3a4a
ENCODING 14922
SWIDTH 822 0
DWIDTH 6 0
BBX 6 8 0 -2
BITMAP
20
f8
30
70
f8
50
e8
00
ENDCHAR
STARTCHAR 3a4b
ENCODING 14923
SWIDTH 822 0
DWIDTH 6 0
BBX 6 8 0 -2
BITMAP
20
f8
a8
f8
50
f8
20
00
ENDCHAR
STARTCHAR 3a4c
ENCODING 14924
SWIDTH 822 0
DWIDTH 6 0
BBX 6 8 0 -2
BITMAP
e8
10
a8
50
e0
e8
50
00
ENDCHAR
STARTCHAR 3a4d
ENCODING 14925
SWIDTH 822 0
DWIDTH 6 0
BBX 6 8 0 -2
BITMAP
10
f8
10
18
30
d0
30
00
ENDCHAR
STARTCHAR 3a4e
ENCODING 14926
SWIDTH 822 0
DWIDTH 6 0
BBX 6 8 0 -2
BITMAP
78
c0
68
50
f8
78
d0
00
ENDCHAR
STARTCHAR 3a4f
ENCODING 14927
SWIDTH 822 0
DWIDTH 6 0
BBX 6 8 0 -2
BITMAP
58
f0
50
f8
50
f0
48
00
ENDCHAR
STARTCHAR 3a50
ENCODING 14928
SWIDTH 822 0
DWIDTH 6 0
BBX 6 8 0 -2
BITMAP
10
58
50
f8
58
70
a8
00
ENDCHAR
STARTCHAR 3a51
ENCODING 14929
SWIDTH 822 0
DWIDTH 6 0
BBX 6 8 0 -2
BITMAP
90
78
a8
10
a8
f8
a8
00
ENDCHAR
STARTCHAR 3a52
ENCODING 14930
SWIDTH 822 0
DWIDTH 6 0
BBX 6 8 0 -2
BITMAP
48
90
48
20
a8
20
d8
00
ENDCHAR
STARTCHAR 3a53
ENCODING 14931
SWIDTH 822 0
DWIDTH 6 0
BBX 6 8 0 -2
BITMAP
18
e0
a8
10
f8
70
a8
00
ENDCHAR
STARTCHAR 3a54
ENCODING 14932
SWIDTH 822 0
DWIDTH 6 0
BBX 6 8 0 -2
BITMAP
f8
f8
90
d8
90
f8
90
00
ENDCHAR
STARTCHAR 3a55
ENCODING 14933
SWIDTH 822 0
DWIDTH 6 0
BBX 6 8 0 -2
BITMAP
d0
70
50
a8
50
78
10
00
ENDCHAR
STARTCHAR 3a56
ENCODING 14934
SWIDTH 822 0
DWIDTH 6 0
BBX 6 8 0 -2
BITMAP
90
d8
90
f8
40
b8
38
00
ENDCHAR
STARTCHAR 3a57
ENCODING 14935
SWIDTH 822 0
DWIDTH 6 0
BBX 6 8 0 -2
BITMAP
78
a8
50
88
70
20
a8
00
ENDCHAR
STARTCHAR 3a58
ENCODING 14936
SWIDTH 822 0
DWIDTH 6 0
BBX 6 8 0 -2
BITMAP
20
f8
70
d8
70
70
b0
00
ENDCHAR
STARTCHAR 3a59
ENCODING 14937
SWIDTH 822 0
DWIDTH 6 0
BBX 6 8 0 -2
BITMAP
40
98
58
98
58
f8
40
00
ENDCHAR
STARTCHAR 3a5a
ENCODING 14938
SWIDTH 822 0
DWIDTH 6 0
BBX 6 8 0 -2
BITMAP
50
f8
10
60
f8
70
a8
00
ENDCHAR
STARTCHAR 3a5b
ENCODING 14939
SWIDTH 822 0
DWIDTH 6 0
BBX 6 8 0 -2
BITMAP
58
f0
50
f8
58
b0
c8
00
ENDCHAR
STARTCHAR 3a5c
ENCODING 14940
SWIDTH 822 0
DWIDTH 6 0
BBX 6 8 0 -2
BITMAP
58
f0
50
f8
78
f0
48
00
ENDCHAR
STARTCHAR 3a5d
ENCODING 14941
SWIDTH 822 0
DWIDTH 6 0
BBX 6 8 0 -2
BITMAP
d8
e8
b0
c8
f0
a0
a8
00
ENDCHAR
STARTCHAR 3a5e
ENCODING 14942
SWIDTH 822 0
DWIDTH 6 0
BBX 6 8 0 -2
BITMAP
48
e8
a8
48
a8
e8
a8
00
ENDCHAR
STARTCHAR 3a5f
ENCODING 14943
SWIDTH 822 0
DWIDTH 6 0
BBX 6 8 0 -2
BITMAP
20
f8
40
d0
78
50
78
00
ENDCHAR
STARTCHAR 3a60
ENCODING 14944
SWIDTH 822 0
DWIDTH 6 0
BBX 6 8 0 -2
BITMAP
48
f8
48
d8
e8
48
58
00
ENDCHAR
STARTCHAR 3a61
ENCODING 14945
SWIDTH 822 0
DWIDTH 6 0
BBX 6 8 0 -2
BITMAP
f8
f8
50
d8
50
d8
50
00
ENDCHAR
STARTCHAR 3a62
ENCODING 14946
SWIDTH 822 0
DWIDTH 6 0
BBX 6 8 0 -2
BITMAP
c8
f8
c8
d8
e8
08
a8
00
ENDCHAR
STARTCHAR 3a63
ENCODING 14947
SWIDTH 822 0
DWIDTH 6 0
BBX 6 8 0 -2
BITMAP
b8
28
28
78
98
e8
98
00
ENDCHAR
STARTCHAR 3a64
ENCODING 14948
SWIDTH 822 0
DWIDTH 6 0
BBX 6 8 0 -2
BITMAP
78
60
f8
68
68
d0
28
00
ENDCHAR
STARTCHAR 3a65
ENCODING 14949
SWIDTH 822 0
DWIDTH 6 0
BBX 6 8 0 -2
BITMAP
f8
e0
b8
e8
e8
90
a8
00
ENDCHAR
STARTCHAR 3a66
ENCODING 14950
SWIDTH 822 0
DWIDTH 6 0
BBX 6 8 0 -2
BITMAP
78
78
f8
50
68
e8
28
00
ENDCHAR
STARTCHAR 3a67
ENCODING 14951
SWIDTH 822 0
DWIDTH 6 0
BBX 6 8 0 -2
BITMAP
68
f8
58
f8
f8
68
68
00
ENDCHAR
STARTCHAR 3a68
ENCODING 14952
SWIDTH 822 0
DWIDTH 6 0
BBX 6 8 0 -2
BITMAP
50
20
50
f8
50
f0
50
00
ENDCHAR
STARTCHAR 3a69
ENCODING 14953
SWIDTH 822 0
DWIDTH 6 0
BBX 6 8 0 -2
BITMAP
28
c0
f8
d0
f8
10
28
00
ENDCHAR
STARTCHAR 3a6a
ENCODING 14954
SWIDTH 822 0
DWIDTH 6 0
BBX 6 8 0 -2
BITMAP
50
78
50
e8
f8
c8
28
00
ENDCHAR
STARTCHAR 3a6b
ENCODING 14955
SWIDTH 822 0
DWIDTH 6 0
BBX 6 8 0 -2
BITMAP
50
78
d0
68
78
c8
28
00
ENDCHAR
STARTCHAR 3a6c
ENCODING 14956
SWIDTH 822 0
DWIDTH 6 0
BBX 6 8 0 -2
BITMAP
d0
78
50
a8
78
48
28
00
ENDCHAR
STARTCHAR 3a6d
ENCODING 14957
SWIDTH 822 0
DWIDTH 6 0
BBX 6 8 0 -2
BITMAP
d8
e8
50
e8
78
08
a8
00
ENDCHAR
STARTCHAR 3a6e
ENCODING 14958
SWIDTH 822 0
DWIDTH 6 0
BBX 6 8 0 -2
BITMAP
50
58
f0
d8
50
58
50
00
ENDCHAR
STARTCHAR 3a6f
ENCODING 14959
SWIDTH 822 0
DWIDTH 6 0
BBX 6 8 0 -2
BITMAP
a8
48
e8
a8
e8
a8
a8
00
ENDCHAR
STARTCHAR 3a70
ENCODING 14960
SWIDTH 822 0
DWIDTH 6 0
BBX 6 8 0 -2
BITMAP
10
d8
f0
d8
d0
18
10
00
ENDCHAR
STARTCHAR 3a71
ENCODING 14961
SWIDTH 822 0
DWIDTH 6 0
BBX 6 8 0 -2
BITMAP
50
f8
68
40
e0
78
d0
00
ENDCHAR
STARTCHAR 3a72
ENCODING 14962
SWIDTH 822 0
DWIDTH 6 0
BBX 6 8 0 -2
BITMAP
10
d8
f0
d8
d0
d8
10
00
ENDCHAR
STARTCHAR 3a73
ENCODING 14963
SWIDTH 822 0
DWIDTH 6 0
BBX 6 8 0 -2
BITMAP
b8
f8
58
b8
f8
58
98
00
ENDCHAR
STARTCHAR 3a74
ENCODING 14964
SWIDTH 822 0
DWIDTH 6 0
BBX 6 8 0 -2
BITMAP
78
e8
68
f8
e8
68
48
00
ENDCHAR
STARTCHAR 3a75
ENCODING 14965
SWIDTH 822 0
DWIDTH 6 0
BBX 6 8 0 -2
BITMAP
20
f8
d8
40
60
b8
20
00
ENDCHAR
STARTCHAR 3a76
ENCODING 14966
SWIDTH 822 0
DWIDTH 6 0
BBX 6 8 0 -2
BITMAP
90
d8
48
f8
a8
70
a8
00
ENDCHAR
STARTCHAR 3a77
ENCODING 14967
SWIDTH 822 0
DWIDTH 6 0
BBX 6 8 0 -2
BITMAP
20
70
f8
a8
50
20
a8
00
ENDCHAR
STARTCHAR 3a78
ENCODING 14968
SWIDTH 822 0
DWIDTH 6 0
BBX 6 8 0 -2
BITMAP
68
b8
e8
78
c0
58
d8
00
ENDCHAR
STARTCHAR 3a79
ENCODING 14969
SWIDTH 822 0
DWIDTH 6 0
BBX 6 8 0 -2
BITMAP
68
d0
40
f8
e8
50
68
00
ENDCHAR
STARTCHAR 3a7a
ENCODING 14970
SWIDTH 822 0
DWIDTH 6 0
BBX 6 8 0 -2
BITMAP
d0
78
d0
f8
d0
10
b8
00
ENDCHAR
STARTCHAR 3a7b
ENCODING 14971
SWIDTH 822 0
DWIDTH 6 0
BBX 6 8 0 -2
BITMAP
90
d8
48
f8
58
40
78
00
ENDCHAR
STARTCHAR 3a7c
ENCODING 14972
SWIDTH 822 0
DWIDTH 6 0
BBX 6 8 0 -2
BITMAP
d0
d0
18
d0
58
c0
b8
00
ENDCHAR
STARTCHAR 3a7d
ENCODING 14973
SWIDTH 822 0
DWIDTH 6 0
BBX 6 8 0 -2
BITMAP
78
68
68
f8
68
68
48
00
ENDCHAR
STARTCHAR 3a7e
ENCODING 14974
SWIDTH 822 0
DWIDTH 6 0
BBX 6 8 0 -2
BITMAP
e8
a8
e8
88
e8
e8
48
00
ENDCHAR
STARTCHAR 3b21
ENCODING 15137
SWIDTH 822 0
DWIDTH 6 0
BBX 6 8 0 -2
BITMAP
20
f8
a8
50
88
70
a8
00
ENDCHAR
STARTCHAR 3b22
ENCODING 15138
SWIDTH 822 0
DWIDTH 6 0
BBX 6 8 0 -2
BITMAP
68
d0
68
58
e8
50
e0
00
ENDCHAR
STARTCHAR 3b23
ENCODING 15139
SWIDTH 822 0
DWIDTH 6 0
BBX 6 8 0 -2
BITMAP
70
f0
78
68
f0
68
e0
00
ENDCHAR
STARTCHAR 3b24
ENCODING 15140
SWIDTH 822 0
DWIDTH 6 0
BBX 6 8 0 -2
BITMAP
50
f8
68
50
e8
78
d0
00
ENDCHAR
STARTCHAR 3b25
ENCODING 15141
SWIDTH 822 0
DWIDTH 6 0
BBX 6 8 0 -2
BITMAP
50
f0
50
f0
d0
50
58
00
ENDCHAR
STARTCHAR 3b26
ENCODING 15142
SWIDTH 822 0
DWIDTH 6 0
BBX 6 8 0 -2
BITMAP
b8
68
80
78
e8
d0
68
00
ENDCHAR
STARTCHAR 3b27
ENCODING 15143
SWIDTH 822 0
DWIDTH 6 0
BBX 6 8 0 -2
BITMAP
50
f8
d0
b8
e0
d0
b8
00
ENDCHAR
STARTCHAR 3b28
ENCODING 15144
SWIDTH 822 0
DWIDTH 6 0
BBX 6 8 0 -2
BITMAP
50
d8
50
b8
50
f0
58
00
ENDCHAR
STARTCHAR 3b29
ENCODING 15145
SWIDTH 822 0
DWIDTH 6 0
BBX 6 8 0 -2
BITMAP
20
70
70
a8
20
f8
20
00
ENDCHAR
STARTCHAR 3b2a
ENCODING 15146
SWIDTH 822 0
DWIDTH 6 0
BBX 6 8 0 -2
BITMAP
d0
78
d0
f8
e8
38
a8
00
ENDCHAR
STARTCHAR 3b2b
ENCODING 15147
SWIDTH 822 0
DWIDTH 6 0
BBX 6 8 0 -2
BITMAP
78
e8
78
58
d8
68
e8
00
ENDCHAR
STARTCHAR 3b2c
ENCODING 15148
SWIDTH 822 0
DWIDTH 6 0
BBX 6 8 0 -2
BITMAP
50
b8
d0
78
e8
78
e8
00
ENDCHAR
STARTCHAR 3b2d
ENCODING 15149
SWIDTH 822 0
DWIDTH 6 0
BBX 6 8 0 -2
BITMAP
d0
78
e8
c0
e8
10
a8
00
ENDCHAR
STARTCHAR 3b2e
ENCODING 15150
SWIDTH 822 0
DWIDTH 6 0
BBX 6 8 0 -2
BITMAP
00
78
58
58
58
58
f8
00
ENDCHAR
STARTCHAR 3b2f
ENCODING 15151
SWIDTH 822 0
DWIDTH 6 0
BBX 6 8 0 -2
BITMAP
38
d0
b8
f8
a8
e8
38
00
ENDCHAR
STARTCHAR 3b30
ENCODING 15152
SWIDTH 822 0
DWIDTH 6 0
BBX 6 8 0 -2
BITMAP
00
70
00
70
00
00
f8
00
ENDCHAR
STARTCHAR 3b31
ENCODING 15153
SWIDTH 822 0
DWIDTH 6 0
BBX 6 8 0 -2
BITMAP
20
50
a8
70
a8
f8
20
00
ENDCHAR
STARTCHAR 3b32
ENCODING 15154
SWIDTH 822 0
DWIDTH 6 0
BBX 6 8 0 -2
BITMAP
20
48
f8
50
a8
10
60
00
ENDCHAR
STARTCHAR 3b33
ENCODING 15155
SWIDTH 822 0
DWIDTH 6 0
BBX 6 8 0 -2
BITMAP
20
20
a8
a8
a8
a8
f8
00
ENDCHAR
STARTCHAR 3b34
ENCODING 15156
SWIDTH 822 0
DWIDTH 6 0
BBX 6 8 0 -2
BITMAP
50
e0
f8
68
50
48
50
00
ENDCHAR
STARTCHAR 3b35
ENCODING 15157
SWIDTH 822 0
DWIDTH 6 0
BBX 6 8 0 -2
BITMAP
50
f8
58
78
f8
70
e8
00
ENDCHAR
STARTCHAR 3b36
ENCODING 15158
SWIDTH 822 0
DWIDTH 6 0
BBX 6 8 0 -2
BITMAP
b0
f8
a8
e8
a8
f0
a8
00
ENDCHAR
STARTCHAR 3b37
ENCODING 15159
SWIDTH 822 0
DWIDTH 6 0
BBX 6 8 0 -2
BITMAP
58
f0
58
f0
d8
50
68
00
ENDCHAR
STARTCHAR 3b38
ENCODING 15160
SWIDTH 822 0
DWIDTH 6 0
BBX 6 8 0 -2
BITMAP
70
68
d0
e8
50
78
90
00
ENDCHAR
STARTCHAR 3b39
ENCODING 15161
SWIDTH 822 0
DWIDTH 6 0
BBX 6 8 0 -2
BITMAP
38
e8
68
f8
68
e8
28
00
ENDCHAR
STARTCHAR 3b3a
ENCODING 15162
SWIDTH 822 0
DWIDTH 6 0
BBX 6 8 0 -2
BITMAP
20
f8
50
f8
b8
90
b8
00
ENDCHAR
STARTCHAR 3b3b
ENCODING 15163
SWIDTH 822 0
DWIDTH 6 0
BBX 6 8 0 -2
BITMAP
90
d8
48
70
50
f8
50
00
ENDCHAR
STARTCHAR 3b3c
ENCODING 15164
SWIDTH 822 0
DWIDTH 6 0
BBX 6 8 0 -2
BITMAP
90
d8
70
70
e8
20
a8
00
ENDCHAR
STARTCHAR 3b3d
ENCODING 15165
SWIDTH 822 0
DWIDTH 6 0
BBX 6 8 0 -2
BITMAP
f8
20
d8
70
70
30
e8
00
ENDCHAR
STARTCHAR 3b3e
ENCODING 15166
SWIDTH 822 0
DWIDTH 6 0
BBX 6 8 0 -2
BITMAP
b0
f8
50
a8
30
f0
e8
00
ENDCHAR
STARTCHAR 3b3f
ENCODING 15167
SWIDTH 822 0
DWIDTH 6 0
BBX 6 8 0 -2
BITMAP
50
f8
50
a8
70
70
88
00
ENDCHAR
STARTCHAR 3b40
ENCODING 15168
SWIDTH 822 0
DWIDTH 6 0
BBX 6 8 0 -2
BITMAP
e8
78
e8
d8
e8
d0
e8
00
ENDCHAR
STARTCHAR 3b41
ENCODING 15169
SWIDTH 822 0
DWIDTH 6 0
BBX 6 8 0 -2
BITMAP
40
78
a8
50
e8
60
58
00
ENDCHAR
STARTCHAR 3b42
ENCODING 15170
SWIDTH 822 0
DWIDTH 6 0
BBX 6 8 0 -2
BITMAP
c8
70
e0
f8
68
e8
48
00
ENDCHAR
STARTCHAR 3b43
ENCODING 15171
SWIDTH 822 0
DWIDTH 6 0
BBX 6 8 0 -2
BITMAP
48
f0
78
e8
48
70
70
00
ENDCHAR
STARTCHAR 3b44
ENCODING 15172
SWIDTH 822 0
DWIDTH 6 0
BBX 6 8 0 -2
BITMAP
f8
50
78
b0
78
50
a8
00
ENDCHAR
STARTCHAR 3b45
ENCODING 15173
SWIDTH 822 0
DWIDTH 6 0
BBX 6 8 0 -2
BITMAP
50
50
f8
d0
50
50
78
00
ENDCHAR
STARTCHAR 3b46
ENCODING 15174
SWIDTH 822 0
DWIDTH 6 0
BBX 6 8 0 -2
BITMAP
58
48
d0
f8
50
50
70
00
ENDCHAR
STARTCHAR 3b47
ENCODING 15175
SWIDTH 822 0
DWIDTH 6 0
BBX 6 8 0 -2
BITMAP
58
48
d8
c8
58
58
48
00
ENDCHAR
STARTCHAR 3b48
ENCODING 15176
SWIDTH 822 0
DWIDTH 6 0
BBX 6 8 0 -2
BITMAP
50
78
f8
d0
70
50
68
00
ENDCHAR
STARTCHAR 3b49
ENCODING 15177
SWIDTH 822 0
DWIDTH 6 0
BBX 6 8 0 -2
BITMAP
28
f8
28
f8
a8
78
a8
00
ENDCHAR
STARTCHAR 3b4a
ENCODING 15178
SWIDTH 822 0
DWIDTH 6 0
BBX 6 8 0 -2
BITMAP
f8
08
68
08
68
68
18
00
ENDCHAR
STARTCHAR 3b4b
ENCODING 15179
SWIDTH 822 0
DWIDTH 6 0
BBX 6 8 0 -2
BITMAP
20
f8
a8
f8
60
20
d8
00
ENDCHAR
STARTCHAR 3b4c
ENCODING 15180
SWIDTH 822 0
DWIDTH 6 0
BBX 6 8 0 -2
BITMAP
d8
c8
18
e8
b8
f8
a8
00
ENDCHAR
STARTCHAR 3b4d
ENCODING 15181
SWIDTH 822 0
DWIDTH 6 0
BBX 6 8 0 -2
BITMAP
f8
d8
d8
d8
88
88
f8
00
ENDCHAR
STARTCHAR 3b4e
ENCODING 15182
SWIDTH 822 0
DWIDTH 6 0
BBX 6 8 0 -2
BITMAP
20
20
f8
20
20
20
70
00
ENDCHAR
STARTCHAR 3b4f
ENCODING 15183
SWIDTH 822 0
DWIDTH 6 0
BBX 6 8 0 -2
BITMAP
50
d0
68
b8
c0
78
b8
00
ENDCHAR
STARTCHAR 3b50
ENCODING 15184
SWIDTH 822 0
DWIDTH 6 0
BBX 6 8 0 -2
BITMAP
90
b8
d0
f8
d8
58
90
00
ENDCHAR
STARTCHAR 3b51
ENCODING 15185
SWIDTH 822 0
DWIDTH 6 0
BBX 6 8 0 -2
BITMAP
a0
38
90
28
f8
50
e8
00
ENDCHAR
STARTCHAR 3b52
ENCODING 15186
SWIDTH 822 0
DWIDTH 6 0
BBX 6 8 0 -2
BITMAP
70
10
20
f8
20
20
60
00
ENDCHAR
STARTCHAR 3b53
ENCODING 15187
SWIDTH 822 0
DWIDTH 6 0
BBX 6 8 0 -2
BITMAP
f8
88
f8
b0
d8
b0
d8
00
ENDCHAR
STARTCHAR 3b54
ENCODING 15188
SWIDTH 822 0
DWIDTH 6 0
BBX 6 8 0 -2
BITMAP
20
f8
20
f8
a8
a8
20
00
ENDCHAR
STARTCHAR 3b55
ENCODING 15189
SWIDTH 822 0
DWIDTH 6 0
BBX 6 8 0 -2
BITMAP
78
d0
f8
98
d8
d0
10
00
ENDCHAR
STARTCHAR 3b56
ENCODING 15190
SWIDTH 822 0
DWIDTH 6 0
BBX 6 8 0 -2
BITMAP
20
f8
20
70
00
c8
b8
00
ENDCHAR
STARTCHAR 3b57
ENCODING 15191
SWIDTH 822 0
DWIDTH 6 0
BBX 6 8 0 -2
BITMAP
f8
a8
f8
f8
00
c8
b8
00
ENDCHAR
STARTCHAR 3b58
ENCODING 15192
SWIDTH 822 0
DWIDTH 6 0
BBX 6 8 0 -2
BITMAP
50
d8
50
58
c0
58
d8
00
ENDCHAR
STARTCHAR 3b59
ENCODING 15193
SWIDTH 822 0
DWIDTH 6 0
BBX 6 8 0 -2
BITMAP
20
f8
20
70
50
20
d8
00
ENDCHAR
STARTCHAR 3b5a
ENCODING 15194
SWIDTH 822 0
DWIDTH 6 0
BBX 6 8 0 -2
BITMAP
f0
38
58
78
d8
50
e8
00
ENDCHAR
STARTCHAR 3b5b
ENCODING 15195
SWIDTH 822 0
DWIDTH 6 0
BBX 6 8 0 -2
BITMAP
78
e0
78
68
e8
08
a8
00
ENDCHAR
STARTCHAR 3b5c
ENCODING 15196
SWIDTH 822 0
DWIDTH 6 0
BBX 6 8 0 -2
BITMAP
60
f8
40
78
68
a0
b8
00
ENDCHAR
STARTCHAR 3b5d
ENCODING 15197
SWIDTH 822 0
DWIDTH 6 0
BBX 6 8 0 -2
BITMAP
90
e0
88
78
00
70
70
00
ENDCHAR
STARTCHAR 3b5e
ENCODING 15198
SWIDTH 822 0
DWIDTH 6 0
BBX 6 8 0 -2
BITMAP
50
f8
50
f8
e8
50
68
00
ENDCHAR
STARTCHAR 3b5f
ENCODING 15199
SWIDTH 822 0
DWIDTH 6 0
BBX 6 8 0 -2
BITMAP
10
10
58
50
50
50
f8
00
ENDCHAR
STARTCHAR 3b60
ENCODING 15200
SWIDTH 822 0
DWIDTH 6 0
BBX 6 8 0 -2
BITMAP
f8
50
70
b8
70
50
98
00
ENDCHAR
STARTCHAR 3b61
ENCODING 15201
SWIDTH 822 0
DWIDTH 6 0
BBX 6 8 0 -2
BITMAP
10
e0
a0
f8
a0
90
c8
00
ENDCHAR
STARTCHAR 3b62
ENCODING 15202
SWIDTH 822 0
DWIDTH 6 0
BBX 6 8 0 -2
BITMAP
a8
78
f8
68
f8
78
88
00
ENDCHAR
STARTCHAR 3b63
ENCODING 15203
SWIDTH 822 0
DWIDTH 6 0
BBX 6 8 0 -2
BITMAP
50
d0
58
90
50
50
78
00
ENDCHAR
STARTCHAR 3b64
ENCODING 15204
SWIDTH 822 0
DWIDTH 6 0
BBX 6 8 0 -2
BITMAP
d0
50
d0
50
e0
e8
78
00
ENDCHAR
STARTCHAR 3b65
ENCODING 15205
SWIDTH 822 0
DWIDTH 6 0
BBX 6 8 0 -2
BITMAP
20
d0
20
50
e8
20
a8
00
ENDCHAR
STARTCHAR 3b66
ENCODING 15206
SWIDTH 822 0
DWIDTH 6 0
BBX 6 8 0 -2
BITMAP
48
b0
70
b8
70
f0
68
00
ENDCHAR
STARTCHAR 3b67
ENCODING 15207
SWIDTH 822 0
DWIDTH 6 0
BBX 6 8 0 -2
BITMAP
90
d8
90
d8
e8
20
a8
00
ENDCHAR
STARTCHAR 3b68
ENCODING 15208
SWIDTH 822 0
DWIDTH 6 0
BBX 6 8 0 -2
BITMAP
d0
f8
d0
f8
e8
d0
a8
00
ENDCHAR
STARTCHAR 3b69
ENCODING 15209
SWIDTH 822 0
DWIDTH 6 0
BBX 6 8 0 -2
BITMAP
f0
b8
f0
b8
e0
b8
b8
00
ENDCHAR
STARTCHAR 3b6a
ENCODING 15210
SWIDTH 822 0
DWIDTH 6 0
BBX 6 8 0 -2
BITMAP
f8
50
e8
20
70
20
f8
00
ENDCHAR
STARTCHAR 3b6b
ENCODING 15211
SWIDTH 822 0
DWIDTH 6 0
BBX 6 8 0 -2
BITMAP
78
e8
78
a8
78
50
68
00
ENDCHAR
STARTCHAR 3b6c
ENCODING 15212
SWIDTH 822 0
DWIDTH 6 0
BBX 6 8 0 -2
BITMAP
b8
c8
38
c8
38
f8
c8
00
ENDCHAR
STARTCHAR 3b6d
ENCODING 15213
SWIDTH 822 0
DWIDTH 6 0
BBX 6 8 0 -2
BITMAP
90
f8
10
b8
08
e8
d8
00
ENDCHAR
STARTCHAR 3b6e
ENCODING 15214
SWIDTH 822 0
DWIDTH 6 0
BBX 6 8 0 -2
BITMAP
58
d0
38
d0
30
f0
e8
00
ENDCHAR
STARTCHAR 3b6f
ENCODING 15215
SWIDTH 822 0
DWIDTH 6 0
BBX 6 8 0 -2
BITMAP
90
f8
10
b8
00
e8
d8
00
ENDCHAR
STARTCHAR 3b70
ENCODING 15216
SWIDTH 822 0
DWIDTH 6 0
BBX 6 8 0 -2
BITMAP
a0
f8
10
a8
00
d8
d8
00
ENDCHAR
STARTCHAR 3b71
ENCODING 15217
SWIDTH 822 0
DWIDTH 6 0
BBX 6 8 0 -2
BITMAP
a0
38
10
a8
70
70
88
00
ENDCHAR
STARTCHAR 3b72
ENCODING 15218
SWIDTH 822 0
DWIDTH 6 0
BBX 6 8 0 -2
BITMAP
f8
e8
f8
d0
e8
18
a8
00
ENDCHAR
STARTCHAR 3b73
ENCODING 15219
SWIDTH 822 0
DWIDTH 6 0
BBX 6 8 0 -2
BITMAP
50
78
f0
f8
f0
f0
b8
00
ENDCHAR
STARTCHAR 3b74
ENCODING 15220
SWIDTH 822 0
DWIDTH 6 0
BBX 6 8 0 -2
BITMAP
58
a8
18
c8
d8
98
c8
00
ENDCHAR
STARTCHAR 3b75
ENCODING 15221
SWIDTH 822 0
DWIDTH 6 0
BBX 6 8 0 -2
BITMAP
10
58
f0
68
78
68
78
00
ENDCHAR
STARTCHAR 3b76
ENCODING 15222
SWIDTH 822 0
DWIDTH 6 0
BBX 6 8 0 -2
BITMAP
20
f8
70
f0
38
f0
20
00
ENDCHAR
STARTCHAR 3b77
ENCODING 15223
SWIDTH 822 0
DWIDTH 6 0
BBX 6 8 0 -2
BITMAP
28
58
c8
68
48
50
68
00
ENDCHAR
STARTCHAR 3b78
ENCODING 15224
SWIDTH 822 0
DWIDTH 6 0
BBX 6 8 0 -2
BITMAP
50
78
d0
f8
48
68
58
00
ENDCHAR
STARTCHAR 3b79
ENCODING 15225
SWIDTH 822 0
DWIDTH 6 0
BBX 6 8 0 -2
BITMAP
b8
a8
b8
a8
b8
50
98
00
ENDCHAR
STARTCHAR 3b7a
ENCODING 15226
SWIDTH 822 0
DWIDTH 6 0
BBX 6 8 0 -2
BITMAP
20
f8
b8
10
f8
20
60
00
ENDCHAR
STARTCHAR 3b7b
ENCODING 15227
SWIDTH 822 0
DWIDTH 6 0
BBX 6 8 0 -2
BITMAP
20
70
20
f8
10
f8
50
00
ENDCHAR
STARTCHAR 3b7c
ENCODING 15228
SWIDTH 822 0
DWIDTH 6 0
BBX 6 8 0 -2
BITMAP
50
f8
50
a0
50
c8
b8
00
ENDCHAR
STARTCHAR 3b7d
ENCODING 15229
SWIDTH 822 0
DWIDTH 6 0
BBX 6 8 0 -2
BITMAP
50
f8
50
78
c8
68
d8
00
ENDCHAR
STARTCHAR 3b7e
ENCODING 15230
SWIDTH 822 0
DWIDTH 6 0
BBX 6 8 0 -2
BITMAP
10
f8
d0
f8
c8
e8
18
00
ENDCHAR
STARTCHAR 3c21
ENCODING 15393
SWIDTH 822 0
DWIDTH 6 0
BBX 6 8 0 -2
BITMAP
a0
38
58
10
90
90
a8
00
ENDCHAR
STARTCHAR 3c22
ENCODING 15394
SWIDTH 822 0
DWIDTH 6 0
BBX 6 8 0 -2
BITMAP
a8
78
a8
50
a8
d0
f8
00
ENDCHAR
STARTCHAR 3c23
ENCODING 15395
SWIDTH 822 0
DWIDTH 6 0
BBX 6 8 0 -2
BITMAP
90
10
a8
38
80
b8
b8
00
ENDCHAR
STARTCHAR 3c24
ENCODING 15396
SWIDTH 822 0
DWIDTH 6 0
BBX 6 8 0 -2
BITMAP
f8
50
a8
f8
a8
f8
a8
00
ENDCHAR
STARTCHAR 3c25
ENCODING 15397
SWIDTH 822 0
DWIDTH 6 0
BBX 6 8 0 -2
BITMAP
f8
50
a8
f8
a8
20
f8
00
ENDCHAR
STARTCHAR 3c26
ENCODING 15398
SWIDTH 822 0
DWIDTH 6 0
BBX 6 8 0 -2
BITMAP
10
78
d0
78
c8
68
98
00
ENDCHAR
STARTCHAR 3c27
ENCODING 15399
SWIDTH 822 0
DWIDTH 6 0
BBX 6 8 0 -2
BITMAP
e8
78
68
90
68
50
38
00
ENDCHAR
STARTCHAR 3c28
ENCODING 15400
SWIDTH 822 0
DWIDTH 6 0
BBX 6 8 0 -2
BITMAP
70
00
f8
20
a8
a8
60
00
ENDCHAR
STARTCHAR 3c29
ENCODING 15401
SWIDTH 822 0
DWIDTH 6 0
BBX 6 8 0 -2
BITMAP
f8
40
f8
a8
a8
a8
a8
00
ENDCHAR
STARTCHAR 3c2a
ENCODING 15402
SWIDTH 822 0
DWIDTH 6 0
BBX 6 8 0 -2
BITMAP
f8
50
70
70
50
f8
10
00
ENDCHAR
STARTCHAR 3c2b
ENCODING 15403
SWIDTH 822 0
DWIDTH 6 0
BBX 6 8 0 -2
BITMAP
20
f8
88
e8
b8
88
f8
00
ENDCHAR
STARTCHAR 3c2c
ENCODING 15404
SWIDTH 822 0
DWIDTH 6 0
BBX 6 8 0 -2
BITMAP
50
f8
38
d0
f8
e8
18
00
ENDCHAR
STARTCHAR 3c2d
ENCODING 15405
SWIDTH 822 0
DWIDTH 6 0
BBX 6 8 0 -2
BITMAP
d0
78
e8
78
d0
f8
d0
00
ENDCHAR
STARTCHAR 3c2e
ENCODING 15406
SWIDTH 822 0
DWIDTH 6 0
BBX 6 8 0 -2
BITMAP
90
18
a8
18
88
90
a0
00
ENDCHAR
STARTCHAR 3c2f
ENCODING 15407
SWIDTH 822 0
DWIDTH 6 0
BBX 6 8 0 -2
BITMAP
20
f8
b0
f0
d8
90
d8
00
ENDCHAR
STARTCHAR 3c30
ENCODING 15408
SWIDTH 822 0
DWIDTH 6 0
BBX 6 8 0 -2
BITMAP
28
20
f8
10
f0
50
e8
00
ENDCHAR
STARTCHAR 3c31
ENCODING 15409
SWIDTH 822 0
DWIDTH 6 0
BBX 6 8 0 -2
BITMAP
a8
f0
38
b0
18
f0
e8
00
ENDCHAR
STARTCHAR 3c32
ENCODING 15410
SWIDTH 822 0
DWIDTH 6 0
BBX 6 8 0 -2
BITMAP
10
f8
f8
e0
f8
c8
28
00
ENDCHAR
STARTCHAR 3c33
ENCODING 15411
SWIDTH 822 0
DWIDTH 6 0
BBX 6 8 0 -2
BITMAP
90
d8
48
00
70
00
f8
00
ENDCHAR
STARTCHAR 3c34
ENCODING 15412
SWIDTH 822 0
DWIDTH 6 0
BBX 6 8 0 -2
BITMAP
d0
78
f8
f8
78
f8
78
00
ENDCHAR
STARTCHAR 3c35
ENCODING 15413
SWIDTH 822 0
DWIDTH 6 0
BBX 6 8 0 -2
BITMAP
20
f8
88
20
f8
00
88
00
ENDCHAR
STARTCHAR 3c36
ENCODING 15414
SWIDTH 822 0
DWIDTH 6 0
BBX 6 8 0 -2
BITMAP
70
f8
a8
00
f8
30
28
00
ENDCHAR
STARTCHAR 3c37
ENCODING 15415
SWIDTH 822 0
DWIDTH 6 0
BBX 6 8 0 -2
BITMAP
40
40
58
e0
40
48
38
00
ENDCHAR
STARTCHAR 3c38
ENCODING 15416
SWIDTH 822 0
DWIDTH 6 0
BBX 6 8 0 -2
BITMAP
20
e0
a8
b0
e0
28
38
00
ENDCHAR
STARTCHAR 3c39
ENCODING 15417
SWIDTH 822 0
DWIDTH 6 0
BBX 6 8 0 -2
BITMAP
50
f8
68
a8
78
e8
48
00
ENDCHAR
STARTCHAR 3c3a
ENCODING 15418
SWIDTH 822 0
DWIDTH 6 0
BBX 6 8 0 -2
BITMAP
60
70
a0
f8
20
50
88
00
ENDCHAR
STARTCHAR 3c3b
ENCODING 15419
SWIDTH 822 0
DWIDTH 6 0
BBX 6 8 0 -2
BITMAP
90
f8
c0
e0
f8
50
a8
00
ENDCHAR
STARTCHAR 3c3c
ENCODING 15420
SWIDTH 822 0
DWIDTH 6 0
BBX 6 8 0 -2
BITMAP
20
f8
a8
50
e8
20
f8
00
ENDCHAR
STARTCHAR 3c3d
ENCODING 15421
SWIDTH 822 0
DWIDTH 6 0
BBX 6 8 0 -2
BITMAP
f8
50
f8
70
a8
c0
b8
00
ENDCHAR
STARTCHAR 3c3e
ENCODING 15422
SWIDTH 822 0
DWIDTH 6 0
BBX 6 8 0 -2
BITMAP
f8
48
f8
30
f8
b0
f8
00
ENDCHAR
STARTCHAR 3c3f
ENCODING 15423
SWIDTH 822 0
DWIDTH 6 0
BBX 6 8 0 -2
BITMAP
90
78
b0
58
b0
d8
b0
00
ENDCHAR
STARTCHAR 3c40
ENCODING 15424
SWIDTH 822 0
DWIDTH 6 0
BBX 6 8 0 -2
BITMAP
10
78
c0
60
f8
50
a8
00
ENDCHAR
STARTCHAR 3c41
ENCODING 15425
SWIDTH 822 0
DWIDTH 6 0
BBX 6 8 0 -2
BITMAP
48
90
d8
a8
70
70
88
00
ENDCHAR
STARTCHAR 3c42
ENCODING 15426
SWIDTH 822 0
DWIDTH 6 0
BBX 6 8 0 -2
BITMAP
20
f8
a8
70
f8
20
d8
00
ENDCHAR
STARTCHAR 3c43
ENCODING 15427
SWIDTH 822 0
DWIDTH 6 0
BBX 6 8 0 -2
BITMAP
50
f8
b8
f0
18
d8
d0
00
ENDCHAR
STARTCHAR 3c44
ENCODING 15428
SWIDTH 822 0
DWIDTH 6 0
BBX 6 8 0 -2
BITMAP
90
d8
50
78
d0
78
50
00
ENDCHAR
STARTCHAR 3c45
ENCODING 15429
SWIDTH 822 0
DWIDTH 6 0
BBX 6 8 0 -2
BITMAP
78
68
f8
f8
40
68
58
00
ENDCHAR
STARTCHAR 3c46
ENCODING 15430
SWIDTH 822 0
DWIDTH 6 0
BBX 6 8 0 -2
BITMAP
90
d8
90
d8
f8
70
a8
00
ENDCHAR
STARTCHAR 3c47
ENCODING 15431
SWIDTH 822 0
DWIDTH 6 0
BBX 6 8 0 -2
BITMAP
50
f8
20
f8
10
60
b8
00
ENDCHAR
STARTCHAR 3c48
ENCODING 15432
SWIDTH 822 0
DWIDTH 6 0
BBX 6 8 0 -2
BITMAP
f8
f8
d0
a0
f8
d0
e8
00
ENDCHAR
STARTCHAR 3c49
ENCODING 15433
SWIDTH 822 0
DWIDTH 6 0
BBX 6 8 0 -2
BITMAP
50
f8
40
30
00
a8
58
00
ENDCHAR
STARTCHAR 3c4a
ENCODING 15434
SWIDTH 822 0
DWIDTH 6 0
BBX 6 8 0 -2
BITMAP
50
b8
58
80
78
f8
68
00
ENDCHAR
STARTCHAR 3c4b
ENCODING 15435
SWIDTH 822 0
DWIDTH 6 0
BBX 6 8 0 -2
BITMAP
20
50
a8
70
f8
50
70
00
ENDCHAR
STARTCHAR 3c4c
ENCODING 15436
SWIDTH 822 0
DWIDTH 6 0
BBX 6 8 0 -2
BITMAP
f8
c8
70
40
f8
10
30
00
ENDCHAR
STARTCHAR 3c4d
ENCODING 15437
SWIDTH 822 0
DWIDTH 6 0
BBX 6 8 0 -2
BITMAP
28
78
68
78
f8
68
a8
00
ENDCHAR
STARTCHAR 3c4e
ENCODING 15438
SWIDTH 822 0
DWIDTH 6 0
BBX 6 8 0 -2
BITMAP
50
e8
50
78
c0
58
d8
00
ENDCHAR
STARTCHAR 3c4f
ENCODING 15439
SWIDTH 822 0
DWIDTH 6 0
BBX 6 8 0 -2
BITMAP
50
f8
58
f8
78
f0
a8
00
ENDCHAR
STARTCHAR 3c50
ENCODING 15440
SWIDTH 822 0
DWIDTH 6 0
BBX 6 8 0 -2
BITMAP
48
a8
48
e8
48
f8
48
00
ENDCHAR
STARTCHAR 3c51
ENCODING 15441
SWIDTH 822 0
DWIDTH 6 0
BBX 6 8 0 -2
BITMAP
28
70
20
f8
b0
00
a8
00
ENDCHAR
STARTCHAR 3c52
ENCODING 15442
SWIDTH 822 0
DWIDTH 6 0
BBX 6 8 0 -2
BITMAP
50
d0
78
90
50
50
78
00
ENDCHAR
STARTCHAR 3c53
ENCODING 15443
SWIDTH 822 0
DWIDTH 6 0
BBX 6 8 0 -2
BITMAP
50
b0
78
90
48
d0
60
00
ENDCHAR
STARTCHAR 3c54
ENCODING 15444
SWIDTH 822 0
DWIDTH 6 0
BBX 6 8 0 -2
BITMAP
28
70
20
f8
40
b0
30
00
ENDCHAR
STARTCHAR 3c55
ENCODING 15445
SWIDTH 822 0
DWIDTH 6 0
BBX 6 8 0 -2
BITMAP
a8
f8
68
f8
38
e8
e8
00
ENDCHAR
STARTCHAR 3c56
ENCODING 15446
SWIDTH 822 0
DWIDTH 6 0
BBX 6 8 0 -2
BITMAP
20
f8
70
70
70
f8
20
00
ENDCHAR
STARTCHAR 3c57
ENCODING 15447
SWIDTH 822 0
DWIDTH 6 0
BBX 6 8 0 -2
BITMAP
90
78
50
f8
c0
a8
f8
00
ENDCHAR
STARTCHAR 3c58
ENCODING 15448
SWIDTH 822 0
DWIDTH 6 0
BBX 6 8 0 -2
BITMAP
50
f8
e8
d0
58
50
d8
00
ENDCHAR
STARTCHAR 3c59
ENCODING 15449
SWIDTH 822 0
DWIDTH 6 0
BBX 6 8 0 -2
BITMAP
f8
58
50
f8
78
b0
70
00
ENDCHAR
STARTCHAR 3c5a
ENCODING 15450
SWIDTH 822 0
DWIDTH 6 0
BBX 6 8 0 -2
BITMAP
68
78
e8
f8
40
58
58
00
ENDCHAR
STARTCHAR 3c5b
ENCODING 15451
SWIDTH 822 0
DWIDTH 6 0
BBX 6 8 0 -2
BITMAP
40
78
88
48
28
08
18
00
ENDCHAR
STARTCHAR 3c5c
ENCODING 15452
SWIDTH 822 0
DWIDTH 6 0
BBX 6 8 0 -2
BITMAP
78
48
78
50
50
50
88
00
ENDCHAR
STARTCHAR 3c5d
ENCODING 15453
SWIDTH 822 0
DWIDTH 6 0
BBX 6 8 0 -2
BITMAP
60
f8
48
e8
d8
48
58
00
ENDCHAR
STARTCHAR 3c5e
ENCODING 15454
SWIDTH 822 0
DWIDTH 6 0
BBX 6 8 0 -2
BITMAP
60
78
c8
e8
58
48
98
00
ENDCHAR
STARTCHAR 3c5f
ENCODING 15455
SWIDTH 822 0
DWIDTH 6 0
BBX 6 8 0 -2
BITMAP
f8
50
f8
f8
c8
98
c8
00
ENDCHAR
STARTCHAR 3c60
ENCODING 15456
SWIDTH 822 0
DWIDTH 6 0
BBX 6 8 0 -2
BITMAP
e0
78
c8
e8
d8
c8
d8
00
ENDCHAR
STARTCHAR 3c61
ENCODING 15457
SWIDTH 822 0
DWIDTH 6 0
BBX 6 8 0 -2
BITMAP
f8
28
b8
30
f0
68
a8
00
ENDCHAR
STARTCHAR 3c62
ENCODING 15458
SWIDTH 822 0
DWIDTH 6 0
BBX 6 8 0 -2
BITMAP
78
a8
f8
50
e8
58
e8
00
ENDCHAR
STARTCHAR 3c63
ENCODING 15459
SWIDTH 822 0
DWIDTH 6 0
BBX 6 8 0 -2
BITMAP
50
f8
40
f8
40
b0
30
00
ENDCHAR
STARTCHAR 3c64
ENCODING 15460
SWIDTH 822 0
DWIDTH 6 0
BBX 6 8 0 -2
BITMAP
20
f8
88
58
68
d0
68
00
ENDCHAR
STARTCHAR 3c65
ENCODING 15461
SWIDTH 822 0
DWIDTH 6 0
BBX 6 8 0 -2
BITMAP
d8
48
d8
90
48
d8
48
00
ENDCHAR
STARTCHAR 3c66
ENCODING 15462
SWIDTH 822 0
DWIDTH 6 0
BBX 6 8 0 -2
BITMAP
50
f8
40
b0
30
c8
b8
00
ENDCHAR
STARTCHAR 3c67
ENCODING 15463
SWIDTH 822 0
DWIDTH 6 0
BBX 6 8 0 -2
BITMAP
40
20
f8
20
70
20
f8
00
ENDCHAR
STARTCHAR 3c68
ENCODING 15464
SWIDTH 822 0
DWIDTH 6 0
BBX 6 8 0 -2
BITMAP
e0
78
68
68
70
e8
20
00
ENDCHAR
STARTCHAR 3c69
ENCODING 15465
SWIDTH 822 0
DWIDTH 6 0
BBX 6 8 0 -2
BITMAP
20
f8
88
10
f8
50
30
00
ENDCHAR
STARTCHAR 3c6a
ENCODING 15466
SWIDTH 822 0
DWIDTH 6 0
BBX 6 8 0 -2
BITMAP
70
20
f8
20
f8
20
60
00
ENDCHAR
STARTCHAR 3c6b
ENCODING 15467
SWIDTH 822 0
DWIDTH 6 0
BBX 6 8 0 -2
BITMAP
60
70
a0
f8
20
70
a8
00
ENDCHAR
STARTCHAR 3c6c
ENCODING 15468
SWIDTH 822 0
DWIDTH 6 0
BBX 6 8 0 -2
BITMAP
f0
78
50
b8
50
78
90
00
ENDCHAR
STARTCHAR 3c6d
ENCODING 15469
SWIDTH 822 0
DWIDTH 6 0
BBX 6 8 0 -2
BITMAP
90
78
c8
50
f8
50
b0
00
ENDCHAR
STARTCHAR 3c6e
ENCODING 15470
SWIDTH 822 0
DWIDTH 6 0
BBX 6 8 0 -2
BITMAP
30
f8
50
f8
50
f8
10
00
ENDCHAR
STARTCHAR 3c6f
ENCODING 15471
SWIDTH 822 0
DWIDTH 6 0
BBX 6 8 0 -2
BITMAP
c8
70
d0
78
f8
d0
78
00
ENDCHAR
STARTCHAR 3c70
ENCODING 15472
SWIDTH 822 0
DWIDTH 6 0
BBX 6 8 0 -2
BITMAP
c8
f0
d0
f8
f8
d0
b8
00
ENDCHAR
STARTCHAR 3c71
ENCODING 15473
SWIDTH 822 0
DWIDTH 6 0
BBX 6 8 0 -2
BITMAP
40
f0
58
d8
78
d0
b8
00
ENDCHAR
STARTCHAR 3c72
ENCODING 15474
SWIDTH 822 0
DWIDTH 6 0
BBX 6 8 0 -2
BITMAP
b8
10
b8
38
a8
b8
b8
00
ENDCHAR
STARTCHAR 3c73
ENCODING 15475
SWIDTH 822 0
DWIDTH 6 0
BBX 6 8 0 -2
BITMAP
50
f8
20
50
70
50
70
00
ENDCHAR
STARTCHAR 3c74
ENCODING 15476
SWIDTH 822 0
DWIDTH 6 0
BBX 6 8 0 -2
BITMAP
78
50
e8
c0
50
78
68
00
ENDCHAR
STARTCHAR 3c75
ENCODING 15477
SWIDTH 822 0
DWIDTH 6 0
BBX 6 8 0 -2
BITMAP
f8
50
f8
88
70
20
d8
00
ENDCHAR
STARTCHAR 3c76
ENCODING 15478
SWIDTH 822 0
DWIDTH 6 0
BBX 6 8 0 -2
BITMAP
38
e8
a8
b8
d0
10
28
00
ENDCHAR
STARTCHAR 3c77
ENCODING 15479
SWIDTH 822 0
DWIDTH 6 0
BBX 6 8 0 -2
BITMAP
20
70
f8
50
f8
90
50
00
ENDCHAR
STARTCHAR 3c78
ENCODING 15480
SWIDTH 822 0
DWIDTH 6 0
BBX 6 8 0 -2
BITMAP
78
d0
78
68
c0
50
e8
00
ENDCHAR
STARTCHAR 3c79
ENCODING 15481
SWIDTH 822 0
DWIDTH 6 0
BBX 6 8 0 -2
BITMAP
68
f8
68
f8
d8
68
78
00
ENDCHAR
STARTCHAR 3c7a
ENCODING 15482
SWIDTH 822 0
DWIDTH 6 0
BBX 6 8 0 -2
BITMAP
78
90
78
a8
40
d0
68
00
ENDCHAR
STARTCHAR 3c7b
ENCODING 15483
SWIDTH 822 0
DWIDTH 6 0
BBX 6 8 0 -2
BITMAP
70
f8
a8
70
20
f8
a8
00
ENDCHAR
STARTCHAR 3c7c
ENCODING 15484
SWIDTH 822 0
DWIDTH 6 0
BBX 6 8 0 -2
BITMAP
f8
88
a8
a8
d8
88
f8
00
ENDCHAR
STARTCHAR 3c7d
ENCODING 15485
SWIDTH 822 0
DWIDTH 6 0
BBX 6 8 0 -2
BITMAP
38
a8
a8
a8
b0
f0
28
00
ENDCHAR
STARTCHAR 3c7e
ENCODING 15486
SWIDTH 822 0
DWIDTH 6 0
BBX 6 8 0 -2
BITMAP
f8
a8
f8
a8
d8
f8
88
00
ENDCHAR
STARTCHAR 3d21
ENCODING 15649
SWIDTH 822 0
DWIDTH 6 0
BBX 6 8 0 -2
BITMAP
20
f8
88
70
f8
20
a8
00
ENDCHAR
STARTCHAR 3d22
ENCODING 15650
SWIDTH 822 0
DWIDTH 6 0
BBX 6 8 0 -2
BITMAP
58
f0
b8
f0
50
d0
68
00
ENDCHAR
STARTCHAR 3d23
ENCODING 15651
SWIDTH 822 0
DWIDTH 6 0
BBX 6 8 0 -2
BITMAP
68
68
f8
f8
68
68
a8
00
ENDCHAR
STARTCHAR 3d24
ENCODING 15652
SWIDTH 822 0
DWIDTH 6 0
BBX 6 8 0 -2
BITMAP
60
78
d0
e8
50
48
50
00
ENDCHAR
STARTCHAR 3d25
ENCODING 15653
SWIDTH 822 0
DWIDTH 6 0
BBX 6 8 0 -2
BITMAP
d0
78
d0
68
00
c8
b8
00
ENDCHAR
STARTCHAR 3d26
ENCODING 15654
SWIDTH 822 0
DWIDTH 6 0
BBX 6 8 0 -2
BITMAP
50
e8
40
58
c0
58
d8
00
ENDCHAR
STARTCHAR 3d27
ENCODING 15655
SWIDTH 822 0
DWIDTH 6 0
BBX 6 8 0 -2
BITMAP
a8
28
f8
78
a8
a8
c8
00
ENDCHAR
STARTCHAR 3d28
ENCODING 15656
SWIDTH 822 0
DWIDTH 6 0
BBX 6 8 0 -2
BITMAP
70
f8
70
a8
f0
58
88
00
ENDCHAR
STARTCHAR 3d29
ENCODING 15657
SWIDTH 822 0
DWIDTH 6 0
BBX 6 8 0 -2
BITMAP
d0
50
f8
70
d0
d0
68
00
ENDCHAR
STARTCHAR 3d2a
ENCODING 15658
SWIDTH 822 0
DWIDTH 6 0
BBX 6 8 0 -2
BITMAP
58
a8
50
a8
50
c0
58
00
ENDCHAR
STARTCHAR 3d2b
ENCODING 15659
SWIDTH 822 0
DWIDTH 6 0
BBX 6 8 0 -2
BITMAP
50
b0
58
b0
68
d8
68
00
ENDCHAR
STARTCHAR 3d2c
ENCODING 15660
SWIDTH 822 0
DWIDTH 6 0
BBX 6 8 0 -2
BITMAP
d8
48
d8
48
20
70
70
00
ENDCHAR
STARTCHAR 3d2d
ENCODING 15661
SWIDTH 822 0
DWIDTH 6 0
BBX 6 8 0 -2
BITMAP
20
70
50
70
f8
20
d8
00
ENDCHAR
STARTCHAR 3d2e
ENCODING 15662
SWIDTH 822 0
DWIDTH 6 0
BBX 6 8 0 -2
BITMAP
20
78
68
48
f8
68
a8
00
ENDCHAR
STARTCHAR 3d2f
ENCODING 15663
SWIDTH 822 0
DWIDTH 6 0
BBX 6 8 0 -2
BITMAP
50
f8
20
f8
f8
50
98
00
ENDCHAR
STARTCHAR 3d30
ENCODING 15664
SWIDTH 822 0
DWIDTH 6 0
BBX 6 8 0 -2
BITMAP
20
70
f8
60
a8
70
a8
00
ENDCHAR
STARTCHAR 3d31
ENCODING 15665
SWIDTH 822 0
DWIDTH 6 0
BBX 6 8 0 -2
BITMAP
58
f0
68
f0
78
d0
68
00
ENDCHAR
STARTCHAR 3d32
ENCODING 15666
SWIDTH 822 0
DWIDTH 6 0
BBX 6 8 0 -2
BITMAP
50
78
f0
78
f8
50
70
00
ENDCHAR
STARTCHAR 3d33
ENCODING 15667
SWIDTH 822 0
DWIDTH 6 0
BBX 6 8 0 -2
BITMAP
d0
b0
f8
50
f0
f0
a8
00
ENDCHAR
STARTCHAR 3d34
ENCODING 15668
SWIDTH 822 0
DWIDTH 6 0
BBX 6 8 0 -2
BITMAP
d8
58
f8
d8
58
f8
48
00
ENDCHAR
STARTCHAR 3d35
ENCODING 15669
SWIDTH 822 0
DWIDTH 6 0
BBX 6 8 0 -2
BITMAP
b8
28
38
a8
b8
d8
f8
00
ENDCHAR
STARTCHAR 3d36
ENCODING 15670
SWIDTH 822 0
DWIDTH 6 0
BBX 6 8 0 -2
BITMAP
50
f8
50
f8
d8
88
f8
00
ENDCHAR
STARTCHAR 3d37
ENCODING 15671
SWIDTH 822 0
DWIDTH 6 0
BBX 6 8 0 -2
BITMAP
e8
68
f8
f8
a8
e8
e8
00
ENDCHAR
STARTCHAR 3d38
ENCODING 15672
SWIDTH 822 0
DWIDTH 6 0
BBX 6 8 0 -2
BITMAP
50
78
d0
78
f8
70
a8
00
ENDCHAR
STARTCHAR 3d39
ENCODING 15673
SWIDTH 822 0
DWIDTH 6 0
BBX 6 8 0 -2
BITMAP
d0
78
f8
f8
d0
d0
e8
00
ENDCHAR
STARTCHAR 3d3a
ENCODING 15674
SWIDTH 822 0
DWIDTH 6 0
BBX 6 8 0 -2
BITMAP
50
50
f8
d0
50
50
50
00
ENDCHAR
STARTCHAR 3d3b
ENCODING 15675
SWIDTH 822 0
DWIDTH 6 0
BBX 6 8 0 -2
BITMAP
50
40
f8
d0
78
50
78
00
ENDCHAR
STARTCHAR 3d3c
ENCODING 15676
SWIDTH 822 0
DWIDTH 6 0
BBX 6 8 0 -2
BITMAP
20
f8
50
e8
50
50
98
00
ENDCHAR
STARTCHAR 3d3d
ENCODING 15677
SWIDTH 822 0
DWIDTH 6 0
BBX 6 8 0 -2
BITMAP
20
20
f8
20
20
20
20
00
ENDCHAR
STARTCHAR 3d3e
ENCODING 15678
SWIDTH 822 0
DWIDTH 6 0
BBX 6 8 0 -2
BITMAP
68
b8
50
d8
50
70
58
00
ENDCHAR
STARTCHAR 3d3f
ENCODING 15679
SWIDTH 822 0
DWIDTH 6 0
BBX 6 8 0 -2
BITMAP
10
f8
10
50
f8
50
a8
00
ENDCHAR
STARTCHAR 3d40
ENCODING 15680
SWIDTH 822 0
DWIDTH 6 0
BBX 6 8 0 -2
BITMAP
70
f8
68
a0
f8
70
a8
00
ENDCHAR
STARTCHAR 3d41
ENCODING 15681
SWIDTH 822 0
DWIDTH 6 0
BBX 6 8 0 -2
BITMAP
90
10
b8
10
90
90
90
00
ENDCHAR
STARTCHAR 3d42
ENCODING 15682
SWIDTH 822 0
DWIDTH 6 0
BBX 6 8 0 -2
BITMAP
90
58
d0
78
88
d0
88
00
ENDCHAR
STARTCHAR 3d43
ENCODING 15683
SWIDTH 822 0
DWIDTH 6 0
BBX 6 8 0 -2
BITMAP
b0
70
78
10
f0
70
68
00
ENDCHAR
STARTCHAR 3d44
ENCODING 15684
SWIDTH 822 0
DWIDTH 6 0
BBX 6 8 0 -2
BITMAP
68
b8
50
98
50
f0
58
00
ENDCHAR
STARTCHAR 3d45
ENCODING 15685
SWIDTH 822 0
DWIDTH 6 0
BBX 6 8 0 -2
BITMAP
10
60
f8
70
70
20
f8
00
ENDCHAR
STARTCHAR 3d46
ENCODING 15686
SWIDTH 822 0
DWIDTH 6 0
BBX 6 8 0 -2
BITMAP
50
b8
d0
60
f8
50
e8
00
ENDCHAR
STARTCHAR 3d47
ENCODING 15687
SWIDTH 822 0
DWIDTH 6 0
BBX 6 8 0 -2
BITMAP
58
68
48
e8
50
d0
68
00
ENDCHAR
STARTCHAR 3d48
ENCODING 15688
SWIDTH 822 0
DWIDTH 6 0
BBX 6 8 0 -2
BITMAP
f8
88
f8
b8
d8
a8
c8
00
ENDCHAR
STARTCHAR 3d49
ENCODING 15689
SWIDTH 822 0
DWIDTH 6 0
BBX 6 8 0 -2
BITMAP
20
f8
88
78
d0
58
58
00
ENDCHAR
STARTCHAR 3d4a
ENCODING 15690
SWIDTH 822 0
DWIDTH 6 0
BBX 6 8 0 -2
BITMAP
d8
68
c8
68
d0
d0
e8
00
ENDCHAR
STARTCHAR 3d4b
ENCODING 15691
SWIDTH 822 0
DWIDTH 6 0
BBX 6 8 0 -2
BITMAP
78
e8
68
b8
50
50
68
00
ENDCHAR
STARTCHAR 3d4c
ENCODING 15692
SWIDTH 822 0
DWIDTH 6 0
BBX 6 8 0 -2
BITMAP
50
b8
68
98
50
d8
58
00
ENDCHAR
STARTCHAR 3d4d
ENCODING 15693
SWIDTH 822 0
DWIDTH 6 0
BBX 6 8 0 -2
BITMAP
20
70
38
f0
68
78
a8
00
ENDCHAR
STARTCHAR 3d4e
ENCODING 15694
SWIDTH 822 0
DWIDTH 6 0
BBX 6 8 0 -2
BITMAP
50
f0
b0
f0
58
20
f8
00
ENDCHAR
STARTCHAR 3d4f
ENCODING 15695
SWIDTH 822 0
DWIDTH 6 0
BBX 6 8 0 -2
BITMAP
50
f0
b0
f0
58
00
a8
00
ENDCHAR
STARTCHAR 3d50
ENCODING 15696
SWIDTH 822 0
DWIDTH 6 0
BBX 6 8 0 -2
BITMAP
20
a8
f8
20
a8
a8
f8
00
ENDCHAR
STARTCHAR 3d51
ENCODING 15697
SWIDTH 822 0
DWIDTH 6 0
BBX 6 8 0 -2
BITMAP
68
b0
68
f8
78
68
48
00
ENDCHAR
STARTCHAR 3d52
ENCODING 15698
SWIDTH 822 0
DWIDTH 6 0
BBX 6 8 0 -2
BITMAP
90
78
10
d8
d8
90
f8
00
ENDCHAR
STARTCHAR 3d53
ENCODING 15699
SWIDTH 822 0
DWIDTH 6 0
BBX 6 8 0 -2
BITMAP
50
68
f8
d8
68
50
68
00
ENDCHAR
STARTCHAR 3d54
ENCODING 15700
SWIDTH 822 0
DWIDTH 6 0
BBX 6 8 0 -2
BITMAP
50
68
78
d8
e8
d0
28
00
ENDCHAR
STARTCHAR 3d55
ENCODING 15701
SWIDTH 822 0
DWIDTH 6 0
BBX 6 8 0 -2
BITMAP
20
f8
70
f8
50
b8
30
00
ENDCHAR
STARTCHAR 3d56
ENCODING 15702
SWIDTH 822 0
DWIDTH 6 0
BBX 6 8 0 -2
BITMAP
f8
d0
f8
e8
c0
d8
28
00
ENDCHAR
STARTCHAR 3d57
ENCODING 15703
SWIDTH 822 0
DWIDTH 6 0
BBX 6 8 0 -2
BITMAP
50
e8
b8
b8
68
d0
28
00
ENDCHAR
STARTCHAR 3d58
ENCODING 15704
SWIDTH 822 0
DWIDTH 6 0
BBX 6 8 0 -2
BITMAP
f8
50
f8
88
d0
78
90
00
ENDCHAR
STARTCHAR 3d59
ENCODING 15705
SWIDTH 822 0
DWIDTH 6 0
BBX 6 8 0 -2
BITMAP
d0
a8
f8
b8
68
d0
68
00
ENDCHAR
STARTCHAR 3d5a
ENCODING 15706
SWIDTH 822 0
DWIDTH 6 0
BBX 6 8 0 -2
BITMAP
a8
38
70
38
b0
b0
b8
00
ENDCHAR
STARTCHAR 3d5b
ENCODING 15707
SWIDTH 822 0
DWIDTH 6 0
BBX 6 8 0 -2
BITMAP
78
a0
78
d0
58
58
58
00
ENDCHAR
STARTCHAR 3d5c
ENCODING 15708
SWIDTH 822 0
DWIDTH 6 0
BBX 6 8 0 -2
BITMAP
40
78
f8
58
78
58
78
00
ENDCHAR
STARTCHAR 3d5d
ENCODING 15709
SWIDTH 822 0
DWIDTH 6 0
BBX 6 8 0 -2
BITMAP
78
e0
78
d0
d8
58
58
00
ENDCHAR
STARTCHAR 3d5e
ENCODING 15710
SWIDTH 822 0
DWIDTH 6 0
BBX 6 8 0 -2
BITMAP
e0
78
78
a8
78
68
b8
00
ENDCHAR
STARTCHAR 3d5f
ENCODING 15711
SWIDTH 822 0
DWIDTH 6 0
BBX 6 8 0 -2
BITMAP
90
78
a8
38
88
f8
90
00
ENDCHAR
STARTCHAR 3d60
ENCODING 15712
SWIDTH 822 0
DWIDTH 6 0
BBX 6 8 0 -2
BITMAP
a8
38
b0
38
a0
f8
20
00
ENDCHAR
STARTCHAR 3d61
ENCODING 15713
SWIDTH 822 0
DWIDTH 6 0
BBX 6 8 0 -2
BITMAP
e8
68
c8
78
d8
f8
c8
00
ENDCHAR
STARTCHAR 3d62
ENCODING 15714
SWIDTH 822 0
DWIDTH 6 0
BBX 6 8 0 -2
BITMAP
f8
90
f8
90
b8
b8
38
00
ENDCHAR
STARTCHAR 3d63
ENCODING 15715
SWIDTH 822 0
DWIDTH 6 0
BBX 6 8 0 -2
BITMAP
50
b8
50
a8
78
d0
58
00
ENDCHAR
STARTCHAR 3d64
ENCODING 15716
SWIDTH 822 0
DWIDTH 6 0
BBX 6 8 0 -2
BITMAP
a8
28
50
a8
a8
80
f8
00
ENDCHAR
STARTCHAR 3d65
ENCODING 15717
SWIDTH 822 0
DWIDTH 6 0
BBX 6 8 0 -2
BITMAP
a8
78
38
f8
a8
98
f8
00
ENDCHAR
STARTCHAR 3d66
ENCODING 15718
SWIDTH 822 0
DWIDTH 6 0
BBX 6 8 0 -2
BITMAP
d0
78
e8
f8
c8
f8
d0
00
ENDCHAR
STARTCHAR 3d67
ENCODING 15719
SWIDTH 822 0
DWIDTH 6 0
BBX 6 8 0 -2
BITMAP
b8
d0
f8
e8
f8
80
a8
00
ENDCHAR
STARTCHAR 3d68
ENCODING 15720
SWIDTH 822 0
DWIDTH 6 0
BBX 6 8 0 -2
BITMAP
40
78
a8
a8
48
60
98
00
ENDCHAR
STARTCHAR 3d69
ENCODING 15721
SWIDTH 822 0
DWIDTH 6 0
BBX 6 8 0 -2
BITMAP
78
d8
58
98
58
68
68
00
ENDCHAR
STARTCHAR 3d6a
ENCODING 15722
SWIDTH 822 0
DWIDTH 6 0
BBX 6 8 0 -2
BITMAP
c8
30
e0
b8
e8
a8
88
00
ENDCHAR
STARTCHAR 3d6b
ENCODING 15723
SWIDTH 822 0
DWIDTH 6 0
BBX 6 8 0 -2
BITMAP
70
50
70
20
f8
70
b0
00
ENDCHAR
STARTCHAR 3d6c
ENCODING 15724
SWIDTH 822 0
DWIDTH 6 0
BBX 6 8 0 -2
BITMAP
38
e8
f8
d0
f8
d8
18
00
ENDCHAR
STARTCHAR 3d6d
ENCODING 15725
SWIDTH 822 0
DWIDTH 6 0
BBX 6 8 0 -2
BITMAP
90
38
90
78
a0
d8
98
00
ENDCHAR
STARTCHAR 3d6e
ENCODING 15726
SWIDTH 822 0
DWIDTH 6 0
BBX 6 8 0 -2
BITMAP
20
f8
b0
f8
b0
00
a8
00
ENDCHAR
STARTCHAR 3d6f
ENCODING 15727
SWIDTH 822 0
DWIDTH 6 0
BBX 6 8 0 -2
BITMAP
50
b8
50
b8
60
d8
58
00
ENDCHAR
STARTCHAR 3d70
ENCODING 15728
SWIDTH 822 0
DWIDTH 6 0
BBX 6 8 0 -2
BITMAP
f8
a8
f8
70
f8
70
b0
00
ENDCHAR
STARTCHAR 3d71
ENCODING 15729
SWIDTH 822 0
DWIDTH 6 0
BBX 6 8 0 -2
BITMAP
20
70
38
f0
20
f8
70
00
ENDCHAR
STARTCHAR 3d72
ENCODING 15730
SWIDTH 822 0
DWIDTH 6 0
BBX 6 8 0 -2
BITMAP
50
f8
f8
70
f8
70
b0
00
ENDCHAR
STARTCHAR 3d73
ENCODING 15731
SWIDTH 822 0
DWIDTH 6 0
BBX 6 8 0 -2
BITMAP
50
f8
10
b8
20
d8
d8
00
ENDCHAR
STARTCHAR 3d74
ENCODING 15732
SWIDTH 822 0
DWIDTH 6 0
BBX 6 8 0 -2
BITMAP
90
f8
10
b8
20
d8
d8
00
ENDCHAR
STARTCHAR 3d75
ENCODING 15733
SWIDTH 822 0
DWIDTH 6 0
BBX 6 8 0 -2
BITMAP
d0
f8
d8
d8
d8
e8
28
00
ENDCHAR
STARTCHAR 3d76
ENCODING 15734
SWIDTH 822 0
DWIDTH 6 0
BBX 6 8 0 -2
BITMAP
58
a8
e8
50
f0
d0
68
00
ENDCHAR
STARTCHAR 3d77
ENCODING 15735
SWIDTH 822 0
DWIDTH 6 0
BBX 6 8 0 -2
BITMAP
20
20
f8
50
60
30
c8
00
ENDCHAR
STARTCHAR 3d78
ENCODING 15736
SWIDTH 822 0
DWIDTH 6 0
BBX 6 8 0 -2
BITMAP
20
f8
b0
90
f8
a8
60
00
ENDCHAR
STARTCHAR 3d79
ENCODING 15737
SWIDTH 822 0
DWIDTH 6 0
BBX 6 8 0 -2
BITMAP
50
a8
78
d0
78
70
50
00
ENDCHAR
STARTCHAR 3d7a
ENCODING 15738
SWIDTH 822 0
DWIDTH 6 0
BBX 6 8 0 -2
BITMAP
58
f8
b8
d8
00
c8
b8
00
ENDCHAR
STARTCHAR 3d7b
ENCODING 15739
SWIDTH 822 0
DWIDTH 6 0
BBX 6 8 0 -2
BITMAP
50
b8
d8
78
d8
78
c8
00
ENDCHAR
STARTCHAR 3d7c
ENCODING 15740
SWIDTH 822 0
DWIDTH 6 0
BBX 6 8 0 -2
BITMAP
d0
e8
b8
d0
f8
b0
90
00
ENDCHAR
STARTCHAR 3d7d
ENCODING 15741
SWIDTH 822 0
DWIDTH 6 0
BBX 6 8 0 -2
BITMAP
60
78
d8
d0
68
58
68
00
ENDCHAR
STARTCHAR 3d7e
ENCODING 15742
SWIDTH 822 0
DWIDTH 6 0
BBX 6 8 0 -2
BITMAP
68
50
e8
f8
78
40
68
00
ENDCHAR
STARTCHAR 3e21
ENCODING 15905
SWIDTH 822 0
DWIDTH 6 0
BBX 6 8 0 -2
BITMAP
e8
f8
d0
e8
d0
d8
a8
00
ENDCHAR
STARTCHAR 3e22
ENCODING 15906
SWIDTH 822 0
DWIDTH 6 0
BBX 6 8 0 -2
BITMAP
f8
90
a0
b8
d0
90
f8
00
ENDCHAR
STARTCHAR 3e23
ENCODING 15907
SWIDTH 822 0
DWIDTH 6 0
BBX 6 8 0 -2
BITMAP
30
d0
50
f8
50
50
90
00
ENDCHAR
STARTCHAR 3e24
ENCODING 15908
SWIDTH 822 0
DWIDTH 6 0
BBX 6 8 0 -2
BITMAP
f8
28
48
98
70
50
70
00
ENDCHAR
STARTCHAR 3e25
ENCODING 15909
SWIDTH 822 0
DWIDTH 6 0
BBX 6 8 0 -2
BITMAP
28
d0
f8
e8
f8
28
28
00
ENDCHAR
STARTCHAR 3e26
ENCODING 15910
SWIDTH 822 0
DWIDTH 6 0
BBX 6 8 0 -2
BITMAP
20
f8
50
f8
d8
88
a8
00
ENDCHAR
STARTCHAR 3e27
ENCODING 15911
SWIDTH 822 0
DWIDTH 6 0
BBX 6 8 0 -2
BITMAP
18
d8
b8
a8
f8
28
38
00
ENDCHAR
STARTCHAR 3e28
ENCODING 15912
SWIDTH 822 0
DWIDTH 6 0
BBX 6 8 0 -2
BITMAP
a8
f8
b8
40
78
50
70
00
ENDCHAR
STARTCHAR 3e29
ENCODING 15913
SWIDTH 822 0
DWIDTH 6 0
BBX 6 8 0 -2
BITMAP
58
e8
78
d0
78
20
d8
00
ENDCHAR
STARTCHAR 3e2a
ENCODING 15914
SWIDTH 822 0
DWIDTH 6 0
BBX 6 8 0 -2
BITMAP
20
f8
50
f8
f8
50
e8
00
ENDCHAR
STARTCHAR 3e2b
ENCODING 15915
SWIDTH 822 0
DWIDTH 6 0
BBX 6 8 0 -2
BITMAP
58
58
f8
a8
f8
68
b8
00
ENDCHAR
STARTCHAR 3e2c
ENCODING 15916
SWIDTH 822 0
DWIDTH 6 0
BBX 6 8 0 -2
BITMAP
20
f8
d8
70
50
70
50
00
ENDCHAR
STARTCHAR 3e2d
ENCODING 15917
SWIDTH 822 0
DWIDTH 6 0
BBX 6 8 0 -2
BITMAP
58
40
e8
40
f8
68
58
00
ENDCHAR
STARTCHAR 3e2e
ENCODING 15918
SWIDTH 822 0
DWIDTH 6 0
BBX 6 8 0 -2
BITMAP
20
20
70
68
a8
20
60
00
ENDCHAR
STARTCHAR 3e2f
ENCODING 15919
SWIDTH 822 0
DWIDTH 6 0
BBX 6 8 0 -2
BITMAP
20
70
68
a0
28
10
60
00
ENDCHAR
STARTCHAR 3e30
ENCODING 15920
SWIDTH 822 0
DWIDTH 6 0
BBX 6 8 0 -2
BITMAP
20
a8
20
f8
88
b8
b8
00
ENDCHAR
STARTCHAR 3e31
ENCODING 15921
SWIDTH 822 0
DWIDTH 6 0
BBX 6 8 0 -2
BITMAP
20
f8
90
b8
90
90
b8
00
ENDCHAR
STARTCHAR 3e32
ENCODING 15922
SWIDTH 822 0
DWIDTH 6 0
BBX 6 8 0 -2
BITMAP
20
f8
90
f8
b0
d8
90
00
ENDCHAR
STARTCHAR 3e33
ENCODING 15923
SWIDTH 822 0
DWIDTH 6 0
BBX 6 8 0 -2
BITMAP
20
f8
a0
d8
e8
f0
a8
00
ENDCHAR
STARTCHAR 3e34
ENCODING 15924
SWIDTH 822 0
DWIDTH 6 0
BBX 6 8 0 -2
BITMAP
48
f0
a8
f0
60
e8
50
00
ENDCHAR
STARTCHAR 3e35
ENCODING 15925
SWIDTH 822 0
DWIDTH 6 0
BBX 6 8 0 -2
BITMAP
70
10
e8
70
70
a8
60
00
ENDCHAR
STARTCHAR 3e36
ENCODING 15926
SWIDTH 822 0
DWIDTH 6 0
BBX 6 8 0 -2
BITMAP
50
f0
78
50
c8
50
e0
00
ENDCHAR
STARTCHAR 3e37
ENCODING 15927
SWIDTH 822 0
DWIDTH 6 0
BBX 6 8 0 -2
BITMAP
78
d8
68
40
f8
68
f8
00
ENDCHAR
STARTCHAR 3e38
ENCODING 15928
SWIDTH 822 0
DWIDTH 6 0
BBX 6 8 0 -2
BITMAP
a8
70
d8
70
70
f8
60
00
ENDCHAR
STARTCHAR 3e39
ENCODING 15929
SWIDTH 822 0
DWIDTH 6 0
BBX 6 8 0 -2
BITMAP
50
f8
58
70
d8
70
d8
00
ENDCHAR
STARTCHAR 3e3a
ENCODING 15930
SWIDTH 822 0
DWIDTH 6 0
BBX 6 8 0 -2
BITMAP
f8
88
f8
50
f8
50
90
00
ENDCHAR
STARTCHAR 3e3b
ENCODING 15931
SWIDTH 822 0
DWIDTH 6 0
BBX 6 8 0 -2
BITMAP
70
50
f8
88
f8
88
f8
00
ENDCHAR
STARTCHAR 3e3c
ENCODING 15932
SWIDTH 822 0
DWIDTH 6 0
BBX 6 8 0 -2
BITMAP
38
d8
a8
c0
b8
e8
38
00
ENDCHAR
STARTCHAR 3e3d
ENCODING 15933
SWIDTH 822 0
DWIDTH 6 0
BBX 6 8 0 -2
BITMAP
70
50
70
d8
d8
d8
d8
00
ENDCHAR
STARTCHAR 3e3e
ENCODING 15934
SWIDTH 822 0
DWIDTH 6 0
BBX 6 8 0 -2
BITMAP
68
e8
40
d0
d0
68
78
00
ENDCHAR
STARTCHAR 3e3f
ENCODING 15935
SWIDTH 822 0
DWIDTH 6 0
BBX 6 8 0 -2
BITMAP
68
d0
78
e8
f8
68
68
00
ENDCHAR
STARTCHAR 3e40
ENCODING 15936
SWIDTH 822 0
DWIDTH 6 0
BBX 6 8 0 -2
BITMAP
50
f8
68
f8
f0
78
50
00
ENDCHAR
STARTCHAR 3e41
ENCODING 15937
SWIDTH 822 0
DWIDTH 6 0
BBX 6 8 0 -2
BITMAP
68
f8
70
f0
f8
40
68
00
ENDCHAR
STARTCHAR 3e42
ENCODING 15938
SWIDTH 822 0
DWIDTH 6 0
BBX 6 8 0 -2
BITMAP
b8
18
a8
00
b8
a8
b8
00
ENDCHAR
STARTCHAR 3e43
ENCODING 15939
SWIDTH 822 0
DWIDTH 6 0
BBX 6 8 0 -2
BITMAP
a8
10
b8
28
b8
a8
a8
00
ENDCHAR
STARTCHAR 3e44
ENCODING 15940
SWIDTH 822 0
DWIDTH 6 0
BBX 6 8 0 -2
BITMAP
90
58
d0
78
d0
88
b0
00
ENDCHAR
STARTCHAR 3e45
ENCODING 15941
SWIDTH 822 0
DWIDTH 6 0
BBX 6 8 0 -2
BITMAP
b8
68
b8
68
f8
a8
b8
00
ENDCHAR
STARTCHAR 3e46
ENCODING 15942
SWIDTH 822 0
DWIDTH 6 0
BBX 6 8 0 -2
BITMAP
50
78
d0
e8
78
50
a8
00
ENDCHAR
STARTCHAR 3e47
ENCODING 15943
SWIDTH 822 0
DWIDTH 6 0
BBX 6 8 0 -2
BITMAP
50
78
f0
50
78
00
a8
00
ENDCHAR
STARTCHAR 3e48
ENCODING 15944
SWIDTH 822 0
DWIDTH 6 0
BBX 6 8 0 -2
BITMAP
f8
d8
e8
d8
d8
00
a8
00
ENDCHAR
STARTCHAR 3e49
ENCODING 15945
SWIDTH 822 0
DWIDTH 6 0
BBX 6 8 0 -2
BITMAP
10
78
c0
70
d8
70
b8
00
ENDCHAR
STARTCHAR 3e4a
ENCODING 15946
SWIDTH 822 0
DWIDTH 6 0
BBX 6 8 0 -2
BITMAP
20
a8
30
c8
78
48
78
00
ENDCHAR
STARTCHAR 3e4b
ENCODING 15947
SWIDTH 822 0
DWIDTH 6 0
BBX 6 8 0 -2
BITMAP
e8
50
78
a8
78
68
28
00
ENDCHAR
STARTCHAR 3e4c
ENCODING 15948
SWIDTH 822 0
DWIDTH 6 0
BBX 6 8 0 -2
BITMAP
e8
78
70
b0
78
40
28
00
ENDCHAR
STARTCHAR 3e4d
ENCODING 15949
SWIDTH 822 0
DWIDTH 6 0
BBX 6 8 0 -2
BITMAP
68
f8
50
b8
50
78
50
00
ENDCHAR
ENDFONT
